<?xml version="1.0" encoding="UTF-8"?>
<svg height="574.80mm" viewBox="0.0 0.0 1497.74 574.80" width="1497.74mm" xmlns="http://www.w3.org/2000/svg" xmlns:cc="http://creativecommons.org/ns#" xmlns:dc="http://purl.org/dc/elements/1.1/" xmlns:inkscape="http://www.inkscape.org/namespaces/inkscape" xmlns:rdf="http://www.w3.org/1999/02/22-rdf-syntax-ns#" xmlns:svg="http://www.w3.org/2000/svg" xmlns:xlink="http://www.w3.org/1999/xlink">
<!--
TwoPiece - A two piece box where top slips over the bottom half to form 
       the enclosure.
    

Created with Boxes.py (https://festi.info/boxes.py)
Creation date: 2022-03-20 19:04:35
Command line (remove spaces between dashes): boxes TwoPiece - -FingerJoint_angle=90.0 - -FingerJoint_style=rectangular - -FingerJoint_surroundingspaces=2.0 - -FingerJoint_edge_width=1.0 - -FingerJoint_extra_length=0.0 - -FingerJoint_finger=2.0 - -FingerJoint_play=0.0 - -FingerJoint_space=2.0 - -FingerJoint_width=1.0 - -x=426.72 - -y=265 - -h=120.0 - -hi=0.0 - -outside=0 - -play=0.15 - -thickness=5.0 - -format=svg - -tabs=0.0 - -debug=0 - -labels=0 - -labels=1 - -reference=100 - -burn=0.1
Url: http://festi.info/TwoPiece?FingerJoint_angle=90.0&FingerJoint_style=rectangular&FingerJoint_surroundingspaces=2.0&FingerJoint_edge_width=1.0&FingerJoint_extra_length=0.0&FingerJoint_finger=2.0&FingerJoint_play=0.0&FingerJoint_space=2.0&FingerJoint_width=1.0&x=426.72&y=265&h=120.0&hi=0.0&outside=0&play=0.15&thickness=5.0&format=svg&tabs=0.0&debug=0&labels=0&labels=1&reference=100&burn=0.1&render=1
SettingsUrl: http://festi.info/TwoPiece?FingerJoint_angle=90.0&FingerJoint_style=rectangular&FingerJoint_surroundingspaces=2.0&FingerJoint_edge_width=1.0&FingerJoint_extra_length=0.0&FingerJoint_finger=2.0&FingerJoint_play=0.0&FingerJoint_space=2.0&FingerJoint_width=1.0&x=426.72&y=265&h=120.0&hi=0.0&outside=0&play=0.15&thickness=5.0&format=svg&tabs=0.0&debug=0&labels=0&labels=1&reference=100&burn=0.1
-->
<title>TwoPiece</title>
<metadata>
<rdf:RDF><cc:Work>
<dc:title>Box - TwoPiece</dc:title>
<dc:date>2022-03-20 19:04:35</dc:date>
<dc:source>http://festi.info/TwoPiece?FingerJoint_angle=90.0&amp;FingerJoint_style=rectangular&amp;FingerJoint_surroundingspaces=2.0&amp;FingerJoint_edge_width=1.0&amp;FingerJoint_extra_length=0.0&amp;FingerJoint_finger=2.0&amp;FingerJoint_play=0.0&amp;FingerJoint_space=2.0&amp;FingerJoint_width=1.0&amp;x=426.72&amp;y=265&amp;h=120.0&amp;hi=0.0&amp;outside=0&amp;play=0.15&amp;thickness=5.0&amp;format=svg&amp;tabs=0.0&amp;debug=0&amp;labels=0&amp;labels=1&amp;reference=100&amp;burn=0.1&amp;render=1</dc:source>
<dc:description>A two piece box where top slips over the bottom half to form 
       the enclosure.
    

Created with Boxes.py (https://festi.info/boxes.py)
Command line: boxes TwoPiece --FingerJoint_angle=90.0 --FingerJoint_style=rectangular --FingerJoint_surroundingspaces=2.0 --FingerJoint_edge_width=1.0 --FingerJoint_extra_length=0.0 --FingerJoint_finger=2.0 --FingerJoint_play=0.0 --FingerJoint_space=2.0 --FingerJoint_width=1.0 --x=426.72 --y=265 --h=120.0 --hi=0.0 --outside=0 --play=0.15 --thickness=5.0 --format=svg --tabs=0.0 --debug=0 --labels=0 --labels=1 --reference=100 --burn=0.1
Url: http://festi.info/TwoPiece?FingerJoint_angle=90.0&amp;FingerJoint_style=rectangular&amp;FingerJoint_surroundingspaces=2.0&amp;FingerJoint_edge_width=1.0&amp;FingerJoint_extra_length=0.0&amp;FingerJoint_finger=2.0&amp;FingerJoint_play=0.0&amp;FingerJoint_space=2.0&amp;FingerJoint_width=1.0&amp;x=426.72&amp;y=265&amp;h=120.0&amp;hi=0.0&amp;outside=0&amp;play=0.15&amp;thickness=5.0&amp;format=svg&amp;tabs=0.0&amp;debug=0&amp;labels=0&amp;labels=1&amp;reference=100&amp;burn=0.1&amp;render=1
SettingsUrl: http://festi.info/TwoPiece?FingerJoint_angle=90.0&amp;FingerJoint_style=rectangular&amp;FingerJoint_surroundingspaces=2.0&amp;FingerJoint_edge_width=1.0&amp;FingerJoint_extra_length=0.0&amp;FingerJoint_finger=2.0&amp;FingerJoint_play=0.0&amp;FingerJoint_space=2.0&amp;FingerJoint_width=1.0&amp;x=426.72&amp;y=265&amp;h=120.0&amp;hi=0.0&amp;outside=0&amp;play=0.15&amp;thickness=5.0&amp;format=svg&amp;tabs=0.0&amp;debug=0&amp;labels=0&amp;labels=1&amp;reference=100&amp;burn=0.1
</dc:description>
</cc:Work></rdf:RDF></metadata>
<g id="p-0" style="fill:none;stroke-linecap:round;stroke-linejoin:round;">
  <path d="M 10.100 564.800 H 110.100 V 554.800 H 10.100 V 564.800 Z" stroke="rgb(0,0,0)" stroke-width="0.20"/>
  <text alignment-baseline="hanging" font-size="10px" style="font-family: sans-serif ; font-weight: normal; font-style: normal; fill: rgb(0,0,0)" text-anchor="middle" transform="matrix( 1.000 0.000 0.000 1.000 60.100 554.800 )">100mm</text><text alignment-baseline="hanging" font-size="4px" style="font-family: sans-serif ; font-weight: normal; font-style: normal; fill: rgb(255,0,0)" text-anchor="middle" transform="matrix( 1.000 0.000 0.000 1.000 15.100 557.800 )"/>
</g>
<g id="p-1" style="fill:none;stroke-linecap:round;stroke-linejoin:round;">
  <text alignment-baseline="hanging" font-size="4px" style="font-family: sans-serif ; font-weight: normal; font-style: normal; fill: rgb(255,0,0)" text-anchor="middle" transform="matrix( 1.000 0.000 0.000 1.000 228.460 487.600 )"/><path d="M 15.100 547.100 H 33.360 C 33.460 547.100 33.360 547.000 33.360 547.100 V 552.000 C 33.360 552.055 33.405 552.100 33.460 552.100 H 43.460 C 43.515 552.100 43.560 552.055 43.560 552.000 V 547.100 C 43.560 547.000 43.460 547.100 43.560 547.100 H 53.360 C 53.460 547.100 53.360 547.000 53.360 547.100 V 552.000 C 53.360 552.055 53.405 552.100 53.460 552.100 H 63.460 C 63.515 552.100 63.560 552.055 63.560 552.000 V 547.100 C 63.560 547.000 63.460 547.100 63.560 547.100 H 73.360 C 73.460 547.100 73.360 547.000 73.360 547.100 V 552.000 C 73.360 552.055 73.405 552.100 73.460 552.100 H 83.460 C 83.515 552.100 83.560 552.055 83.560 552.000 V 547.100 C 83.560 547.000 83.460 547.100 83.560 547.100 H 93.360 C 93.460 547.100 93.360 547.000 93.360 547.100 V 552.000 C 93.360 552.055 93.405 552.100 93.460 552.100 H 103.460 C 103.515 552.100 103.560 552.055 103.560 552.000 V 547.100 C 103.560 547.000 103.460 547.100 103.560 547.100 H 113.360 C 113.460 547.100 113.360 547.000 113.360 547.100 V 552.000 C 113.360 552.055 113.405 552.100 113.460 552.100 H 123.460 C 123.515 552.100 123.560 552.055 123.560 552.000 V 547.100 C 123.560 547.000 123.460 547.100 123.560 547.100 H 133.360 C 133.460 547.100 133.360 547.000 133.360 547.100 V 552.000 C 133.360 552.055 133.405 552.100 133.460 552.100 H 143.460 C 143.515 552.100 143.560 552.055 143.560 552.000 V 547.100 C 143.560 547.000 143.460 547.100 143.560 547.100 H 153.360 C 153.460 547.100 153.360 547.000 153.360 547.100 V 552.000 C 153.360 552.055 153.405 552.100 153.460 552.100 H 163.460 C 163.515 552.100 163.560 552.055 163.560 552.000 V 547.100 C 163.560 547.000 163.460 547.100 163.560 547.100 H 173.360 C 173.460 547.100 173.360 547.000 173.360 547.100 V 552.000 C 173.360 552.055 173.405 552.100 173.460 552.100 H 183.460 C 183.515 552.100 183.560 552.055 183.560 552.000 V 547.100 C 183.560 547.000 183.460 547.100 183.560 547.100 H 193.360 C 193.460 547.100 193.360 547.000 193.360 547.100 V 552.000 C 193.360 552.055 193.405 552.100 193.460 552.100 H 203.460 C 203.515 552.100 203.560 552.055 203.560 552.000 V 547.100 C 203.560 547.000 203.460 547.100 203.560 547.100 H 213.360 C 213.460 547.100 213.360 547.000 213.360 547.100 V 552.000 C 213.360 552.055 213.405 552.100 213.460 552.100 H 223.460 C 223.515 552.100 223.560 552.055 223.560 552.000 V 547.100 C 223.560 547.000 223.460 547.100 223.560 547.100 H 233.360 C 233.460 547.100 233.360 547.000 233.360 547.100 V 552.000 C 233.360 552.055 233.405 552.100 233.460 552.100 H 243.460 C 243.515 552.100 243.560 552.055 243.560 552.000 V 547.100 C 243.560 547.000 243.460 547.100 243.560 547.100 H 253.360 C 253.460 547.100 253.360 547.000 253.360 547.100 V 552.000 C 253.360 552.055 253.405 552.100 253.460 552.100 H 263.460 C 263.515 552.100 263.560 552.055 263.560 552.000 V 547.100 C 263.560 547.000 263.460 547.100 263.560 547.100 H 273.360 C 273.460 547.100 273.360 547.000 273.360 547.100 V 552.000 C 273.360 552.055 273.405 552.100 273.460 552.100 H 283.460 C 283.515 552.100 283.560 552.055 283.560 552.000 V 547.100 C 283.560 547.000 283.460 547.100 283.560 547.100 H 293.360 C 293.460 547.100 293.360 547.000 293.360 547.100 V 552.000 C 293.360 552.055 293.405 552.100 293.460 552.100 H 303.460 C 303.515 552.100 303.560 552.055 303.560 552.000 V 547.100 C 303.560 547.000 303.460 547.100 303.560 547.100 H 313.360 C 313.460 547.100 313.360 547.000 313.360 547.100 V 552.000 C 313.360 552.055 313.405 552.100 313.460 552.100 H 323.460 C 323.515 552.100 323.560 552.055 323.560 552.000 V 547.100 C 323.560 547.000 323.460 547.100 323.560 547.100 H 333.360 C 333.460 547.100 333.360 547.000 333.360 547.100 V 552.000 C 333.360 552.055 333.405 552.100 333.460 552.100 H 343.460 C 343.515 552.100 343.560 552.055 343.560 552.000 V 547.100 C 343.560 547.000 343.460 547.100 343.560 547.100 H 353.360 C 353.460 547.100 353.360 547.000 353.360 547.100 V 552.000 C 353.360 552.055 353.405 552.100 353.460 552.100 H 363.460 C 363.515 552.100 363.560 552.055 363.560 552.000 V 547.100 C 363.560 547.000 363.460 547.100 363.560 547.100 H 373.360 C 373.460 547.100 373.360 547.000 373.360 547.100 V 552.000 C 373.360 552.055 373.405 552.100 373.460 552.100 H 383.460 C 383.515 552.100 383.560 552.055 383.560 552.000 V 547.100 C 383.560 547.000 383.460 547.100 383.560 547.100 H 393.360 C 393.460 547.100 393.360 547.000 393.360 547.100 V 552.000 C 393.360 552.055 393.405 552.100 393.460 552.100 H 403.460 C 403.515 552.100 403.560 552.055 403.560 552.000 V 547.100 C 403.560 547.000 403.460 547.100 403.560 547.100 H 413.360 C 413.460 547.100 413.360 547.000 413.360 547.100 V 552.000 C 413.360 552.055 413.405 552.100 413.460 552.100 H 423.460 C 423.515 552.100 423.560 552.055 423.560 552.000 V 547.100 C 423.560 547.000 423.460 547.100 423.560 547.100 H 441.820 H 446.820 C 446.875 547.100 446.920 547.055 446.920 547.000 V 532.000 C 446.920 531.945 446.875 531.900 446.820 531.900 H 441.920 C 441.820 531.900 441.920 532.000 441.920 531.900 V 522.100 C 441.920 522.000 441.820 522.100 441.920 522.100 H 446.820 C 446.875 522.100 446.920 522.055 446.920 522.000 V 512.000 C 446.920 511.945 446.875 511.900 446.820 511.900 H 441.920 C 441.820 511.900 441.920 512.000 441.920 511.900 V 502.100 C 441.920 502.000 441.820 502.100 441.920 502.100 H 446.820 C 446.875 502.100 446.920 502.055 446.920 502.000 V 492.000 C 446.920 491.945 446.875 491.900 446.820 491.900 H 441.920 C 441.820 491.900 441.920 492.000 441.920 491.900 V 482.100 C 441.920 482.000 441.820 482.100 441.920 482.100 H 446.820 C 446.875 482.100 446.920 482.055 446.920 482.000 V 472.000 C 446.920 471.945 446.875 471.900 446.820 471.900 H 441.920 C 441.820 471.900 441.920 472.000 441.920 471.900 V 462.100 C 441.920 462.000 441.820 462.100 441.920 462.100 H 446.820 C 446.875 462.100 446.920 462.055 446.920 462.000 V 452.000 C 446.920 451.945 446.875 451.900 446.820 451.900 H 441.920 C 441.820 451.900 441.920 452.000 441.920 451.900 V 442.100 C 441.920 442.000 441.820 442.100 441.920 442.100 H 446.820 C 446.875 442.100 446.920 442.055 446.920 442.000 V 427.000 C 446.920 426.945 446.875 426.900 446.820 426.900 H 441.820 H 15.100 H 10.100 C 10.045 426.900 10.000 426.945 10.000 427.000 V 442.000 C 10.000 442.055 10.045 442.100 10.100 442.100 H 15.000 C 15.100 442.100 15.000 442.000 15.000 442.100 V 451.900 C 15.000 452.000 15.100 451.900 15.000 451.900 H 10.100 C 10.045 451.900 10.000 451.945 10.000 452.000 V 462.000 C 10.000 462.055 10.045 462.100 10.100 462.100 H 15.000 C 15.100 462.100 15.000 462.000 15.000 462.100 V 471.900 C 15.000 472.000 15.100 471.900 15.000 471.900 H 10.100 C 10.045 471.900 10.000 471.945 10.000 472.000 V 482.000 C 10.000 482.055 10.045 482.100 10.100 482.100 H 15.000 C 15.100 482.100 15.000 482.000 15.000 482.100 V 491.900 C 15.000 492.000 15.100 491.900 15.000 491.900 H 10.100 C 10.045 491.900 10.000 491.945 10.000 492.000 V 502.000 C 10.000 502.055 10.045 502.100 10.100 502.100 H 15.000 C 15.100 502.100 15.000 502.000 15.000 502.100 V 511.900 C 15.000 512.000 15.100 511.900 15.000 511.900 H 10.100 C 10.045 511.900 10.000 511.945 10.000 512.000 V 522.000 C 10.000 522.055 10.045 522.100 10.100 522.100 H 15.000 C 15.100 522.100 15.000 522.000 15.000 522.100 V 531.900 C 15.000 532.000 15.100 531.900 15.000 531.900 H 10.100 C 10.045 531.900 10.000 531.945 10.000 532.000 V 547.000 C 10.000 547.055 10.045 547.100 10.100 547.100 H 15.100" stroke="rgb(0,0,0)" stroke-width="0.20"/>
</g>
<g id="p-2" style="fill:none;stroke-linecap:round;stroke-linejoin:round;">
  <text alignment-baseline="hanging" font-size="4px" style="font-family: sans-serif ; font-weight: normal; font-style: normal; fill: rgb(255,0,0)" text-anchor="middle" transform="matrix( 1.000 0.000 0.000 1.000 587.020 487.600 )"/><path d="M 454.520 547.100 H 471.920 C 472.020 547.100 471.920 547.000 471.920 547.100 V 552.000 C 471.920 552.055 471.965 552.100 472.020 552.100 H 482.020 C 482.075 552.100 482.120 552.055 482.120 552.000 V 547.100 C 482.120 547.000 482.020 547.100 482.120 547.100 H 491.920 C 492.020 547.100 491.920 547.000 491.920 547.100 V 552.000 C 491.920 552.055 491.965 552.100 492.020 552.100 H 502.020 C 502.075 552.100 502.120 552.055 502.120 552.000 V 547.100 C 502.120 547.000 502.020 547.100 502.120 547.100 H 511.920 C 512.020 547.100 511.920 547.000 511.920 547.100 V 552.000 C 511.920 552.055 511.965 552.100 512.020 552.100 H 522.020 C 522.075 552.100 522.120 552.055 522.120 552.000 V 547.100 C 522.120 547.000 522.020 547.100 522.120 547.100 H 531.920 C 532.020 547.100 531.920 547.000 531.920 547.100 V 552.000 C 531.920 552.055 531.965 552.100 532.020 552.100 H 542.020 C 542.075 552.100 542.120 552.055 542.120 552.000 V 547.100 C 542.120 547.000 542.020 547.100 542.120 547.100 H 551.920 C 552.020 547.100 551.920 547.000 551.920 547.100 V 552.000 C 551.920 552.055 551.965 552.100 552.020 552.100 H 562.020 C 562.075 552.100 562.120 552.055 562.120 552.000 V 547.100 C 562.120 547.000 562.020 547.100 562.120 547.100 H 571.920 C 572.020 547.100 571.920 547.000 571.920 547.100 V 552.000 C 571.920 552.055 571.965 552.100 572.020 552.100 H 582.020 C 582.075 552.100 582.120 552.055 582.120 552.000 V 547.100 C 582.120 547.000 582.020 547.100 582.120 547.100 H 591.920 C 592.020 547.100 591.920 547.000 591.920 547.100 V 552.000 C 591.920 552.055 591.965 552.100 592.020 552.100 H 602.020 C 602.075 552.100 602.120 552.055 602.120 552.000 V 547.100 C 602.120 547.000 602.020 547.100 602.120 547.100 H 611.920 C 612.020 547.100 611.920 547.000 611.920 547.100 V 552.000 C 611.920 552.055 611.965 552.100 612.020 552.100 H 622.020 C 622.075 552.100 622.120 552.055 622.120 552.000 V 547.100 C 622.120 547.000 622.020 547.100 622.120 547.100 H 631.920 C 632.020 547.100 631.920 547.000 631.920 547.100 V 552.000 C 631.920 552.055 631.965 552.100 632.020 552.100 H 642.020 C 642.075 552.100 642.120 552.055 642.120 552.000 V 547.100 C 642.120 547.000 642.020 547.100 642.120 547.100 H 651.920 C 652.020 547.100 651.920 547.000 651.920 547.100 V 552.000 C 651.920 552.055 651.965 552.100 652.020 552.100 H 662.020 C 662.075 552.100 662.120 552.055 662.120 552.000 V 547.100 C 662.120 547.000 662.020 547.100 662.120 547.100 H 671.920 C 672.020 547.100 671.920 547.000 671.920 547.100 V 552.000 C 671.920 552.055 671.965 552.100 672.020 552.100 H 682.020 C 682.075 552.100 682.120 552.055 682.120 552.000 V 547.100 C 682.120 547.000 682.020 547.100 682.120 547.100 H 691.920 C 692.020 547.100 691.920 547.000 691.920 547.100 V 552.000 C 691.920 552.055 691.965 552.100 692.020 552.100 H 702.020 C 702.075 552.100 702.120 552.055 702.120 552.000 V 547.100 C 702.120 547.000 702.020 547.100 702.120 547.100 H 719.520 C 719.575 547.100 719.620 547.055 719.620 547.000 V 532.100 C 719.620 532.000 719.520 532.100 719.620 532.100 H 724.520 C 724.575 532.100 724.620 532.055 724.620 532.000 V 522.000 C 724.620 521.945 724.575 521.900 724.520 521.900 H 719.620 C 719.520 521.900 719.620 522.000 719.620 521.900 V 512.100 C 719.620 512.000 719.520 512.100 719.620 512.100 H 724.520 C 724.575 512.100 724.620 512.055 724.620 512.000 V 502.000 C 724.620 501.945 724.575 501.900 724.520 501.900 H 719.620 C 719.520 501.900 719.620 502.000 719.620 501.900 V 492.100 C 719.620 492.000 719.520 492.100 719.620 492.100 H 724.520 C 724.575 492.100 724.620 492.055 724.620 492.000 V 482.000 C 724.620 481.945 724.575 481.900 724.520 481.900 H 719.620 C 719.520 481.900 719.620 482.000 719.620 481.900 V 472.100 C 719.620 472.000 719.520 472.100 719.620 472.100 H 724.520 C 724.575 472.100 724.620 472.055 724.620 472.000 V 462.000 C 724.620 461.945 724.575 461.900 724.520 461.900 H 719.620 C 719.520 461.900 719.620 462.000 719.620 461.900 V 452.100 C 719.620 452.000 719.520 452.100 719.620 452.100 H 724.520 C 724.575 452.100 724.620 452.055 724.620 452.000 V 442.000 C 724.620 441.945 724.575 441.900 724.520 441.900 H 719.620 C 719.520 441.900 719.620 442.000 719.620 441.900 V 427.000 C 719.620 426.945 719.575 426.900 719.520 426.900 H 454.520 C 454.465 426.900 454.420 426.945 454.420 427.000 V 441.900 C 454.420 442.000 454.520 441.900 454.420 441.900 H 449.520 C 449.465 441.900 449.420 441.945 449.420 442.000 V 452.000 C 449.420 452.055 449.465 452.100 449.520 452.100 H 454.420 C 454.520 452.100 454.420 452.000 454.420 452.100 V 461.900 C 454.420 462.000 454.520 461.900 454.420 461.900 H 449.520 C 449.465 461.900 449.420 461.945 449.420 462.000 V 472.000 C 449.420 472.055 449.465 472.100 449.520 472.100 H 454.420 C 454.520 472.100 454.420 472.000 454.420 472.100 V 481.900 C 454.420 482.000 454.520 481.900 454.420 481.900 H 449.520 C 449.465 481.900 449.420 481.945 449.420 482.000 V 492.000 C 449.420 492.055 449.465 492.100 449.520 492.100 H 454.420 C 454.520 492.100 454.420 492.000 454.420 492.100 V 501.900 C 454.420 502.000 454.520 501.900 454.420 501.900 H 449.520 C 449.465 501.900 449.420 501.945 449.420 502.000 V 512.000 C 449.420 512.055 449.465 512.100 449.520 512.100 H 454.420 C 454.520 512.100 454.420 512.000 454.420 512.100 V 521.900 C 454.420 522.000 454.520 521.900 454.420 521.900 H 449.520 C 449.465 521.900 449.420 521.945 449.420 522.000 V 532.000 C 449.420 532.055 449.465 532.100 449.520 532.100 H 454.420 C 454.520 532.100 454.420 532.000 454.420 532.100 V 547.000 C 454.420 547.055 454.465 547.100 454.520 547.100" stroke="rgb(0,0,0)" stroke-width="0.20"/>
</g>
<g id="p-3" style="fill:none;stroke-linecap:round;stroke-linejoin:round;">
  <text alignment-baseline="hanging" font-size="4px" style="font-family: sans-serif ; font-weight: normal; font-style: normal; fill: rgb(255,0,0)" text-anchor="middle" transform="matrix( 1.000 0.000 0.000 1.000 945.580 487.600 )"/><path d="M 732.220 547.100 H 750.480 C 750.580 547.100 750.480 547.000 750.480 547.100 V 552.000 C 750.480 552.055 750.525 552.100 750.580 552.100 H 760.580 C 760.635 552.100 760.680 552.055 760.680 552.000 V 547.100 C 760.680 547.000 760.580 547.100 760.680 547.100 H 770.480 C 770.580 547.100 770.480 547.000 770.480 547.100 V 552.000 C 770.480 552.055 770.525 552.100 770.580 552.100 H 780.580 C 780.635 552.100 780.680 552.055 780.680 552.000 V 547.100 C 780.680 547.000 780.580 547.100 780.680 547.100 H 790.480 C 790.580 547.100 790.480 547.000 790.480 547.100 V 552.000 C 790.480 552.055 790.525 552.100 790.580 552.100 H 800.580 C 800.635 552.100 800.680 552.055 800.680 552.000 V 547.100 C 800.680 547.000 800.580 547.100 800.680 547.100 H 810.480 C 810.580 547.100 810.480 547.000 810.480 547.100 V 552.000 C 810.480 552.055 810.525 552.100 810.580 552.100 H 820.580 C 820.635 552.100 820.680 552.055 820.680 552.000 V 547.100 C 820.680 547.000 820.580 547.100 820.680 547.100 H 830.480 C 830.580 547.100 830.480 547.000 830.480 547.100 V 552.000 C 830.480 552.055 830.525 552.100 830.580 552.100 H 840.580 C 840.635 552.100 840.680 552.055 840.680 552.000 V 547.100 C 840.680 547.000 840.580 547.100 840.680 547.100 H 850.480 C 850.580 547.100 850.480 547.000 850.480 547.100 V 552.000 C 850.480 552.055 850.525 552.100 850.580 552.100 H 860.580 C 860.635 552.100 860.680 552.055 860.680 552.000 V 547.100 C 860.680 547.000 860.580 547.100 860.680 547.100 H 870.480 C 870.580 547.100 870.480 547.000 870.480 547.100 V 552.000 C 870.480 552.055 870.525 552.100 870.580 552.100 H 880.580 C 880.635 552.100 880.680 552.055 880.680 552.000 V 547.100 C 880.680 547.000 880.580 547.100 880.680 547.100 H 890.480 C 890.580 547.100 890.480 547.000 890.480 547.100 V 552.000 C 890.480 552.055 890.525 552.100 890.580 552.100 H 900.580 C 900.635 552.100 900.680 552.055 900.680 552.000 V 547.100 C 900.680 547.000 900.580 547.100 900.680 547.100 H 910.480 C 910.580 547.100 910.480 547.000 910.480 547.100 V 552.000 C 910.480 552.055 910.525 552.100 910.580 552.100 H 920.580 C 920.635 552.100 920.680 552.055 920.680 552.000 V 547.100 C 920.680 547.000 920.580 547.100 920.680 547.100 H 930.480 C 930.580 547.100 930.480 547.000 930.480 547.100 V 552.000 C 930.480 552.055 930.525 552.100 930.580 552.100 H 940.580 C 940.635 552.100 940.680 552.055 940.680 552.000 V 547.100 C 940.680 547.000 940.580 547.100 940.680 547.100 H 950.480 C 950.580 547.100 950.480 547.000 950.480 547.100 V 552.000 C 950.480 552.055 950.525 552.100 950.580 552.100 H 960.580 C 960.635 552.100 960.680 552.055 960.680 552.000 V 547.100 C 960.680 547.000 960.580 547.100 960.680 547.100 H 970.480 C 970.580 547.100 970.480 547.000 970.480 547.100 V 552.000 C 970.480 552.055 970.525 552.100 970.580 552.100 H 980.580 C 980.635 552.100 980.680 552.055 980.680 552.000 V 547.100 C 980.680 547.000 980.580 547.100 980.680 547.100 H 990.480 C 990.580 547.100 990.480 547.000 990.480 547.100 V 552.000 C 990.480 552.055 990.525 552.100 990.580 552.100 H 1000.580 C 1000.635 552.100 1000.680 552.055 1000.680 552.000 V 547.100 C 1000.680 547.000 1000.580 547.100 1000.680 547.100 H 1010.480 C 1010.580 547.100 1010.480 547.000 1010.480 547.100 V 552.000 C 1010.480 552.055 1010.525 552.100 1010.580 552.100 H 1020.580 C 1020.635 552.100 1020.680 552.055 1020.680 552.000 V 547.100 C 1020.680 547.000 1020.580 547.100 1020.680 547.100 H 1030.480 C 1030.580 547.100 1030.480 547.000 1030.480 547.100 V 552.000 C 1030.480 552.055 1030.525 552.100 1030.580 552.100 H 1040.580 C 1040.635 552.100 1040.680 552.055 1040.680 552.000 V 547.100 C 1040.680 547.000 1040.580 547.100 1040.680 547.100 H 1050.480 C 1050.580 547.100 1050.480 547.000 1050.480 547.100 V 552.000 C 1050.480 552.055 1050.525 552.100 1050.580 552.100 H 1060.580 C 1060.635 552.100 1060.680 552.055 1060.680 552.000 V 547.100 C 1060.680 547.000 1060.580 547.100 1060.680 547.100 H 1070.480 C 1070.580 547.100 1070.480 547.000 1070.480 547.100 V 552.000 C 1070.480 552.055 1070.525 552.100 1070.580 552.100 H 1080.580 C 1080.635 552.100 1080.680 552.055 1080.680 552.000 V 547.100 C 1080.680 547.000 1080.580 547.100 1080.680 547.100 H 1090.480 C 1090.580 547.100 1090.480 547.000 1090.480 547.100 V 552.000 C 1090.480 552.055 1090.525 552.100 1090.580 552.100 H 1100.580 C 1100.635 552.100 1100.680 552.055 1100.680 552.000 V 547.100 C 1100.680 547.000 1100.580 547.100 1100.680 547.100 H 1110.480 C 1110.580 547.100 1110.480 547.000 1110.480 547.100 V 552.000 C 1110.480 552.055 1110.525 552.100 1110.580 552.100 H 1120.580 C 1120.635 552.100 1120.680 552.055 1120.680 552.000 V 547.100 C 1120.680 547.000 1120.580 547.100 1120.680 547.100 H 1130.480 C 1130.580 547.100 1130.480 547.000 1130.480 547.100 V 552.000 C 1130.480 552.055 1130.525 552.100 1130.580 552.100 H 1140.580 C 1140.635 552.100 1140.680 552.055 1140.680 552.000 V 547.100 C 1140.680 547.000 1140.580 547.100 1140.680 547.100 H 1158.940 H 1163.940 C 1163.995 547.100 1164.040 547.055 1164.040 547.000 V 532.000 C 1164.040 531.945 1163.995 531.900 1163.940 531.900 H 1159.040 C 1158.940 531.900 1159.040 532.000 1159.040 531.900 V 522.100 C 1159.040 522.000 1158.940 522.100 1159.040 522.100 H 1163.940 C 1163.995 522.100 1164.040 522.055 1164.040 522.000 V 512.000 C 1164.040 511.945 1163.995 511.900 1163.940 511.900 H 1159.040 C 1158.940 511.900 1159.040 512.000 1159.040 511.900 V 502.100 C 1159.040 502.000 1158.940 502.100 1159.040 502.100 H 1163.940 C 1163.995 502.100 1164.040 502.055 1164.040 502.000 V 492.000 C 1164.040 491.945 1163.995 491.900 1163.940 491.900 H 1159.040 C 1158.940 491.900 1159.040 492.000 1159.040 491.900 V 482.100 C 1159.040 482.000 1158.940 482.100 1159.040 482.100 H 1163.940 C 1163.995 482.100 1164.040 482.055 1164.040 482.000 V 472.000 C 1164.040 471.945 1163.995 471.900 1163.940 471.900 H 1159.040 C 1158.940 471.900 1159.040 472.000 1159.040 471.900 V 462.100 C 1159.040 462.000 1158.940 462.100 1159.040 462.100 H 1163.940 C 1163.995 462.100 1164.040 462.055 1164.040 462.000 V 452.000 C 1164.040 451.945 1163.995 451.900 1163.940 451.900 H 1159.040 C 1158.940 451.900 1159.040 452.000 1159.040 451.900 V 442.100 C 1159.040 442.000 1158.940 442.100 1159.040 442.100 H 1163.940 C 1163.995 442.100 1164.040 442.055 1164.040 442.000 V 427.000 C 1164.040 426.945 1163.995 426.900 1163.940 426.900 H 1158.940 H 732.220 H 727.220 C 727.165 426.900 727.120 426.945 727.120 427.000 V 442.000 C 727.120 442.055 727.165 442.100 727.220 442.100 H 732.120 C 732.220 442.100 732.120 442.000 732.120 442.100 V 451.900 C 732.120 452.000 732.220 451.900 732.120 451.900 H 727.220 C 727.165 451.900 727.120 451.945 727.120 452.000 V 462.000 C 727.120 462.055 727.165 462.100 727.220 462.100 H 732.120 C 732.220 462.100 732.120 462.000 732.120 462.100 V 471.900 C 732.120 472.000 732.220 471.900 732.120 471.900 H 727.220 C 727.165 471.900 727.120 471.945 727.120 472.000 V 482.000 C 727.120 482.055 727.165 482.100 727.220 482.100 H 732.120 C 732.220 482.100 732.120 482.000 732.120 482.100 V 491.900 C 732.120 492.000 732.220 491.900 732.120 491.900 H 727.220 C 727.165 491.900 727.120 491.945 727.120 492.000 V 502.000 C 727.120 502.055 727.165 502.100 727.220 502.100 H 732.120 C 732.220 502.100 732.120 502.000 732.120 502.100 V 511.900 C 732.120 512.000 732.220 511.900 732.120 511.900 H 727.220 C 727.165 511.900 727.120 511.945 727.120 512.000 V 522.000 C 727.120 522.055 727.165 522.100 727.220 522.100 H 732.120 C 732.220 522.100 732.120 522.000 732.120 522.100 V 531.900 C 732.120 532.000 732.220 531.900 732.120 531.900 H 727.220 C 727.165 531.900 727.120 531.945 727.120 532.000 V 547.000 C 727.120 547.055 727.165 547.100 727.220 547.100 H 732.220" stroke="rgb(0,0,0)" stroke-width="0.20"/>
</g>
<g id="p-4" style="fill:none;stroke-linecap:round;stroke-linejoin:round;">
  <text alignment-baseline="hanging" font-size="4px" style="font-family: sans-serif ; font-weight: normal; font-style: normal; fill: rgb(255,0,0)" text-anchor="middle" transform="matrix( 1.000 0.000 0.000 1.000 1304.140 487.600 )"/><path d="M 1171.640 547.100 H 1189.040 C 1189.140 547.100 1189.040 547.000 1189.040 547.100 V 552.000 C 1189.040 552.055 1189.085 552.100 1189.140 552.100 H 1199.140 C 1199.195 552.100 1199.240 552.055 1199.240 552.000 V 547.100 C 1199.240 547.000 1199.140 547.100 1199.240 547.100 H 1209.040 C 1209.140 547.100 1209.040 547.000 1209.040 547.100 V 552.000 C 1209.040 552.055 1209.085 552.100 1209.140 552.100 H 1219.140 C 1219.195 552.100 1219.240 552.055 1219.240 552.000 V 547.100 C 1219.240 547.000 1219.140 547.100 1219.240 547.100 H 1229.040 C 1229.140 547.100 1229.040 547.000 1229.040 547.100 V 552.000 C 1229.040 552.055 1229.085 552.100 1229.140 552.100 H 1239.140 C 1239.195 552.100 1239.240 552.055 1239.240 552.000 V 547.100 C 1239.240 547.000 1239.140 547.100 1239.240 547.100 H 1249.040 C 1249.140 547.100 1249.040 547.000 1249.040 547.100 V 552.000 C 1249.040 552.055 1249.085 552.100 1249.140 552.100 H 1259.140 C 1259.195 552.100 1259.240 552.055 1259.240 552.000 V 547.100 C 1259.240 547.000 1259.140 547.100 1259.240 547.100 H 1269.040 C 1269.140 547.100 1269.040 547.000 1269.040 547.100 V 552.000 C 1269.040 552.055 1269.085 552.100 1269.140 552.100 H 1279.140 C 1279.195 552.100 1279.240 552.055 1279.240 552.000 V 547.100 C 1279.240 547.000 1279.140 547.100 1279.240 547.100 H 1289.040 C 1289.140 547.100 1289.040 547.000 1289.040 547.100 V 552.000 C 1289.040 552.055 1289.085 552.100 1289.140 552.100 H 1299.140 C 1299.195 552.100 1299.240 552.055 1299.240 552.000 V 547.100 C 1299.240 547.000 1299.140 547.100 1299.240 547.100 H 1309.040 C 1309.140 547.100 1309.040 547.000 1309.040 547.100 V 552.000 C 1309.040 552.055 1309.085 552.100 1309.140 552.100 H 1319.140 C 1319.195 552.100 1319.240 552.055 1319.240 552.000 V 547.100 C 1319.240 547.000 1319.140 547.100 1319.240 547.100 H 1329.040 C 1329.140 547.100 1329.040 547.000 1329.040 547.100 V 552.000 C 1329.040 552.055 1329.085 552.100 1329.140 552.100 H 1339.140 C 1339.195 552.100 1339.240 552.055 1339.240 552.000 V 547.100 C 1339.240 547.000 1339.140 547.100 1339.240 547.100 H 1349.040 C 1349.140 547.100 1349.040 547.000 1349.040 547.100 V 552.000 C 1349.040 552.055 1349.085 552.100 1349.140 552.100 H 1359.140 C 1359.195 552.100 1359.240 552.055 1359.240 552.000 V 547.100 C 1359.240 547.000 1359.140 547.100 1359.240 547.100 H 1369.040 C 1369.140 547.100 1369.040 547.000 1369.040 547.100 V 552.000 C 1369.040 552.055 1369.085 552.100 1369.140 552.100 H 1379.140 C 1379.195 552.100 1379.240 552.055 1379.240 552.000 V 547.100 C 1379.240 547.000 1379.140 547.100 1379.240 547.100 H 1389.040 C 1389.140 547.100 1389.040 547.000 1389.040 547.100 V 552.000 C 1389.040 552.055 1389.085 552.100 1389.140 552.100 H 1399.140 C 1399.195 552.100 1399.240 552.055 1399.240 552.000 V 547.100 C 1399.240 547.000 1399.140 547.100 1399.240 547.100 H 1409.040 C 1409.140 547.100 1409.040 547.000 1409.040 547.100 V 552.000 C 1409.040 552.055 1409.085 552.100 1409.140 552.100 H 1419.140 C 1419.195 552.100 1419.240 552.055 1419.240 552.000 V 547.100 C 1419.240 547.000 1419.140 547.100 1419.240 547.100 H 1436.640 C 1436.695 547.100 1436.740 547.055 1436.740 547.000 V 532.100 C 1436.740 532.000 1436.640 532.100 1436.740 532.100 H 1441.640 C 1441.695 532.100 1441.740 532.055 1441.740 532.000 V 522.000 C 1441.740 521.945 1441.695 521.900 1441.640 521.900 H 1436.740 C 1436.640 521.900 1436.740 522.000 1436.740 521.900 V 512.100 C 1436.740 512.000 1436.640 512.100 1436.740 512.100 H 1441.640 C 1441.695 512.100 1441.740 512.055 1441.740 512.000 V 502.000 C 1441.740 501.945 1441.695 501.900 1441.640 501.900 H 1436.740 C 1436.640 501.900 1436.740 502.000 1436.740 501.900 V 492.100 C 1436.740 492.000 1436.640 492.100 1436.740 492.100 H 1441.640 C 1441.695 492.100 1441.740 492.055 1441.740 492.000 V 482.000 C 1441.740 481.945 1441.695 481.900 1441.640 481.900 H 1436.740 C 1436.640 481.900 1436.740 482.000 1436.740 481.900 V 472.100 C 1436.740 472.000 1436.640 472.100 1436.740 472.100 H 1441.640 C 1441.695 472.100 1441.740 472.055 1441.740 472.000 V 462.000 C 1441.740 461.945 1441.695 461.900 1441.640 461.900 H 1436.740 C 1436.640 461.900 1436.740 462.000 1436.740 461.900 V 452.100 C 1436.740 452.000 1436.640 452.100 1436.740 452.100 H 1441.640 C 1441.695 452.100 1441.740 452.055 1441.740 452.000 V 442.000 C 1441.740 441.945 1441.695 441.900 1441.640 441.900 H 1436.740 C 1436.640 441.900 1436.740 442.000 1436.740 441.900 V 427.000 C 1436.740 426.945 1436.695 426.900 1436.640 426.900 H 1171.640 C 1171.585 426.900 1171.540 426.945 1171.540 427.000 V 441.900 C 1171.540 442.000 1171.640 441.900 1171.540 441.900 H 1166.640 C 1166.585 441.900 1166.540 441.945 1166.540 442.000 V 452.000 C 1166.540 452.055 1166.585 452.100 1166.640 452.100 H 1171.540 C 1171.640 452.100 1171.540 452.000 1171.540 452.100 V 461.900 C 1171.540 462.000 1171.640 461.900 1171.540 461.900 H 1166.640 C 1166.585 461.900 1166.540 461.945 1166.540 462.000 V 472.000 C 1166.540 472.055 1166.585 472.100 1166.640 472.100 H 1171.540 C 1171.640 472.100 1171.540 472.000 1171.540 472.100 V 481.900 C 1171.540 482.000 1171.640 481.900 1171.540 481.900 H 1166.640 C 1166.585 481.900 1166.540 481.945 1166.540 482.000 V 492.000 C 1166.540 492.055 1166.585 492.100 1166.640 492.100 H 1171.540 C 1171.640 492.100 1171.540 492.000 1171.540 492.100 V 501.900 C 1171.540 502.000 1171.640 501.900 1171.540 501.900 H 1166.640 C 1166.585 501.900 1166.540 501.945 1166.540 502.000 V 512.000 C 1166.540 512.055 1166.585 512.100 1166.640 512.100 H 1171.540 C 1171.640 512.100 1171.540 512.000 1171.540 512.100 V 521.900 C 1171.540 522.000 1171.640 521.900 1171.540 521.900 H 1166.640 C 1166.585 521.900 1166.540 521.945 1166.540 522.000 V 532.000 C 1166.540 532.055 1166.585 532.100 1166.640 532.100 H 1171.540 C 1171.640 532.100 1171.540 532.000 1171.540 532.100 V 547.000 C 1171.540 547.055 1171.585 547.100 1171.640 547.100" stroke="rgb(0,0,0)" stroke-width="0.20"/>
</g>
<g id="p-5" style="fill:none;stroke-linecap:round;stroke-linejoin:round;">
  <text alignment-baseline="hanging" font-size="4px" style="font-family: sans-serif ; font-weight: normal; font-style: normal; fill: rgb(255,0,0)" text-anchor="middle" transform="matrix( 1.000 0.000 0.000 1.000 234.210 359.900 )"/><path d="M 15.100 419.400 H 29.110 C 29.210 419.400 29.110 419.300 29.110 419.400 V 424.300 C 29.110 424.355 29.155 424.400 29.210 424.400 H 39.210 C 39.265 424.400 39.310 424.355 39.310 424.300 V 419.400 C 39.310 419.300 39.210 419.400 39.310 419.400 H 49.110 C 49.210 419.400 49.110 419.300 49.110 419.400 V 424.300 C 49.110 424.355 49.155 424.400 49.210 424.400 H 59.210 C 59.265 424.400 59.310 424.355 59.310 424.300 V 419.400 C 59.310 419.300 59.210 419.400 59.310 419.400 H 69.110 C 69.210 419.400 69.110 419.300 69.110 419.400 V 424.300 C 69.110 424.355 69.155 424.400 69.210 424.400 H 79.210 C 79.265 424.400 79.310 424.355 79.310 424.300 V 419.400 C 79.310 419.300 79.210 419.400 79.310 419.400 H 89.110 C 89.210 419.400 89.110 419.300 89.110 419.400 V 424.300 C 89.110 424.355 89.155 424.400 89.210 424.400 H 99.210 C 99.265 424.400 99.310 424.355 99.310 424.300 V 419.400 C 99.310 419.300 99.210 419.400 99.310 419.400 H 109.110 C 109.210 419.400 109.110 419.300 109.110 419.400 V 424.300 C 109.110 424.355 109.155 424.400 109.210 424.400 H 119.210 C 119.265 424.400 119.310 424.355 119.310 424.300 V 419.400 C 119.310 419.300 119.210 419.400 119.310 419.400 H 129.110 C 129.210 419.400 129.110 419.300 129.110 419.400 V 424.300 C 129.110 424.355 129.155 424.400 129.210 424.400 H 139.210 C 139.265 424.400 139.310 424.355 139.310 424.300 V 419.400 C 139.310 419.300 139.210 419.400 139.310 419.400 H 149.110 C 149.210 419.400 149.110 419.300 149.110 419.400 V 424.300 C 149.110 424.355 149.155 424.400 149.210 424.400 H 159.210 C 159.265 424.400 159.310 424.355 159.310 424.300 V 419.400 C 159.310 419.300 159.210 419.400 159.310 419.400 H 169.110 C 169.210 419.400 169.110 419.300 169.110 419.400 V 424.300 C 169.110 424.355 169.155 424.400 169.210 424.400 H 179.210 C 179.265 424.400 179.310 424.355 179.310 424.300 V 419.400 C 179.310 419.300 179.210 419.400 179.310 419.400 H 189.110 C 189.210 419.400 189.110 419.300 189.110 419.400 V 424.300 C 189.110 424.355 189.155 424.400 189.210 424.400 H 199.210 C 199.265 424.400 199.310 424.355 199.310 424.300 V 419.400 C 199.310 419.300 199.210 419.400 199.310 419.400 H 209.110 C 209.210 419.400 209.110 419.300 209.110 419.400 V 424.300 C 209.110 424.355 209.155 424.400 209.210 424.400 H 219.210 C 219.265 424.400 219.310 424.355 219.310 424.300 V 419.400 C 219.310 419.300 219.210 419.400 219.310 419.400 H 229.110 C 229.210 419.400 229.110 419.300 229.110 419.400 V 424.300 C 229.110 424.355 229.155 424.400 229.210 424.400 H 239.210 C 239.265 424.400 239.310 424.355 239.310 424.300 V 419.400 C 239.310 419.300 239.210 419.400 239.310 419.400 H 249.110 C 249.210 419.400 249.110 419.300 249.110 419.400 V 424.300 C 249.110 424.355 249.155 424.400 249.210 424.400 H 259.210 C 259.265 424.400 259.310 424.355 259.310 424.300 V 419.400 C 259.310 419.300 259.210 419.400 259.310 419.400 H 269.110 C 269.210 419.400 269.110 419.300 269.110 419.400 V 424.300 C 269.110 424.355 269.155 424.400 269.210 424.400 H 279.210 C 279.265 424.400 279.310 424.355 279.310 424.300 V 419.400 C 279.310 419.300 279.210 419.400 279.310 419.400 H 289.110 C 289.210 419.400 289.110 419.300 289.110 419.400 V 424.300 C 289.110 424.355 289.155 424.400 289.210 424.400 H 299.210 C 299.265 424.400 299.310 424.355 299.310 424.300 V 419.400 C 299.310 419.300 299.210 419.400 299.310 419.400 H 309.110 C 309.210 419.400 309.110 419.300 309.110 419.400 V 424.300 C 309.110 424.355 309.155 424.400 309.210 424.400 H 319.210 C 319.265 424.400 319.310 424.355 319.310 424.300 V 419.400 C 319.310 419.300 319.210 419.400 319.310 419.400 H 329.110 C 329.210 419.400 329.110 419.300 329.110 419.400 V 424.300 C 329.110 424.355 329.155 424.400 329.210 424.400 H 339.210 C 339.265 424.400 339.310 424.355 339.310 424.300 V 419.400 C 339.310 419.300 339.210 419.400 339.310 419.400 H 349.110 C 349.210 419.400 349.110 419.300 349.110 419.400 V 424.300 C 349.110 424.355 349.155 424.400 349.210 424.400 H 359.210 C 359.265 424.400 359.310 424.355 359.310 424.300 V 419.400 C 359.310 419.300 359.210 419.400 359.310 419.400 H 369.110 C 369.210 419.400 369.110 419.300 369.110 419.400 V 424.300 C 369.110 424.355 369.155 424.400 369.210 424.400 H 379.210 C 379.265 424.400 379.310 424.355 379.310 424.300 V 419.400 C 379.310 419.300 379.210 419.400 379.310 419.400 H 389.110 C 389.210 419.400 389.110 419.300 389.110 419.400 V 424.300 C 389.110 424.355 389.155 424.400 389.210 424.400 H 399.210 C 399.265 424.400 399.310 424.355 399.310 424.300 V 419.400 C 399.310 419.300 399.210 419.400 399.310 419.400 H 409.110 C 409.210 419.400 409.110 419.300 409.110 419.400 V 424.300 C 409.110 424.355 409.155 424.400 409.210 424.400 H 419.210 C 419.265 424.400 419.310 424.355 419.310 424.300 V 419.400 C 419.310 419.300 419.210 419.400 419.310 419.400 H 429.110 C 429.210 419.400 429.110 419.300 429.110 419.400 V 424.300 C 429.110 424.355 429.155 424.400 429.210 424.400 H 439.210 C 439.265 424.400 439.310 424.355 439.310 424.300 V 419.400 C 439.310 419.300 439.210 419.400 439.310 419.400 H 453.320 H 458.320 C 458.375 419.400 458.420 419.355 458.420 419.300 V 404.300 C 458.420 404.245 458.375 404.200 458.320 404.200 H 453.420 C 453.320 404.200 453.420 404.300 453.420 404.200 V 394.400 C 453.420 394.300 453.320 394.400 453.420 394.400 H 458.320 C 458.375 394.400 458.420 394.355 458.420 394.300 V 384.300 C 458.420 384.245 458.375 384.200 458.320 384.200 H 453.420 C 453.320 384.200 453.420 384.300 453.420 384.200 V 374.400 C 453.420 374.300 453.320 374.400 453.420 374.400 H 458.320 C 458.375 374.400 458.420 374.355 458.420 374.300 V 364.300 C 458.420 364.245 458.375 364.200 458.320 364.200 H 453.420 C 453.320 364.200 453.420 364.300 453.420 364.200 V 354.400 C 453.420 354.300 453.320 354.400 453.420 354.400 H 458.320 C 458.375 354.400 458.420 354.355 458.420 354.300 V 344.300 C 458.420 344.245 458.375 344.200 458.320 344.200 H 453.420 C 453.320 344.200 453.420 344.300 453.420 344.200 V 334.400 C 453.420 334.300 453.320 334.400 453.420 334.400 H 458.320 C 458.375 334.400 458.420 334.355 458.420 334.300 V 324.300 C 458.420 324.245 458.375 324.200 458.320 324.200 H 453.420 C 453.320 324.200 453.420 324.300 453.420 324.200 V 314.400 C 453.420 314.300 453.320 314.400 453.420 314.400 H 458.320 C 458.375 314.400 458.420 314.355 458.420 314.300 V 299.300 C 458.420 299.245 458.375 299.200 458.320 299.200 H 453.320 H 15.100 H 10.100 C 10.045 299.200 10.000 299.245 10.000 299.300 V 314.300 C 10.000 314.355 10.045 314.400 10.100 314.400 H 15.000 C 15.100 314.400 15.000 314.300 15.000 314.400 V 324.200 C 15.000 324.300 15.100 324.200 15.000 324.200 H 10.100 C 10.045 324.200 10.000 324.245 10.000 324.300 V 334.300 C 10.000 334.355 10.045 334.400 10.100 334.400 H 15.000 C 15.100 334.400 15.000 334.300 15.000 334.400 V 344.200 C 15.000 344.300 15.100 344.200 15.000 344.200 H 10.100 C 10.045 344.200 10.000 344.245 10.000 344.300 V 354.300 C 10.000 354.355 10.045 354.400 10.100 354.400 H 15.000 C 15.100 354.400 15.000 354.300 15.000 354.400 V 364.200 C 15.000 364.300 15.100 364.200 15.000 364.200 H 10.100 C 10.045 364.200 10.000 364.245 10.000 364.300 V 374.300 C 10.000 374.355 10.045 374.400 10.100 374.400 H 15.000 C 15.100 374.400 15.000 374.300 15.000 374.400 V 384.200 C 15.000 384.300 15.100 384.200 15.000 384.200 H 10.100 C 10.045 384.200 10.000 384.245 10.000 384.300 V 394.300 C 10.000 394.355 10.045 394.400 10.100 394.400 H 15.000 C 15.100 394.400 15.000 394.300 15.000 394.400 V 404.200 C 15.000 404.300 15.100 404.200 15.000 404.200 H 10.100 C 10.045 404.200 10.000 404.245 10.000 404.300 V 419.300 C 10.000 419.355 10.045 419.400 10.100 419.400 H 15.100" stroke="rgb(0,0,0)" stroke-width="0.20"/>
</g>
<g id="p-6" style="fill:none;stroke-linecap:round;stroke-linejoin:round;">
  <text alignment-baseline="hanging" font-size="4px" style="font-family: sans-serif ; font-weight: normal; font-style: normal; fill: rgb(255,0,0)" text-anchor="middle" transform="matrix( 1.000 0.000 0.000 1.000 604.270 359.900 )"/><path d="M 466.020 419.400 H 479.170 C 479.270 419.400 479.170 419.300 479.170 419.400 V 424.300 C 479.170 424.355 479.215 424.400 479.270 424.400 H 489.270 C 489.325 424.400 489.370 424.355 489.370 424.300 V 419.400 C 489.370 419.300 489.270 419.400 489.370 419.400 H 499.170 C 499.270 419.400 499.170 419.300 499.170 419.400 V 424.300 C 499.170 424.355 499.215 424.400 499.270 424.400 H 509.270 C 509.325 424.400 509.370 424.355 509.370 424.300 V 419.400 C 509.370 419.300 509.270 419.400 509.370 419.400 H 519.170 C 519.270 419.400 519.170 419.300 519.170 419.400 V 424.300 C 519.170 424.355 519.215 424.400 519.270 424.400 H 529.270 C 529.325 424.400 529.370 424.355 529.370 424.300 V 419.400 C 529.370 419.300 529.270 419.400 529.370 419.400 H 539.170 C 539.270 419.400 539.170 419.300 539.170 419.400 V 424.300 C 539.170 424.355 539.215 424.400 539.270 424.400 H 549.270 C 549.325 424.400 549.370 424.355 549.370 424.300 V 419.400 C 549.370 419.300 549.270 419.400 549.370 419.400 H 559.170 C 559.270 419.400 559.170 419.300 559.170 419.400 V 424.300 C 559.170 424.355 559.215 424.400 559.270 424.400 H 569.270 C 569.325 424.400 569.370 424.355 569.370 424.300 V 419.400 C 569.370 419.300 569.270 419.400 569.370 419.400 H 579.170 C 579.270 419.400 579.170 419.300 579.170 419.400 V 424.300 C 579.170 424.355 579.215 424.400 579.270 424.400 H 589.270 C 589.325 424.400 589.370 424.355 589.370 424.300 V 419.400 C 589.370 419.300 589.270 419.400 589.370 419.400 H 599.170 C 599.270 419.400 599.170 419.300 599.170 419.400 V 424.300 C 599.170 424.355 599.215 424.400 599.270 424.400 H 609.270 C 609.325 424.400 609.370 424.355 609.370 424.300 V 419.400 C 609.370 419.300 609.270 419.400 609.370 419.400 H 619.170 C 619.270 419.400 619.170 419.300 619.170 419.400 V 424.300 C 619.170 424.355 619.215 424.400 619.270 424.400 H 629.270 C 629.325 424.400 629.370 424.355 629.370 424.300 V 419.400 C 629.370 419.300 629.270 419.400 629.370 419.400 H 639.170 C 639.270 419.400 639.170 419.300 639.170 419.400 V 424.300 C 639.170 424.355 639.215 424.400 639.270 424.400 H 649.270 C 649.325 424.400 649.370 424.355 649.370 424.300 V 419.400 C 649.370 419.300 649.270 419.400 649.370 419.400 H 659.170 C 659.270 419.400 659.170 419.300 659.170 419.400 V 424.300 C 659.170 424.355 659.215 424.400 659.270 424.400 H 669.270 C 669.325 424.400 669.370 424.355 669.370 424.300 V 419.400 C 669.370 419.300 669.270 419.400 669.370 419.400 H 679.170 C 679.270 419.400 679.170 419.300 679.170 419.400 V 424.300 C 679.170 424.355 679.215 424.400 679.270 424.400 H 689.270 C 689.325 424.400 689.370 424.355 689.370 424.300 V 419.400 C 689.370 419.300 689.270 419.400 689.370 419.400 H 699.170 C 699.270 419.400 699.170 419.300 699.170 419.400 V 424.300 C 699.170 424.355 699.215 424.400 699.270 424.400 H 709.270 C 709.325 424.400 709.370 424.355 709.370 424.300 V 419.400 C 709.370 419.300 709.270 419.400 709.370 419.400 H 719.170 C 719.270 419.400 719.170 419.300 719.170 419.400 V 424.300 C 719.170 424.355 719.215 424.400 719.270 424.400 H 729.270 C 729.325 424.400 729.370 424.355 729.370 424.300 V 419.400 C 729.370 419.300 729.270 419.400 729.370 419.400 H 742.520 C 742.575 419.400 742.620 419.355 742.620 419.300 V 404.400 C 742.620 404.300 742.520 404.400 742.620 404.400 H 747.520 C 747.575 404.400 747.620 404.355 747.620 404.300 V 394.300 C 747.620 394.245 747.575 394.200 747.520 394.200 H 742.620 C 742.520 394.200 742.620 394.300 742.620 394.200 V 384.400 C 742.620 384.300 742.520 384.400 742.620 384.400 H 747.520 C 747.575 384.400 747.620 384.355 747.620 384.300 V 374.300 C 747.620 374.245 747.575 374.200 747.520 374.200 H 742.620 C 742.520 374.200 742.620 374.300 742.620 374.200 V 364.400 C 742.620 364.300 742.520 364.400 742.620 364.400 H 747.520 C 747.575 364.400 747.620 364.355 747.620 364.300 V 354.300 C 747.620 354.245 747.575 354.200 747.520 354.200 H 742.620 C 742.520 354.200 742.620 354.300 742.620 354.200 V 344.400 C 742.620 344.300 742.520 344.400 742.620 344.400 H 747.520 C 747.575 344.400 747.620 344.355 747.620 344.300 V 334.300 C 747.620 334.245 747.575 334.200 747.520 334.200 H 742.620 C 742.520 334.200 742.620 334.300 742.620 334.200 V 324.400 C 742.620 324.300 742.520 324.400 742.620 324.400 H 747.520 C 747.575 324.400 747.620 324.355 747.620 324.300 V 314.300 C 747.620 314.245 747.575 314.200 747.520 314.200 H 742.620 C 742.520 314.200 742.620 314.300 742.620 314.200 V 299.300 C 742.620 299.245 742.575 299.200 742.520 299.200 H 466.020 C 465.965 299.200 465.920 299.245 465.920 299.300 V 314.200 C 465.920 314.300 466.020 314.200 465.920 314.200 H 461.020 C 460.965 314.200 460.920 314.245 460.920 314.300 V 324.300 C 460.920 324.355 460.965 324.400 461.020 324.400 H 465.920 C 466.020 324.400 465.920 324.300 465.920 324.400 V 334.200 C 465.920 334.300 466.020 334.200 465.920 334.200 H 461.020 C 460.965 334.200 460.920 334.245 460.920 334.300 V 344.300 C 460.920 344.355 460.965 344.400 461.020 344.400 H 465.920 C 466.020 344.400 465.920 344.300 465.920 344.400 V 354.200 C 465.920 354.300 466.020 354.200 465.920 354.200 H 461.020 C 460.965 354.200 460.920 354.245 460.920 354.300 V 364.300 C 460.920 364.355 460.965 364.400 461.020 364.400 H 465.920 C 466.020 364.400 465.920 364.300 465.920 364.400 V 374.200 C 465.920 374.300 466.020 374.200 465.920 374.200 H 461.020 C 460.965 374.200 460.920 374.245 460.920 374.300 V 384.300 C 460.920 384.355 460.965 384.400 461.020 384.400 H 465.920 C 466.020 384.400 465.920 384.300 465.920 384.400 V 394.200 C 465.920 394.300 466.020 394.200 465.920 394.200 H 461.020 C 460.965 394.200 460.920 394.245 460.920 394.300 V 404.300 C 460.920 404.355 460.965 404.400 461.020 404.400 H 465.920 C 466.020 404.400 465.920 404.300 465.920 404.400 V 419.300 C 465.920 419.355 465.965 419.400 466.020 419.400" stroke="rgb(0,0,0)" stroke-width="0.20"/>
</g>
<g id="p-7" style="fill:none;stroke-linecap:round;stroke-linejoin:round;">
  <text alignment-baseline="hanging" font-size="4px" style="font-family: sans-serif ; font-weight: normal; font-style: normal; fill: rgb(255,0,0)" text-anchor="middle" transform="matrix( 1.000 0.000 0.000 1.000 974.330 359.900 )"/><path d="M 755.220 419.400 H 769.230 C 769.330 419.400 769.230 419.300 769.230 419.400 V 424.300 C 769.230 424.355 769.275 424.400 769.330 424.400 H 779.330 C 779.385 424.400 779.430 424.355 779.430 424.300 V 419.400 C 779.430 419.300 779.330 419.400 779.430 419.400 H 789.230 C 789.330 419.400 789.230 419.300 789.230 419.400 V 424.300 C 789.230 424.355 789.275 424.400 789.330 424.400 H 799.330 C 799.385 424.400 799.430 424.355 799.430 424.300 V 419.400 C 799.430 419.300 799.330 419.400 799.430 419.400 H 809.230 C 809.330 419.400 809.230 419.300 809.230 419.400 V 424.300 C 809.230 424.355 809.275 424.400 809.330 424.400 H 819.330 C 819.385 424.400 819.430 424.355 819.430 424.300 V 419.400 C 819.430 419.300 819.330 419.400 819.430 419.400 H 829.230 C 829.330 419.400 829.230 419.300 829.230 419.400 V 424.300 C 829.230 424.355 829.275 424.400 829.330 424.400 H 839.330 C 839.385 424.400 839.430 424.355 839.430 424.300 V 419.400 C 839.430 419.300 839.330 419.400 839.430 419.400 H 849.230 C 849.330 419.400 849.230 419.300 849.230 419.400 V 424.300 C 849.230 424.355 849.275 424.400 849.330 424.400 H 859.330 C 859.385 424.400 859.430 424.355 859.430 424.300 V 419.400 C 859.430 419.300 859.330 419.400 859.430 419.400 H 869.230 C 869.330 419.400 869.230 419.300 869.230 419.400 V 424.300 C 869.230 424.355 869.275 424.400 869.330 424.400 H 879.330 C 879.385 424.400 879.430 424.355 879.430 424.300 V 419.400 C 879.430 419.300 879.330 419.400 879.430 419.400 H 889.230 C 889.330 419.400 889.230 419.300 889.230 419.400 V 424.300 C 889.230 424.355 889.275 424.400 889.330 424.400 H 899.330 C 899.385 424.400 899.430 424.355 899.430 424.300 V 419.400 C 899.430 419.300 899.330 419.400 899.430 419.400 H 909.230 C 909.330 419.400 909.230 419.300 909.230 419.400 V 424.300 C 909.230 424.355 909.275 424.400 909.330 424.400 H 919.330 C 919.385 424.400 919.430 424.355 919.430 424.300 V 419.400 C 919.430 419.300 919.330 419.400 919.430 419.400 H 929.230 C 929.330 419.400 929.230 419.300 929.230 419.400 V 424.300 C 929.230 424.355 929.275 424.400 929.330 424.400 H 939.330 C 939.385 424.400 939.430 424.355 939.430 424.300 V 419.400 C 939.430 419.300 939.330 419.400 939.430 419.400 H 949.230 C 949.330 419.400 949.230 419.300 949.230 419.400 V 424.300 C 949.230 424.355 949.275 424.400 949.330 424.400 H 959.330 C 959.385 424.400 959.430 424.355 959.430 424.300 V 419.400 C 959.430 419.300 959.330 419.400 959.430 419.400 H 969.230 C 969.330 419.400 969.230 419.300 969.230 419.400 V 424.300 C 969.230 424.355 969.275 424.400 969.330 424.400 H 979.330 C 979.385 424.400 979.430 424.355 979.430 424.300 V 419.400 C 979.430 419.300 979.330 419.400 979.430 419.400 H 989.230 C 989.330 419.400 989.230 419.300 989.230 419.400 V 424.300 C 989.230 424.355 989.275 424.400 989.330 424.400 H 999.330 C 999.385 424.400 999.430 424.355 999.430 424.300 V 419.400 C 999.430 419.300 999.330 419.400 999.430 419.400 H 1009.230 C 1009.330 419.400 1009.230 419.300 1009.230 419.400 V 424.300 C 1009.230 424.355 1009.275 424.400 1009.330 424.400 H 1019.330 C 1019.385 424.400 1019.430 424.355 1019.430 424.300 V 419.400 C 1019.430 419.300 1019.330 419.400 1019.430 419.400 H 1029.230 C 1029.330 419.400 1029.230 419.300 1029.230 419.400 V 424.300 C 1029.230 424.355 1029.275 424.400 1029.330 424.400 H 1039.330 C 1039.385 424.400 1039.430 424.355 1039.430 424.300 V 419.400 C 1039.430 419.300 1039.330 419.400 1039.430 419.400 H 1049.230 C 1049.330 419.400 1049.230 419.300 1049.230 419.400 V 424.300 C 1049.230 424.355 1049.275 424.400 1049.330 424.400 H 1059.330 C 1059.385 424.400 1059.430 424.355 1059.430 424.300 V 419.400 C 1059.430 419.300 1059.330 419.400 1059.430 419.400 H 1069.230 C 1069.330 419.400 1069.230 419.300 1069.230 419.400 V 424.300 C 1069.230 424.355 1069.275 424.400 1069.330 424.400 H 1079.330 C 1079.385 424.400 1079.430 424.355 1079.430 424.300 V 419.400 C 1079.430 419.300 1079.330 419.400 1079.430 419.400 H 1089.230 C 1089.330 419.400 1089.230 419.300 1089.230 419.400 V 424.300 C 1089.230 424.355 1089.275 424.400 1089.330 424.400 H 1099.330 C 1099.385 424.400 1099.430 424.355 1099.430 424.300 V 419.400 C 1099.430 419.300 1099.330 419.400 1099.430 419.400 H 1109.230 C 1109.330 419.400 1109.230 419.300 1109.230 419.400 V 424.300 C 1109.230 424.355 1109.275 424.400 1109.330 424.400 H 1119.330 C 1119.385 424.400 1119.430 424.355 1119.430 424.300 V 419.400 C 1119.430 419.300 1119.330 419.400 1119.430 419.400 H 1129.230 C 1129.330 419.400 1129.230 419.300 1129.230 419.400 V 424.300 C 1129.230 424.355 1129.275 424.400 1129.330 424.400 H 1139.330 C 1139.385 424.400 1139.430 424.355 1139.430 424.300 V 419.400 C 1139.430 419.300 1139.330 419.400 1139.430 419.400 H 1149.230 C 1149.330 419.400 1149.230 419.300 1149.230 419.400 V 424.300 C 1149.230 424.355 1149.275 424.400 1149.330 424.400 H 1159.330 C 1159.385 424.400 1159.430 424.355 1159.430 424.300 V 419.400 C 1159.430 419.300 1159.330 419.400 1159.430 419.400 H 1169.230 C 1169.330 419.400 1169.230 419.300 1169.230 419.400 V 424.300 C 1169.230 424.355 1169.275 424.400 1169.330 424.400 H 1179.330 C 1179.385 424.400 1179.430 424.355 1179.430 424.300 V 419.400 C 1179.430 419.300 1179.330 419.400 1179.430 419.400 H 1193.440 H 1198.440 C 1198.495 419.400 1198.540 419.355 1198.540 419.300 V 404.300 C 1198.540 404.245 1198.495 404.200 1198.440 404.200 H 1193.540 C 1193.440 404.200 1193.540 404.300 1193.540 404.200 V 394.400 C 1193.540 394.300 1193.440 394.400 1193.540 394.400 H 1198.440 C 1198.495 394.400 1198.540 394.355 1198.540 394.300 V 384.300 C 1198.540 384.245 1198.495 384.200 1198.440 384.200 H 1193.540 C 1193.440 384.200 1193.540 384.300 1193.540 384.200 V 374.400 C 1193.540 374.300 1193.440 374.400 1193.540 374.400 H 1198.440 C 1198.495 374.400 1198.540 374.355 1198.540 374.300 V 364.300 C 1198.540 364.245 1198.495 364.200 1198.440 364.200 H 1193.540 C 1193.440 364.200 1193.540 364.300 1193.540 364.200 V 354.400 C 1193.540 354.300 1193.440 354.400 1193.540 354.400 H 1198.440 C 1198.495 354.400 1198.540 354.355 1198.540 354.300 V 344.300 C 1198.540 344.245 1198.495 344.200 1198.440 344.200 H 1193.540 C 1193.440 344.200 1193.540 344.300 1193.540 344.200 V 334.400 C 1193.540 334.300 1193.440 334.400 1193.540 334.400 H 1198.440 C 1198.495 334.400 1198.540 334.355 1198.540 334.300 V 324.300 C 1198.540 324.245 1198.495 324.200 1198.440 324.200 H 1193.540 C 1193.440 324.200 1193.540 324.300 1193.540 324.200 V 314.400 C 1193.540 314.300 1193.440 314.400 1193.540 314.400 H 1198.440 C 1198.495 314.400 1198.540 314.355 1198.540 314.300 V 299.300 C 1198.540 299.245 1198.495 299.200 1198.440 299.200 H 1193.440 H 755.220 H 750.220 C 750.165 299.200 750.120 299.245 750.120 299.300 V 314.300 C 750.120 314.355 750.165 314.400 750.220 314.400 H 755.120 C 755.220 314.400 755.120 314.300 755.120 314.400 V 324.200 C 755.120 324.300 755.220 324.200 755.120 324.200 H 750.220 C 750.165 324.200 750.120 324.245 750.120 324.300 V 334.300 C 750.120 334.355 750.165 334.400 750.220 334.400 H 755.120 C 755.220 334.400 755.120 334.300 755.120 334.400 V 344.200 C 755.120 344.300 755.220 344.200 755.120 344.200 H 750.220 C 750.165 344.200 750.120 344.245 750.120 344.300 V 354.300 C 750.120 354.355 750.165 354.400 750.220 354.400 H 755.120 C 755.220 354.400 755.120 354.300 755.120 354.400 V 364.200 C 755.120 364.300 755.220 364.200 755.120 364.200 H 750.220 C 750.165 364.200 750.120 364.245 750.120 364.300 V 374.300 C 750.120 374.355 750.165 374.400 750.220 374.400 H 755.120 C 755.220 374.400 755.120 374.300 755.120 374.400 V 384.200 C 755.120 384.300 755.220 384.200 755.120 384.200 H 750.220 C 750.165 384.200 750.120 384.245 750.120 384.300 V 394.300 C 750.120 394.355 750.165 394.400 750.220 394.400 H 755.120 C 755.220 394.400 755.120 394.300 755.120 394.400 V 404.200 C 755.120 404.300 755.220 404.200 755.120 404.200 H 750.220 C 750.165 404.200 750.120 404.245 750.120 404.300 V 419.300 C 750.120 419.355 750.165 419.400 750.220 419.400 H 755.220" stroke="rgb(0,0,0)" stroke-width="0.20"/>
</g>
<g id="p-8" style="fill:none;stroke-linecap:round;stroke-linejoin:round;">
  <text alignment-baseline="hanging" font-size="4px" style="font-family: sans-serif ; font-weight: normal; font-style: normal; fill: rgb(255,0,0)" text-anchor="middle" transform="matrix( 1.000 0.000 0.000 1.000 1344.390 359.900 )"/><path d="M 1206.140 419.400 H 1219.290 C 1219.390 419.400 1219.290 419.300 1219.290 419.400 V 424.300 C 1219.290 424.355 1219.335 424.400 1219.390 424.400 H 1229.390 C 1229.445 424.400 1229.490 424.355 1229.490 424.300 V 419.400 C 1229.490 419.300 1229.390 419.400 1229.490 419.400 H 1239.290 C 1239.390 419.400 1239.290 419.300 1239.290 419.400 V 424.300 C 1239.290 424.355 1239.335 424.400 1239.390 424.400 H 1249.390 C 1249.445 424.400 1249.490 424.355 1249.490 424.300 V 419.400 C 1249.490 419.300 1249.390 419.400 1249.490 419.400 H 1259.290 C 1259.390 419.400 1259.290 419.300 1259.290 419.400 V 424.300 C 1259.290 424.355 1259.335 424.400 1259.390 424.400 H 1269.390 C 1269.445 424.400 1269.490 424.355 1269.490 424.300 V 419.400 C 1269.490 419.300 1269.390 419.400 1269.490 419.400 H 1279.290 C 1279.390 419.400 1279.290 419.300 1279.290 419.400 V 424.300 C 1279.290 424.355 1279.335 424.400 1279.390 424.400 H 1289.390 C 1289.445 424.400 1289.490 424.355 1289.490 424.300 V 419.400 C 1289.490 419.300 1289.390 419.400 1289.490 419.400 H 1299.290 C 1299.390 419.400 1299.290 419.300 1299.290 419.400 V 424.300 C 1299.290 424.355 1299.335 424.400 1299.390 424.400 H 1309.390 C 1309.445 424.400 1309.490 424.355 1309.490 424.300 V 419.400 C 1309.490 419.300 1309.390 419.400 1309.490 419.400 H 1319.290 C 1319.390 419.400 1319.290 419.300 1319.290 419.400 V 424.300 C 1319.290 424.355 1319.335 424.400 1319.390 424.400 H 1329.390 C 1329.445 424.400 1329.490 424.355 1329.490 424.300 V 419.400 C 1329.490 419.300 1329.390 419.400 1329.490 419.400 H 1339.290 C 1339.390 419.400 1339.290 419.300 1339.290 419.400 V 424.300 C 1339.290 424.355 1339.335 424.400 1339.390 424.400 H 1349.390 C 1349.445 424.400 1349.490 424.355 1349.490 424.300 V 419.400 C 1349.490 419.300 1349.390 419.400 1349.490 419.400 H 1359.290 C 1359.390 419.400 1359.290 419.300 1359.290 419.400 V 424.300 C 1359.290 424.355 1359.335 424.400 1359.390 424.400 H 1369.390 C 1369.445 424.400 1369.490 424.355 1369.490 424.300 V 419.400 C 1369.490 419.300 1369.390 419.400 1369.490 419.400 H 1379.290 C 1379.390 419.400 1379.290 419.300 1379.290 419.400 V 424.300 C 1379.290 424.355 1379.335 424.400 1379.390 424.400 H 1389.390 C 1389.445 424.400 1389.490 424.355 1389.490 424.300 V 419.400 C 1389.490 419.300 1389.390 419.400 1389.490 419.400 H 1399.290 C 1399.390 419.400 1399.290 419.300 1399.290 419.400 V 424.300 C 1399.290 424.355 1399.335 424.400 1399.390 424.400 H 1409.390 C 1409.445 424.400 1409.490 424.355 1409.490 424.300 V 419.400 C 1409.490 419.300 1409.390 419.400 1409.490 419.400 H 1419.290 C 1419.390 419.400 1419.290 419.300 1419.290 419.400 V 424.300 C 1419.290 424.355 1419.335 424.400 1419.390 424.400 H 1429.390 C 1429.445 424.400 1429.490 424.355 1429.490 424.300 V 419.400 C 1429.490 419.300 1429.390 419.400 1429.490 419.400 H 1439.290 C 1439.390 419.400 1439.290 419.300 1439.290 419.400 V 424.300 C 1439.290 424.355 1439.335 424.400 1439.390 424.400 H 1449.390 C 1449.445 424.400 1449.490 424.355 1449.490 424.300 V 419.400 C 1449.490 419.300 1449.390 419.400 1449.490 419.400 H 1459.290 C 1459.390 419.400 1459.290 419.300 1459.290 419.400 V 424.300 C 1459.290 424.355 1459.335 424.400 1459.390 424.400 H 1469.390 C 1469.445 424.400 1469.490 424.355 1469.490 424.300 V 419.400 C 1469.490 419.300 1469.390 419.400 1469.490 419.400 H 1482.640 C 1482.695 419.400 1482.740 419.355 1482.740 419.300 V 404.400 C 1482.740 404.300 1482.640 404.400 1482.740 404.400 H 1487.640 C 1487.695 404.400 1487.740 404.355 1487.740 404.300 V 394.300 C 1487.740 394.245 1487.695 394.200 1487.640 394.200 H 1482.740 C 1482.640 394.200 1482.740 394.300 1482.740 394.200 V 384.400 C 1482.740 384.300 1482.640 384.400 1482.740 384.400 H 1487.640 C 1487.695 384.400 1487.740 384.355 1487.740 384.300 V 374.300 C 1487.740 374.245 1487.695 374.200 1487.640 374.200 H 1482.740 C 1482.640 374.200 1482.740 374.300 1482.740 374.200 V 364.400 C 1482.740 364.300 1482.640 364.400 1482.740 364.400 H 1487.640 C 1487.695 364.400 1487.740 364.355 1487.740 364.300 V 354.300 C 1487.740 354.245 1487.695 354.200 1487.640 354.200 H 1482.740 C 1482.640 354.200 1482.740 354.300 1482.740 354.200 V 344.400 C 1482.740 344.300 1482.640 344.400 1482.740 344.400 H 1487.640 C 1487.695 344.400 1487.740 344.355 1487.740 344.300 V 334.300 C 1487.740 334.245 1487.695 334.200 1487.640 334.200 H 1482.740 C 1482.640 334.200 1482.740 334.300 1482.740 334.200 V 324.400 C 1482.740 324.300 1482.640 324.400 1482.740 324.400 H 1487.640 C 1487.695 324.400 1487.740 324.355 1487.740 324.300 V 314.300 C 1487.740 314.245 1487.695 314.200 1487.640 314.200 H 1482.740 C 1482.640 314.200 1482.740 314.300 1482.740 314.200 V 299.300 C 1482.740 299.245 1482.695 299.200 1482.640 299.200 H 1206.140 C 1206.085 299.200 1206.040 299.245 1206.040 299.300 V 314.200 C 1206.040 314.300 1206.140 314.200 1206.040 314.200 H 1201.140 C 1201.085 314.200 1201.040 314.245 1201.040 314.300 V 324.300 C 1201.040 324.355 1201.085 324.400 1201.140 324.400 H 1206.040 C 1206.140 324.400 1206.040 324.300 1206.040 324.400 V 334.200 C 1206.040 334.300 1206.140 334.200 1206.040 334.200 H 1201.140 C 1201.085 334.200 1201.040 334.245 1201.040 334.300 V 344.300 C 1201.040 344.355 1201.085 344.400 1201.140 344.400 H 1206.040 C 1206.140 344.400 1206.040 344.300 1206.040 344.400 V 354.200 C 1206.040 354.300 1206.140 354.200 1206.040 354.200 H 1201.140 C 1201.085 354.200 1201.040 354.245 1201.040 354.300 V 364.300 C 1201.040 364.355 1201.085 364.400 1201.140 364.400 H 1206.040 C 1206.140 364.400 1206.040 364.300 1206.040 364.400 V 374.200 C 1206.040 374.300 1206.140 374.200 1206.040 374.200 H 1201.140 C 1201.085 374.200 1201.040 374.245 1201.040 374.300 V 384.300 C 1201.040 384.355 1201.085 384.400 1201.140 384.400 H 1206.040 C 1206.140 384.400 1206.040 384.300 1206.040 384.400 V 394.200 C 1206.040 394.300 1206.140 394.200 1206.040 394.200 H 1201.140 C 1201.085 394.200 1201.040 394.245 1201.040 394.300 V 404.300 C 1201.040 404.355 1201.085 404.400 1201.140 404.400 H 1206.040 C 1206.140 404.400 1206.040 404.300 1206.040 404.400 V 419.300 C 1206.040 419.355 1206.085 419.400 1206.140 419.400" stroke="rgb(0,0,0)" stroke-width="0.20"/>
</g>
<g id="p-9" style="fill:none;stroke-linecap:round;stroke-linejoin:round;">
  <path d="M 44.210 290.750 H 39.310 C 39.210 290.750 39.310 290.850 39.310 290.750 V 285.950 C 39.310 285.850 39.210 285.950 39.310 285.950 H 49.110 C 49.210 285.950 49.110 285.850 49.110 285.950 V 290.750 C 49.110 290.850 49.210 290.750 49.110 290.750 H 44.210 Z" stroke="rgb(0,0,255)" stroke-width="0.20"/>
  <path d="M 64.210 290.750 H 59.310 C 59.210 290.750 59.310 290.850 59.310 290.750 V 285.950 C 59.310 285.850 59.210 285.950 59.310 285.950 H 69.110 C 69.210 285.950 69.110 285.850 69.110 285.950 V 290.750 C 69.110 290.850 69.210 290.750 69.110 290.750 H 64.210 Z" stroke="rgb(0,0,255)" stroke-width="0.20"/>
  <path d="M 84.210 290.750 H 79.310 C 79.210 290.750 79.310 290.850 79.310 290.750 V 285.950 C 79.310 285.850 79.210 285.950 79.310 285.950 H 89.110 C 89.210 285.950 89.110 285.850 89.110 285.950 V 290.750 C 89.110 290.850 89.210 290.750 89.110 290.750 H 84.210 Z" stroke="rgb(0,0,255)" stroke-width="0.20"/>
  <path d="M 104.210 290.750 H 99.310 C 99.210 290.750 99.310 290.850 99.310 290.750 V 285.950 C 99.310 285.850 99.210 285.950 99.310 285.950 H 109.110 C 109.210 285.950 109.110 285.850 109.110 285.950 V 290.750 C 109.110 290.850 109.210 290.750 109.110 290.750 H 104.210 Z" stroke="rgb(0,0,255)" stroke-width="0.20"/>
  <path d="M 124.210 290.750 H 119.310 C 119.210 290.750 119.310 290.850 119.310 290.750 V 285.950 C 119.310 285.850 119.210 285.950 119.310 285.950 H 129.110 C 129.210 285.950 129.110 285.850 129.110 285.950 V 290.750 C 129.110 290.850 129.210 290.750 129.110 290.750 H 124.210 Z" stroke="rgb(0,0,255)" stroke-width="0.20"/>
  <path d="M 144.210 290.750 H 139.310 C 139.210 290.750 139.310 290.850 139.310 290.750 V 285.950 C 139.310 285.850 139.210 285.950 139.310 285.950 H 149.110 C 149.210 285.950 149.110 285.850 149.110 285.950 V 290.750 C 149.110 290.850 149.210 290.750 149.110 290.750 H 144.210 Z" stroke="rgb(0,0,255)" stroke-width="0.20"/>
  <path d="M 164.210 290.750 H 159.310 C 159.210 290.750 159.310 290.850 159.310 290.750 V 285.950 C 159.310 285.850 159.210 285.950 159.310 285.950 H 169.110 C 169.210 285.950 169.110 285.850 169.110 285.950 V 290.750 C 169.110 290.850 169.210 290.750 169.110 290.750 H 164.210 Z" stroke="rgb(0,0,255)" stroke-width="0.20"/>
  <path d="M 184.210 290.750 H 179.310 C 179.210 290.750 179.310 290.850 179.310 290.750 V 285.950 C 179.310 285.850 179.210 285.950 179.310 285.950 H 189.110 C 189.210 285.950 189.110 285.850 189.110 285.950 V 290.750 C 189.110 290.850 189.210 290.750 189.110 290.750 H 184.210 Z" stroke="rgb(0,0,255)" stroke-width="0.20"/>
  <path d="M 204.210 290.750 H 199.310 C 199.210 290.750 199.310 290.850 199.310 290.750 V 285.950 C 199.310 285.850 199.210 285.950 199.310 285.950 H 209.110 C 209.210 285.950 209.110 285.850 209.110 285.950 V 290.750 C 209.110 290.850 209.210 290.750 209.110 290.750 H 204.210 Z" stroke="rgb(0,0,255)" stroke-width="0.20"/>
  <path d="M 224.210 290.750 H 219.310 C 219.210 290.750 219.310 290.850 219.310 290.750 V 285.950 C 219.310 285.850 219.210 285.950 219.310 285.950 H 229.110 C 229.210 285.950 229.110 285.850 229.110 285.950 V 290.750 C 229.110 290.850 229.210 290.750 229.110 290.750 H 224.210 Z" stroke="rgb(0,0,255)" stroke-width="0.20"/>
  <path d="M 244.210 290.750 H 239.310 C 239.210 290.750 239.310 290.850 239.310 290.750 V 285.950 C 239.310 285.850 239.210 285.950 239.310 285.950 H 249.110 C 249.210 285.950 249.110 285.850 249.110 285.950 V 290.750 C 249.110 290.850 249.210 290.750 249.110 290.750 H 244.210 Z" stroke="rgb(0,0,255)" stroke-width="0.20"/>
  <path d="M 264.210 290.750 H 259.310 C 259.210 290.750 259.310 290.850 259.310 290.750 V 285.950 C 259.310 285.850 259.210 285.950 259.310 285.950 H 269.110 C 269.210 285.950 269.110 285.850 269.110 285.950 V 290.750 C 269.110 290.850 269.210 290.750 269.110 290.750 H 264.210 Z" stroke="rgb(0,0,255)" stroke-width="0.20"/>
  <path d="M 284.210 290.750 H 279.310 C 279.210 290.750 279.310 290.850 279.310 290.750 V 285.950 C 279.310 285.850 279.210 285.950 279.310 285.950 H 289.110 C 289.210 285.950 289.110 285.850 289.110 285.950 V 290.750 C 289.110 290.850 289.210 290.750 289.110 290.750 H 284.210 Z" stroke="rgb(0,0,255)" stroke-width="0.20"/>
  <path d="M 304.210 290.750 H 299.310 C 299.210 290.750 299.310 290.850 299.310 290.750 V 285.950 C 299.310 285.850 299.210 285.950 299.310 285.950 H 309.110 C 309.210 285.950 309.110 285.850 309.110 285.950 V 290.750 C 309.110 290.850 309.210 290.750 309.110 290.750 H 304.210 Z" stroke="rgb(0,0,255)" stroke-width="0.20"/>
  <path d="M 324.210 290.750 H 319.310 C 319.210 290.750 319.310 290.850 319.310 290.750 V 285.950 C 319.310 285.850 319.210 285.950 319.310 285.950 H 329.110 C 329.210 285.950 329.110 285.850 329.110 285.950 V 290.750 C 329.110 290.850 329.210 290.750 329.110 290.750 H 324.210 Z" stroke="rgb(0,0,255)" stroke-width="0.20"/>
  <path d="M 344.210 290.750 H 339.310 C 339.210 290.750 339.310 290.850 339.310 290.750 V 285.950 C 339.310 285.850 339.210 285.950 339.310 285.950 H 349.110 C 349.210 285.950 349.110 285.850 349.110 285.950 V 290.750 C 349.110 290.850 349.210 290.750 349.110 290.750 H 344.210 Z" stroke="rgb(0,0,255)" stroke-width="0.20"/>
  <path d="M 364.210 290.750 H 359.310 C 359.210 290.750 359.310 290.850 359.310 290.750 V 285.950 C 359.310 285.850 359.210 285.950 359.310 285.950 H 369.110 C 369.210 285.950 369.110 285.850 369.110 285.950 V 290.750 C 369.110 290.850 369.210 290.750 369.110 290.750 H 364.210 Z" stroke="rgb(0,0,255)" stroke-width="0.20"/>
  <path d="M 384.210 290.750 H 379.310 C 379.210 290.750 379.310 290.850 379.310 290.750 V 285.950 C 379.310 285.850 379.210 285.950 379.310 285.950 H 389.110 C 389.210 285.950 389.110 285.850 389.110 285.950 V 290.750 C 389.110 290.850 389.210 290.750 389.110 290.750 H 384.210 Z" stroke="rgb(0,0,255)" stroke-width="0.20"/>
  <path d="M 404.210 290.750 H 399.310 C 399.210 290.750 399.310 290.850 399.310 290.750 V 285.950 C 399.310 285.850 399.210 285.950 399.310 285.950 H 409.110 C 409.210 285.950 409.110 285.850 409.110 285.950 V 290.750 C 409.110 290.850 409.210 290.750 409.110 290.750 H 404.210 Z" stroke="rgb(0,0,255)" stroke-width="0.20"/>
  <path d="M 424.210 290.750 H 419.310 C 419.210 290.750 419.310 290.850 419.310 290.750 V 285.950 C 419.310 285.850 419.210 285.950 419.310 285.950 H 429.110 C 429.210 285.950 429.110 285.850 429.110 285.950 V 290.750 C 429.110 290.850 429.210 290.750 429.110 290.750 H 424.210 Z" stroke="rgb(0,0,255)" stroke-width="0.20"/>
  <text alignment-baseline="hanging" font-size="4px" style="font-family: sans-serif ; font-weight: normal; font-style: normal; fill: rgb(255,0,0)" text-anchor="middle" transform="matrix( 1.000 0.000 0.000 1.000 234.210 151.450 )"/><path d="M 20.850 296.700 H 447.570 H 458.320 C 458.375 296.700 458.420 296.655 458.420 296.600 V 285.850 V 20.850 V 10.100 C 458.420 10.045 458.375 10.000 458.320 10.000 H 447.570 H 20.850 H 10.100 C 10.045 10.000 10.000 10.045 10.000 10.100 V 20.850 V 285.850 V 296.600 C 10.000 296.655 10.045 296.700 10.100 296.700 H 20.850" stroke="rgb(0,0,0)" stroke-width="0.20"/>
  <path d="M 452.470 263.350 V 268.250 C 452.470 268.350 452.570 268.250 452.470 268.250 H 447.670 C 447.570 268.250 447.670 268.350 447.670 268.250 V 258.450 C 447.670 258.350 447.570 258.450 447.670 258.450 H 452.470 C 452.570 258.450 452.470 258.350 452.470 258.450 V 263.350 Z" stroke="rgb(0,0,255)" stroke-width="0.20"/>
  <path d="M 452.470 243.350 V 248.250 C 452.470 248.350 452.570 248.250 452.470 248.250 H 447.670 C 447.570 248.250 447.670 248.350 447.670 248.250 V 238.450 C 447.670 238.350 447.570 238.450 447.670 238.450 H 452.470 C 452.570 238.450 452.470 238.350 452.470 238.450 V 243.350 Z" stroke="rgb(0,0,255)" stroke-width="0.20"/>
  <path d="M 452.470 223.350 V 228.250 C 452.470 228.350 452.570 228.250 452.470 228.250 H 447.670 C 447.570 228.250 447.670 228.350 447.670 228.250 V 218.450 C 447.670 218.350 447.570 218.450 447.670 218.450 H 452.470 C 452.570 218.450 452.470 218.350 452.470 218.450 V 223.350 Z" stroke="rgb(0,0,255)" stroke-width="0.20"/>
  <path d="M 452.470 203.350 V 208.250 C 452.470 208.350 452.570 208.250 452.470 208.250 H 447.670 C 447.570 208.250 447.670 208.350 447.670 208.250 V 198.450 C 447.670 198.350 447.570 198.450 447.670 198.450 H 452.470 C 452.570 198.450 452.470 198.350 452.470 198.450 V 203.350 Z" stroke="rgb(0,0,255)" stroke-width="0.20"/>
  <path d="M 452.470 183.350 V 188.250 C 452.470 188.350 452.570 188.250 452.470 188.250 H 447.670 C 447.570 188.250 447.670 188.350 447.670 188.250 V 178.450 C 447.670 178.350 447.570 178.450 447.670 178.450 H 452.470 C 452.570 178.450 452.470 178.350 452.470 178.450 V 183.350 Z" stroke="rgb(0,0,255)" stroke-width="0.20"/>
  <path d="M 452.470 163.350 V 168.250 C 452.470 168.350 452.570 168.250 452.470 168.250 H 447.670 C 447.570 168.250 447.670 168.350 447.670 168.250 V 158.450 C 447.670 158.350 447.570 158.450 447.670 158.450 H 452.470 C 452.570 158.450 452.470 158.350 452.470 158.450 V 163.350 Z" stroke="rgb(0,0,255)" stroke-width="0.20"/>
  <path d="M 452.470 143.350 V 148.250 C 452.470 148.350 452.570 148.250 452.470 148.250 H 447.670 C 447.570 148.250 447.670 148.350 447.670 148.250 V 138.450 C 447.670 138.350 447.570 138.450 447.670 138.450 H 452.470 C 452.570 138.450 452.470 138.350 452.470 138.450 V 143.350 Z" stroke="rgb(0,0,255)" stroke-width="0.20"/>
  <path d="M 452.470 123.350 V 128.250 C 452.470 128.350 452.570 128.250 452.470 128.250 H 447.670 C 447.570 128.250 447.670 128.350 447.670 128.250 V 118.450 C 447.670 118.350 447.570 118.450 447.670 118.450 H 452.470 C 452.570 118.450 452.470 118.350 452.470 118.450 V 123.350 Z" stroke="rgb(0,0,255)" stroke-width="0.20"/>
  <path d="M 452.470 103.350 V 108.250 C 452.470 108.350 452.570 108.250 452.470 108.250 H 447.670 C 447.570 108.250 447.670 108.350 447.670 108.250 V 98.450 C 447.670 98.350 447.570 98.450 447.670 98.450 H 452.470 C 452.570 98.450 452.470 98.350 452.470 98.450 V 103.350 Z" stroke="rgb(0,0,255)" stroke-width="0.20"/>
  <path d="M 452.470 83.350 V 88.250 C 452.470 88.350 452.570 88.250 452.470 88.250 H 447.670 C 447.570 88.250 447.670 88.350 447.670 88.250 V 78.450 C 447.670 78.350 447.570 78.450 447.670 78.450 H 452.470 C 452.570 78.450 452.470 78.350 452.470 78.450 V 83.350 Z" stroke="rgb(0,0,255)" stroke-width="0.20"/>
  <path d="M 452.470 63.350 V 68.250 C 452.470 68.350 452.570 68.250 452.470 68.250 H 447.670 C 447.570 68.250 447.670 68.350 447.670 68.250 V 58.450 C 447.670 58.350 447.570 58.450 447.670 58.450 H 452.470 C 452.570 58.450 452.470 58.350 452.470 58.450 V 63.350 Z" stroke="rgb(0,0,255)" stroke-width="0.20"/>
  <path d="M 452.470 43.350 V 48.250 C 452.470 48.350 452.570 48.250 452.470 48.250 H 447.670 C 447.570 48.250 447.670 48.350 447.670 48.250 V 38.450 C 447.670 38.350 447.570 38.450 447.670 38.450 H 452.470 C 452.570 38.450 452.470 38.350 452.470 38.450 V 43.350 Z" stroke="rgb(0,0,255)" stroke-width="0.20"/>
  <path d="M 424.210 15.950 H 429.110 C 429.210 15.950 429.110 15.850 429.110 15.950 V 20.750 C 429.110 20.850 429.210 20.750 429.110 20.750 H 419.310 C 419.210 20.750 419.310 20.850 419.310 20.750 V 15.950 C 419.310 15.850 419.210 15.950 419.310 15.950 H 424.210 Z" stroke="rgb(0,0,255)" stroke-width="0.20"/>
  <path d="M 404.210 15.950 H 409.110 C 409.210 15.950 409.110 15.850 409.110 15.950 V 20.750 C 409.110 20.850 409.210 20.750 409.110 20.750 H 399.310 C 399.210 20.750 399.310 20.850 399.310 20.750 V 15.950 C 399.310 15.850 399.210 15.950 399.310 15.950 H 404.210 Z" stroke="rgb(0,0,255)" stroke-width="0.20"/>
  <path d="M 384.210 15.950 H 389.110 C 389.210 15.950 389.110 15.850 389.110 15.950 V 20.750 C 389.110 20.850 389.210 20.750 389.110 20.750 H 379.310 C 379.210 20.750 379.310 20.850 379.310 20.750 V 15.950 C 379.310 15.850 379.210 15.950 379.310 15.950 H 384.210 Z" stroke="rgb(0,0,255)" stroke-width="0.20"/>
  <path d="M 364.210 15.950 H 369.110 C 369.210 15.950 369.110 15.850 369.110 15.950 V 20.750 C 369.110 20.850 369.210 20.750 369.110 20.750 H 359.310 C 359.210 20.750 359.310 20.850 359.310 20.750 V 15.950 C 359.310 15.850 359.210 15.950 359.310 15.950 H 364.210 Z" stroke="rgb(0,0,255)" stroke-width="0.20"/>
  <path d="M 344.210 15.950 H 349.110 C 349.210 15.950 349.110 15.850 349.110 15.950 V 20.750 C 349.110 20.850 349.210 20.750 349.110 20.750 H 339.310 C 339.210 20.750 339.310 20.850 339.310 20.750 V 15.950 C 339.310 15.850 339.210 15.950 339.310 15.950 H 344.210 Z" stroke="rgb(0,0,255)" stroke-width="0.20"/>
  <path d="M 324.210 15.950 H 329.110 C 329.210 15.950 329.110 15.850 329.110 15.950 V 20.750 C 329.110 20.850 329.210 20.750 329.110 20.750 H 319.310 C 319.210 20.750 319.310 20.850 319.310 20.750 V 15.950 C 319.310 15.850 319.210 15.950 319.310 15.950 H 324.210 Z" stroke="rgb(0,0,255)" stroke-width="0.20"/>
  <path d="M 304.210 15.950 H 309.110 C 309.210 15.950 309.110 15.850 309.110 15.950 V 20.750 C 309.110 20.850 309.210 20.750 309.110 20.750 H 299.310 C 299.210 20.750 299.310 20.850 299.310 20.750 V 15.950 C 299.310 15.850 299.210 15.950 299.310 15.950 H 304.210 Z" stroke="rgb(0,0,255)" stroke-width="0.20"/>
  <path d="M 284.210 15.950 H 289.110 C 289.210 15.950 289.110 15.850 289.110 15.950 V 20.750 C 289.110 20.850 289.210 20.750 289.110 20.750 H 279.310 C 279.210 20.750 279.310 20.850 279.310 20.750 V 15.950 C 279.310 15.850 279.210 15.950 279.310 15.950 H 284.210 Z" stroke="rgb(0,0,255)" stroke-width="0.20"/>
  <path d="M 264.210 15.950 H 269.110 C 269.210 15.950 269.110 15.850 269.110 15.950 V 20.750 C 269.110 20.850 269.210 20.750 269.110 20.750 H 259.310 C 259.210 20.750 259.310 20.850 259.310 20.750 V 15.950 C 259.310 15.850 259.210 15.950 259.310 15.950 H 264.210 Z" stroke="rgb(0,0,255)" stroke-width="0.20"/>
  <path d="M 244.210 15.950 H 249.110 C 249.210 15.950 249.110 15.850 249.110 15.950 V 20.750 C 249.110 20.850 249.210 20.750 249.110 20.750 H 239.310 C 239.210 20.750 239.310 20.850 239.310 20.750 V 15.950 C 239.310 15.850 239.210 15.950 239.310 15.950 H 244.210 Z" stroke="rgb(0,0,255)" stroke-width="0.20"/>
  <path d="M 224.210 15.950 H 229.110 C 229.210 15.950 229.110 15.850 229.110 15.950 V 20.750 C 229.110 20.850 229.210 20.750 229.110 20.750 H 219.310 C 219.210 20.750 219.310 20.850 219.310 20.750 V 15.950 C 219.310 15.850 219.210 15.950 219.310 15.950 H 224.210 Z" stroke="rgb(0,0,255)" stroke-width="0.20"/>
  <path d="M 204.210 15.950 H 209.110 C 209.210 15.950 209.110 15.850 209.110 15.950 V 20.750 C 209.110 20.850 209.210 20.750 209.110 20.750 H 199.310 C 199.210 20.750 199.310 20.850 199.310 20.750 V 15.950 C 199.310 15.850 199.210 15.950 199.310 15.950 H 204.210 Z" stroke="rgb(0,0,255)" stroke-width="0.20"/>
  <path d="M 184.210 15.950 H 189.110 C 189.210 15.950 189.110 15.850 189.110 15.950 V 20.750 C 189.110 20.850 189.210 20.750 189.110 20.750 H 179.310 C 179.210 20.750 179.310 20.850 179.310 20.750 V 15.950 C 179.310 15.850 179.210 15.950 179.310 15.950 H 184.210 Z" stroke="rgb(0,0,255)" stroke-width="0.20"/>
  <path d="M 164.210 15.950 H 169.110 C 169.210 15.950 169.110 15.850 169.110 15.950 V 20.750 C 169.110 20.850 169.210 20.750 169.110 20.750 H 159.310 C 159.210 20.750 159.310 20.850 159.310 20.750 V 15.950 C 159.310 15.850 159.210 15.950 159.310 15.950 H 164.210 Z" stroke="rgb(0,0,255)" stroke-width="0.20"/>
  <path d="M 144.210 15.950 H 149.110 C 149.210 15.950 149.110 15.850 149.110 15.950 V 20.750 C 149.110 20.850 149.210 20.750 149.110 20.750 H 139.310 C 139.210 20.750 139.310 20.850 139.310 20.750 V 15.950 C 139.310 15.850 139.210 15.950 139.310 15.950 H 144.210 Z" stroke="rgb(0,0,255)" stroke-width="0.20"/>
  <path d="M 124.210 15.950 H 129.110 C 129.210 15.950 129.110 15.850 129.110 15.950 V 20.750 C 129.110 20.850 129.210 20.750 129.110 20.750 H 119.310 C 119.210 20.750 119.310 20.850 119.310 20.750 V 15.950 C 119.310 15.850 119.210 15.950 119.310 15.950 H 124.210 Z" stroke="rgb(0,0,255)" stroke-width="0.20"/>
  <path d="M 104.210 15.950 H 109.110 C 109.210 15.950 109.110 15.850 109.110 15.950 V 20.750 C 109.110 20.850 109.210 20.750 109.110 20.750 H 99.310 C 99.210 20.750 99.310 20.850 99.310 20.750 V 15.950 C 99.310 15.850 99.210 15.950 99.310 15.950 H 104.210 Z" stroke="rgb(0,0,255)" stroke-width="0.20"/>
  <path d="M 84.210 15.950 H 89.110 C 89.210 15.950 89.110 15.850 89.110 15.950 V 20.750 C 89.110 20.850 89.210 20.750 89.110 20.750 H 79.310 C 79.210 20.750 79.310 20.850 79.310 20.750 V 15.950 C 79.310 15.850 79.210 15.950 79.310 15.950 H 84.210 Z" stroke="rgb(0,0,255)" stroke-width="0.20"/>
  <path d="M 64.210 15.950 H 69.110 C 69.210 15.950 69.110 15.850 69.110 15.950 V 20.750 C 69.110 20.850 69.210 20.750 69.110 20.750 H 59.310 C 59.210 20.750 59.310 20.850 59.310 20.750 V 15.950 C 59.310 15.850 59.210 15.950 59.310 15.950 H 64.210 Z" stroke="rgb(0,0,255)" stroke-width="0.20"/>
  <path d="M 44.210 15.950 H 49.110 C 49.210 15.950 49.110 15.850 49.110 15.950 V 20.750 C 49.110 20.850 49.210 20.750 49.110 20.750 H 39.310 C 39.210 20.750 39.310 20.850 39.310 20.750 V 15.950 C 39.310 15.850 39.210 15.950 39.310 15.950 H 44.210 Z" stroke="rgb(0,0,255)" stroke-width="0.20"/>
  <path d="M 15.950 43.350 V 38.450 C 15.950 38.350 15.850 38.450 15.950 38.450 H 20.750 C 20.850 38.450 20.750 38.350 20.750 38.450 V 48.250 C 20.750 48.350 20.850 48.250 20.750 48.250 H 15.950 C 15.850 48.250 15.950 48.350 15.950 48.250 V 43.350 Z" stroke="rgb(0,0,255)" stroke-width="0.20"/>
  <path d="M 15.950 63.350 V 58.450 C 15.950 58.350 15.850 58.450 15.950 58.450 H 20.750 C 20.850 58.450 20.750 58.350 20.750 58.450 V 68.250 C 20.750 68.350 20.850 68.250 20.750 68.250 H 15.950 C 15.850 68.250 15.950 68.350 15.950 68.250 V 63.350 Z" stroke="rgb(0,0,255)" stroke-width="0.20"/>
  <path d="M 15.950 83.350 V 78.450 C 15.950 78.350 15.850 78.450 15.950 78.450 H 20.750 C 20.850 78.450 20.750 78.350 20.750 78.450 V 88.250 C 20.750 88.350 20.850 88.250 20.750 88.250 H 15.950 C 15.850 88.250 15.950 88.350 15.950 88.250 V 83.350 Z" stroke="rgb(0,0,255)" stroke-width="0.20"/>
  <path d="M 15.950 103.350 V 98.450 C 15.950 98.350 15.850 98.450 15.950 98.450 H 20.750 C 20.850 98.450 20.750 98.350 20.750 98.450 V 108.250 C 20.750 108.350 20.850 108.250 20.750 108.250 H 15.950 C 15.850 108.250 15.950 108.350 15.950 108.250 V 103.350 Z" stroke="rgb(0,0,255)" stroke-width="0.20"/>
  <path d="M 15.950 123.350 V 118.450 C 15.950 118.350 15.850 118.450 15.950 118.450 H 20.750 C 20.850 118.450 20.750 118.350 20.750 118.450 V 128.250 C 20.750 128.350 20.850 128.250 20.750 128.250 H 15.950 C 15.850 128.250 15.950 128.350 15.950 128.250 V 123.350 Z" stroke="rgb(0,0,255)" stroke-width="0.20"/>
  <path d="M 15.950 143.350 V 138.450 C 15.950 138.350 15.850 138.450 15.950 138.450 H 20.750 C 20.850 138.450 20.750 138.350 20.750 138.450 V 148.250 C 20.750 148.350 20.850 148.250 20.750 148.250 H 15.950 C 15.850 148.250 15.950 148.350 15.950 148.250 V 143.350 Z" stroke="rgb(0,0,255)" stroke-width="0.20"/>
  <path d="M 15.950 163.350 V 158.450 C 15.950 158.350 15.850 158.450 15.950 158.450 H 20.750 C 20.850 158.450 20.750 158.350 20.750 158.450 V 168.250 C 20.750 168.350 20.850 168.250 20.750 168.250 H 15.950 C 15.850 168.250 15.950 168.350 15.950 168.250 V 163.350 Z" stroke="rgb(0,0,255)" stroke-width="0.20"/>
  <path d="M 15.950 183.350 V 178.450 C 15.950 178.350 15.850 178.450 15.950 178.450 H 20.750 C 20.850 178.450 20.750 178.350 20.750 178.450 V 188.250 C 20.750 188.350 20.850 188.250 20.750 188.250 H 15.950 C 15.850 188.250 15.950 188.350 15.950 188.250 V 183.350 Z" stroke="rgb(0,0,255)" stroke-width="0.20"/>
  <path d="M 15.950 203.350 V 198.450 C 15.950 198.350 15.850 198.450 15.950 198.450 H 20.750 C 20.850 198.450 20.750 198.350 20.750 198.450 V 208.250 C 20.750 208.350 20.850 208.250 20.750 208.250 H 15.950 C 15.850 208.250 15.950 208.350 15.950 208.250 V 203.350 Z" stroke="rgb(0,0,255)" stroke-width="0.20"/>
  <path d="M 15.950 223.350 V 218.450 C 15.950 218.350 15.850 218.450 15.950 218.450 H 20.750 C 20.850 218.450 20.750 218.350 20.750 218.450 V 228.250 C 20.750 228.350 20.850 228.250 20.750 228.250 H 15.950 C 15.850 228.250 15.950 228.350 15.950 228.250 V 223.350 Z" stroke="rgb(0,0,255)" stroke-width="0.20"/>
  <path d="M 15.950 243.350 V 238.450 C 15.950 238.350 15.850 238.450 15.950 238.450 H 20.750 C 20.850 238.450 20.750 238.350 20.750 238.450 V 248.250 C 20.750 248.350 20.850 248.250 20.750 248.250 H 15.950 C 15.850 248.250 15.950 248.350 15.950 248.250 V 243.350 Z" stroke="rgb(0,0,255)" stroke-width="0.20"/>
  <path d="M 15.950 263.350 V 258.450 C 15.950 258.350 15.850 258.450 15.950 258.450 H 20.750 C 20.850 258.450 20.750 258.350 20.750 258.450 V 268.250 C 20.750 268.350 20.850 268.250 20.750 268.250 H 15.950 C 15.850 268.250 15.950 268.350 15.950 268.250 V 263.350 Z" stroke="rgb(0,0,255)" stroke-width="0.20"/>
</g>
<g id="p-10" style="fill:none;stroke-linecap:round;stroke-linejoin:round;">
  <text alignment-baseline="hanging" font-size="4px" style="font-family: sans-serif ; font-weight: normal; font-style: normal; fill: rgb(255,0,0)" text-anchor="middle" transform="matrix( 1.000 0.000 0.000 1.000 685.130 151.450 )"/><path d="M 466.020 296.700 H 480.130 C 480.185 296.700 480.230 296.655 480.230 296.600 V 291.700 C 480.230 291.600 480.130 291.700 480.230 291.700 H 490.030 C 490.130 291.700 490.030 291.600 490.030 291.700 V 296.600 C 490.030 296.655 490.075 296.700 490.130 296.700 H 500.130 C 500.185 296.700 500.230 296.655 500.230 296.600 V 291.700 C 500.230 291.600 500.130 291.700 500.230 291.700 H 510.030 C 510.130 291.700 510.030 291.600 510.030 291.700 V 296.600 C 510.030 296.655 510.075 296.700 510.130 296.700 H 520.130 C 520.185 296.700 520.230 296.655 520.230 296.600 V 291.700 C 520.230 291.600 520.130 291.700 520.230 291.700 H 530.030 C 530.130 291.700 530.030 291.600 530.030 291.700 V 296.600 C 530.030 296.655 530.075 296.700 530.130 296.700 H 540.130 C 540.185 296.700 540.230 296.655 540.230 296.600 V 291.700 C 540.230 291.600 540.130 291.700 540.230 291.700 H 550.030 C 550.130 291.700 550.030 291.600 550.030 291.700 V 296.600 C 550.030 296.655 550.075 296.700 550.130 296.700 H 560.130 C 560.185 296.700 560.230 296.655 560.230 296.600 V 291.700 C 560.230 291.600 560.130 291.700 560.230 291.700 H 570.030 C 570.130 291.700 570.030 291.600 570.030 291.700 V 296.600 C 570.030 296.655 570.075 296.700 570.130 296.700 H 580.130 C 580.185 296.700 580.230 296.655 580.230 296.600 V 291.700 C 580.230 291.600 580.130 291.700 580.230 291.700 H 590.030 C 590.130 291.700 590.030 291.600 590.030 291.700 V 296.600 C 590.030 296.655 590.075 296.700 590.130 296.700 H 600.130 C 600.185 296.700 600.230 296.655 600.230 296.600 V 291.700 C 600.230 291.600 600.130 291.700 600.230 291.700 H 610.030 C 610.130 291.700 610.030 291.600 610.030 291.700 V 296.600 C 610.030 296.655 610.075 296.700 610.130 296.700 H 620.130 C 620.185 296.700 620.230 296.655 620.230 296.600 V 291.700 C 620.230 291.600 620.130 291.700 620.230 291.700 H 630.030 C 630.130 291.700 630.030 291.600 630.030 291.700 V 296.600 C 630.030 296.655 630.075 296.700 630.130 296.700 H 640.130 C 640.185 296.700 640.230 296.655 640.230 296.600 V 291.700 C 640.230 291.600 640.130 291.700 640.230 291.700 H 650.030 C 650.130 291.700 650.030 291.600 650.030 291.700 V 296.600 C 650.030 296.655 650.075 296.700 650.130 296.700 H 660.130 C 660.185 296.700 660.230 296.655 660.230 296.600 V 291.700 C 660.230 291.600 660.130 291.700 660.230 291.700 H 670.030 C 670.130 291.700 670.030 291.600 670.030 291.700 V 296.600 C 670.030 296.655 670.075 296.700 670.130 296.700 H 680.130 C 680.185 296.700 680.230 296.655 680.230 296.600 V 291.700 C 680.230 291.600 680.130 291.700 680.230 291.700 H 690.030 C 690.130 291.700 690.030 291.600 690.030 291.700 V 296.600 C 690.030 296.655 690.075 296.700 690.130 296.700 H 700.130 C 700.185 296.700 700.230 296.655 700.230 296.600 V 291.700 C 700.230 291.600 700.130 291.700 700.230 291.700 H 710.030 C 710.130 291.700 710.030 291.600 710.030 291.700 V 296.600 C 710.030 296.655 710.075 296.700 710.130 296.700 H 720.130 C 720.185 296.700 720.230 296.655 720.230 296.600 V 291.700 C 720.230 291.600 720.130 291.700 720.230 291.700 H 730.030 C 730.130 291.700 730.030 291.600 730.030 291.700 V 296.600 C 730.030 296.655 730.075 296.700 730.130 296.700 H 740.130 C 740.185 296.700 740.230 296.655 740.230 296.600 V 291.700 C 740.230 291.600 740.130 291.700 740.230 291.700 H 750.030 C 750.130 291.700 750.030 291.600 750.030 291.700 V 296.600 C 750.030 296.655 750.075 296.700 750.130 296.700 H 760.130 C 760.185 296.700 760.230 296.655 760.230 296.600 V 291.700 C 760.230 291.600 760.130 291.700 760.230 291.700 H 770.030 C 770.130 291.700 770.030 291.600 770.030 291.700 V 296.600 C 770.030 296.655 770.075 296.700 770.130 296.700 H 780.130 C 780.185 296.700 780.230 296.655 780.230 296.600 V 291.700 C 780.230 291.600 780.130 291.700 780.230 291.700 H 790.030 C 790.130 291.700 790.030 291.600 790.030 291.700 V 296.600 C 790.030 296.655 790.075 296.700 790.130 296.700 H 800.130 C 800.185 296.700 800.230 296.655 800.230 296.600 V 291.700 C 800.230 291.600 800.130 291.700 800.230 291.700 H 810.030 C 810.130 291.700 810.030 291.600 810.030 291.700 V 296.600 C 810.030 296.655 810.075 296.700 810.130 296.700 H 820.130 C 820.185 296.700 820.230 296.655 820.230 296.600 V 291.700 C 820.230 291.600 820.130 291.700 820.230 291.700 H 830.030 C 830.130 291.700 830.030 291.600 830.030 291.700 V 296.600 C 830.030 296.655 830.075 296.700 830.130 296.700 H 840.130 C 840.185 296.700 840.230 296.655 840.230 296.600 V 291.700 C 840.230 291.600 840.130 291.700 840.230 291.700 H 850.030 C 850.130 291.700 850.030 291.600 850.030 291.700 V 296.600 C 850.030 296.655 850.075 296.700 850.130 296.700 H 860.130 C 860.185 296.700 860.230 296.655 860.230 296.600 V 291.700 C 860.230 291.600 860.130 291.700 860.230 291.700 H 870.030 C 870.130 291.700 870.030 291.600 870.030 291.700 V 296.600 C 870.030 296.655 870.075 296.700 870.130 296.700 H 880.130 C 880.185 296.700 880.230 296.655 880.230 296.600 V 291.700 C 880.230 291.600 880.130 291.700 880.230 291.700 H 890.030 C 890.130 291.700 890.030 291.600 890.030 291.700 V 296.600 C 890.030 296.655 890.075 296.700 890.130 296.700 H 904.240 H 909.240 C 909.295 296.700 909.340 296.655 909.340 296.600 V 291.600 V 278.350 C 909.340 278.295 909.295 278.250 909.240 278.250 H 904.340 C 904.240 278.250 904.340 278.350 904.340 278.250 V 268.450 C 904.340 268.350 904.240 268.450 904.340 268.450 H 909.240 C 909.295 268.450 909.340 268.405 909.340 268.350 V 258.350 C 909.340 258.295 909.295 258.250 909.240 258.250 H 904.340 C 904.240 258.250 904.340 258.350 904.340 258.250 V 248.450 C 904.340 248.350 904.240 248.450 904.340 248.450 H 909.240 C 909.295 248.450 909.340 248.405 909.340 248.350 V 238.350 C 909.340 238.295 909.295 238.250 909.240 238.250 H 904.340 C 904.240 238.250 904.340 238.350 904.340 238.250 V 228.450 C 904.340 228.350 904.240 228.450 904.340 228.450 H 909.240 C 909.295 228.450 909.340 228.405 909.340 228.350 V 218.350 C 909.340 218.295 909.295 218.250 909.240 218.250 H 904.340 C 904.240 218.250 904.340 218.350 904.340 218.250 V 208.450 C 904.340 208.350 904.240 208.450 904.340 208.450 H 909.240 C 909.295 208.450 909.340 208.405 909.340 208.350 V 198.350 C 909.340 198.295 909.295 198.250 909.240 198.250 H 904.340 C 904.240 198.250 904.340 198.350 904.340 198.250 V 188.450 C 904.340 188.350 904.240 188.450 904.340 188.450 H 909.240 C 909.295 188.450 909.340 188.405 909.340 188.350 V 178.350 C 909.340 178.295 909.295 178.250 909.240 178.250 H 904.340 C 904.240 178.250 904.340 178.350 904.340 178.250 V 168.450 C 904.340 168.350 904.240 168.450 904.340 168.450 H 909.240 C 909.295 168.450 909.340 168.405 909.340 168.350 V 158.350 C 909.340 158.295 909.295 158.250 909.240 158.250 H 904.340 C 904.240 158.250 904.340 158.350 904.340 158.250 V 148.450 C 904.340 148.350 904.240 148.450 904.340 148.450 H 909.240 C 909.295 148.450 909.340 148.405 909.340 148.350 V 138.350 C 909.340 138.295 909.295 138.250 909.240 138.250 H 904.340 C 904.240 138.250 904.340 138.350 904.340 138.250 V 128.450 C 904.340 128.350 904.240 128.450 904.340 128.450 H 909.240 C 909.295 128.450 909.340 128.405 909.340 128.350 V 118.350 C 909.340 118.295 909.295 118.250 909.240 118.250 H 904.340 C 904.240 118.250 904.340 118.350 904.340 118.250 V 108.450 C 904.340 108.350 904.240 108.450 904.340 108.450 H 909.240 C 909.295 108.450 909.340 108.405 909.340 108.350 V 98.350 C 909.340 98.295 909.295 98.250 909.240 98.250 H 904.340 C 904.240 98.250 904.340 98.350 904.340 98.250 V 88.450 C 904.340 88.350 904.240 88.450 904.340 88.450 H 909.240 C 909.295 88.450 909.340 88.405 909.340 88.350 V 78.350 C 909.340 78.295 909.295 78.250 909.240 78.250 H 904.340 C 904.240 78.250 904.340 78.350 904.340 78.250 V 68.450 C 904.340 68.350 904.240 68.450 904.340 68.450 H 909.240 C 909.295 68.450 909.340 68.405 909.340 68.350 V 58.350 C 909.340 58.295 909.295 58.250 909.240 58.250 H 904.340 C 904.240 58.250 904.340 58.350 904.340 58.250 V 48.450 C 904.340 48.350 904.240 48.450 904.340 48.450 H 909.240 C 909.295 48.450 909.340 48.405 909.340 48.350 V 38.350 C 909.340 38.295 909.295 38.250 909.240 38.250 H 904.340 C 904.240 38.250 904.340 38.350 904.340 38.250 V 28.450 C 904.340 28.350 904.240 28.450 904.340 28.450 H 909.240 C 909.295 28.450 909.340 28.405 909.340 28.350 V 15.100 V 10.100 C 909.340 10.045 909.295 10.000 909.240 10.000 H 904.240 H 890.130 C 890.075 10.000 890.030 10.045 890.030 10.100 V 15.000 C 890.030 15.100 890.130 15.000 890.030 15.000 H 880.230 C 880.130 15.000 880.230 15.100 880.230 15.000 V 10.100 C 880.230 10.045 880.185 10.000 880.130 10.000 H 870.130 C 870.075 10.000 870.030 10.045 870.030 10.100 V 15.000 C 870.030 15.100 870.130 15.000 870.030 15.000 H 860.230 C 860.130 15.000 860.230 15.100 860.230 15.000 V 10.100 C 860.230 10.045 860.185 10.000 860.130 10.000 H 850.130 C 850.075 10.000 850.030 10.045 850.030 10.100 V 15.000 C 850.030 15.100 850.130 15.000 850.030 15.000 H 840.230 C 840.130 15.000 840.230 15.100 840.230 15.000 V 10.100 C 840.230 10.045 840.185 10.000 840.130 10.000 H 830.130 C 830.075 10.000 830.030 10.045 830.030 10.100 V 15.000 C 830.030 15.100 830.130 15.000 830.030 15.000 H 820.230 C 820.130 15.000 820.230 15.100 820.230 15.000 V 10.100 C 820.230 10.045 820.185 10.000 820.130 10.000 H 810.130 C 810.075 10.000 810.030 10.045 810.030 10.100 V 15.000 C 810.030 15.100 810.130 15.000 810.030 15.000 H 800.230 C 800.130 15.000 800.230 15.100 800.230 15.000 V 10.100 C 800.230 10.045 800.185 10.000 800.130 10.000 H 790.130 C 790.075 10.000 790.030 10.045 790.030 10.100 V 15.000 C 790.030 15.100 790.130 15.000 790.030 15.000 H 780.230 C 780.130 15.000 780.230 15.100 780.230 15.000 V 10.100 C 780.230 10.045 780.185 10.000 780.130 10.000 H 770.130 C 770.075 10.000 770.030 10.045 770.030 10.100 V 15.000 C 770.030 15.100 770.130 15.000 770.030 15.000 H 760.230 C 760.130 15.000 760.230 15.100 760.230 15.000 V 10.100 C 760.230 10.045 760.185 10.000 760.130 10.000 H 750.130 C 750.075 10.000 750.030 10.045 750.030 10.100 V 15.000 C 750.030 15.100 750.130 15.000 750.030 15.000 H 740.230 C 740.130 15.000 740.230 15.100 740.230 15.000 V 10.100 C 740.230 10.045 740.185 10.000 740.130 10.000 H 730.130 C 730.075 10.000 730.030 10.045 730.030 10.100 V 15.000 C 730.030 15.100 730.130 15.000 730.030 15.000 H 720.230 C 720.130 15.000 720.230 15.100 720.230 15.000 V 10.100 C 720.230 10.045 720.185 10.000 720.130 10.000 H 710.130 C 710.075 10.000 710.030 10.045 710.030 10.100 V 15.000 C 710.030 15.100 710.130 15.000 710.030 15.000 H 700.230 C 700.130 15.000 700.230 15.100 700.230 15.000 V 10.100 C 700.230 10.045 700.185 10.000 700.130 10.000 H 690.130 C 690.075 10.000 690.030 10.045 690.030 10.100 V 15.000 C 690.030 15.100 690.130 15.000 690.030 15.000 H 680.230 C 680.130 15.000 680.230 15.100 680.230 15.000 V 10.100 C 680.230 10.045 680.185 10.000 680.130 10.000 H 670.130 C 670.075 10.000 670.030 10.045 670.030 10.100 V 15.000 C 670.030 15.100 670.130 15.000 670.030 15.000 H 660.230 C 660.130 15.000 660.230 15.100 660.230 15.000 V 10.100 C 660.230 10.045 660.185 10.000 660.130 10.000 H 650.130 C 650.075 10.000 650.030 10.045 650.030 10.100 V 15.000 C 650.030 15.100 650.130 15.000 650.030 15.000 H 640.230 C 640.130 15.000 640.230 15.100 640.230 15.000 V 10.100 C 640.230 10.045 640.185 10.000 640.130 10.000 H 630.130 C 630.075 10.000 630.030 10.045 630.030 10.100 V 15.000 C 630.030 15.100 630.130 15.000 630.030 15.000 H 620.230 C 620.130 15.000 620.230 15.100 620.230 15.000 V 10.100 C 620.230 10.045 620.185 10.000 620.130 10.000 H 610.130 C 610.075 10.000 610.030 10.045 610.030 10.100 V 15.000 C 610.030 15.100 610.130 15.000 610.030 15.000 H 600.230 C 600.130 15.000 600.230 15.100 600.230 15.000 V 10.100 C 600.230 10.045 600.185 10.000 600.130 10.000 H 590.130 C 590.075 10.000 590.030 10.045 590.030 10.100 V 15.000 C 590.030 15.100 590.130 15.000 590.030 15.000 H 580.230 C 580.130 15.000 580.230 15.100 580.230 15.000 V 10.100 C 580.230 10.045 580.185 10.000 580.130 10.000 H 570.130 C 570.075 10.000 570.030 10.045 570.030 10.100 V 15.000 C 570.030 15.100 570.130 15.000 570.030 15.000 H 560.230 C 560.130 15.000 560.230 15.100 560.230 15.000 V 10.100 C 560.230 10.045 560.185 10.000 560.130 10.000 H 550.130 C 550.075 10.000 550.030 10.045 550.030 10.100 V 15.000 C 550.030 15.100 550.130 15.000 550.030 15.000 H 540.230 C 540.130 15.000 540.230 15.100 540.230 15.000 V 10.100 C 540.230 10.045 540.185 10.000 540.130 10.000 H 530.130 C 530.075 10.000 530.030 10.045 530.030 10.100 V 15.000 C 530.030 15.100 530.130 15.000 530.030 15.000 H 520.230 C 520.130 15.000 520.230 15.100 520.230 15.000 V 10.100 C 520.230 10.045 520.185 10.000 520.130 10.000 H 510.130 C 510.075 10.000 510.030 10.045 510.030 10.100 V 15.000 C 510.030 15.100 510.130 15.000 510.030 15.000 H 500.230 C 500.130 15.000 500.230 15.100 500.230 15.000 V 10.100 C 500.230 10.045 500.185 10.000 500.130 10.000 H 490.130 C 490.075 10.000 490.030 10.045 490.030 10.100 V 15.000 C 490.030 15.100 490.130 15.000 490.030 15.000 H 480.230 C 480.130 15.000 480.230 15.100 480.230 15.000 V 10.100 C 480.230 10.045 480.185 10.000 480.130 10.000 H 466.020 H 461.020 C 460.965 10.000 460.920 10.045 460.920 10.100 V 15.100 V 28.350 C 460.920 28.405 460.965 28.450 461.020 28.450 H 465.920 C 466.020 28.450 465.920 28.350 465.920 28.450 V 38.250 C 465.920 38.350 466.020 38.250 465.920 38.250 H 461.020 C 460.965 38.250 460.920 38.295 460.920 38.350 V 48.350 C 460.920 48.405 460.965 48.450 461.020 48.450 H 465.920 C 466.020 48.450 465.920 48.350 465.920 48.450 V 58.250 C 465.920 58.350 466.020 58.250 465.920 58.250 H 461.020 C 460.965 58.250 460.920 58.295 460.920 58.350 V 68.350 C 460.920 68.405 460.965 68.450 461.020 68.450 H 465.920 C 466.020 68.450 465.920 68.350 465.920 68.450 V 78.250 C 465.920 78.350 466.020 78.250 465.920 78.250 H 461.020 C 460.965 78.250 460.920 78.295 460.920 78.350 V 88.350 C 460.920 88.405 460.965 88.450 461.020 88.450 H 465.920 C 466.020 88.450 465.920 88.350 465.920 88.450 V 98.250 C 465.920 98.350 466.020 98.250 465.920 98.250 H 461.020 C 460.965 98.250 460.920 98.295 460.920 98.350 V 108.350 C 460.920 108.405 460.965 108.450 461.020 108.450 H 465.920 C 466.020 108.450 465.920 108.350 465.920 108.450 V 118.250 C 465.920 118.350 466.020 118.250 465.920 118.250 H 461.020 C 460.965 118.250 460.920 118.295 460.920 118.350 V 128.350 C 460.920 128.405 460.965 128.450 461.020 128.450 H 465.920 C 466.020 128.450 465.920 128.350 465.920 128.450 V 138.250 C 465.920 138.350 466.020 138.250 465.920 138.250 H 461.020 C 460.965 138.250 460.920 138.295 460.920 138.350 V 148.350 C 460.920 148.405 460.965 148.450 461.020 148.450 H 465.920 C 466.020 148.450 465.920 148.350 465.920 148.450 V 158.250 C 465.920 158.350 466.020 158.250 465.920 158.250 H 461.020 C 460.965 158.250 460.920 158.295 460.920 158.350 V 168.350 C 460.920 168.405 460.965 168.450 461.020 168.450 H 465.920 C 466.020 168.450 465.920 168.350 465.920 168.450 V 178.250 C 465.920 178.350 466.020 178.250 465.920 178.250 H 461.020 C 460.965 178.250 460.920 178.295 460.920 178.350 V 188.350 C 460.920 188.405 460.965 188.450 461.020 188.450 H 465.920 C 466.020 188.450 465.920 188.350 465.920 188.450 V 198.250 C 465.920 198.350 466.020 198.250 465.920 198.250 H 461.020 C 460.965 198.250 460.920 198.295 460.920 198.350 V 208.350 C 460.920 208.405 460.965 208.450 461.020 208.450 H 465.920 C 466.020 208.450 465.920 208.350 465.920 208.450 V 218.250 C 465.920 218.350 466.020 218.250 465.920 218.250 H 461.020 C 460.965 218.250 460.920 218.295 460.920 218.350 V 228.350 C 460.920 228.405 460.965 228.450 461.020 228.450 H 465.920 C 466.020 228.450 465.920 228.350 465.920 228.450 V 238.250 C 465.920 238.350 466.020 238.250 465.920 238.250 H 461.020 C 460.965 238.250 460.920 238.295 460.920 238.350 V 248.350 C 460.920 248.405 460.965 248.450 461.020 248.450 H 465.920 C 466.020 248.450 465.920 248.350 465.920 248.450 V 258.250 C 465.920 258.350 466.020 258.250 465.920 258.250 H 461.020 C 460.965 258.250 460.920 258.295 460.920 258.350 V 268.350 C 460.920 268.405 460.965 268.450 461.020 268.450 H 465.920 C 466.020 268.450 465.920 268.350 465.920 268.450 V 278.250 C 465.920 278.350 466.020 278.250 465.920 278.250 H 461.020 C 460.965 278.250 460.920 278.295 460.920 278.350 V 291.600 V 296.600 C 460.920 296.655 460.965 296.700 461.020 296.700 H 466.020" stroke="rgb(0,0,0)" stroke-width="0.20"/>
</g>
</svg>