<?xml version='1.0' encoding='us-ascii'?>
<svg height="653.60mm" viewBox="0.0 0.0 1519.00 653.60" width="1519.00mm" xmlns="http://www.w3.org/2000/svg" xmlns:cc="http://creativecommons.org/ns#" xmlns:dc="http://purl.org/dc/elements/1.1/" xmlns:inkscape="http://www.inkscape.org/namespaces/inkscape" xmlns:rdf="http://www.w3.org/1999/02/22-rdf-syntax-ns#" xmlns:svg="http://www.w3.org/2000/svg" xmlns:xlink="http://www.w3.org/1999/xlink">
<!--
TwoPiece - A two piece box where top slips over the bottom half to form 
       the enclosure.
    

Created with Boxes.py (https://festi.info/boxes.py)
Creation date: 2022-03-31 21:01:21
Command line (remove spaces between dashes): boxes TwoPiece - -FingerJoint_angle=90.0 - -FingerJoint_style=rectangular - -FingerJoint_surroundingspaces=2.0 - -FingerJoint_edge_width=1.0 - -FingerJoint_extra_length=0.0 - -FingerJoint_finger=2.0 - -FingerJoint_play=0.0 - -FingerJoint_space=2.0 - -FingerJoint_width=1.0 - -x=427 - -y=266 - -h=155.0 - -hi=0.0 - -outside=0 - -play=0.15 - -thickness=6.0 - -format=svg - -tabs=0.0 - -debug=0 - -labels=0 - -labels=1 - -reference=100 - -inner_corners=loop - -burn=0.1
Url: http://festi.info/TwoPiece?FingerJoint_angle=90.0&FingerJoint_style=rectangular&FingerJoint_surroundingspaces=2.0&FingerJoint_edge_width=1.0&FingerJoint_extra_length=0.0&FingerJoint_finger=2.0&FingerJoint_play=0.0&FingerJoint_space=2.0&FingerJoint_width=1.0&x=427&y=266&h=155.0&hi=0.0&outside=0&play=0.15&thickness=6.0&format=svg&tabs=0.0&debug=0&labels=0&labels=1&reference=100&inner_corners=loop&burn=0.1&render=1
SettingsUrl: http://festi.info/TwoPiece?FingerJoint_angle=90.0&FingerJoint_style=rectangular&FingerJoint_surroundingspaces=2.0&FingerJoint_edge_width=1.0&FingerJoint_extra_length=0.0&FingerJoint_finger=2.0&FingerJoint_play=0.0&FingerJoint_space=2.0&FingerJoint_width=1.0&x=427&y=266&h=155.0&hi=0.0&outside=0&play=0.15&thickness=6.0&format=svg&tabs=0.0&debug=0&labels=0&labels=1&reference=100&inner_corners=loop&burn=0.1
-->
<title>TwoPiece</title>
<metadata>
<rdf:RDF><cc:Work>
<dc:title>Box - TwoPiece</dc:title>
<dc:date>2022-03-31 21:01:21</dc:date>
<dc:source>http://festi.info/TwoPiece?FingerJoint_angle=90.0&amp;FingerJoint_style=rectangular&amp;FingerJoint_surroundingspaces=2.0&amp;FingerJoint_edge_width=1.0&amp;FingerJoint_extra_length=0.0&amp;FingerJoint_finger=2.0&amp;FingerJoint_play=0.0&amp;FingerJoint_space=2.0&amp;FingerJoint_width=1.0&amp;x=427&amp;y=266&amp;h=155.0&amp;hi=0.0&amp;outside=0&amp;play=0.15&amp;thickness=6.0&amp;format=svg&amp;tabs=0.0&amp;debug=0&amp;labels=0&amp;labels=1&amp;reference=100&amp;inner_corners=loop&amp;burn=0.1&amp;render=1</dc:source>
<dc:description>A two piece box where top slips over the bottom half to form 
       the enclosure.
    

Created with Boxes.py (https://festi.info/boxes.py)
Command line: boxes TwoPiece --FingerJoint_angle=90.0 --FingerJoint_style=rectangular --FingerJoint_surroundingspaces=2.0 --FingerJoint_edge_width=1.0 --FingerJoint_extra_length=0.0 --FingerJoint_finger=2.0 --FingerJoint_play=0.0 --FingerJoint_space=2.0 --FingerJoint_width=1.0 --x=427 --y=266 --h=155.0 --hi=0.0 --outside=0 --play=0.15 --thickness=6.0 --format=svg --tabs=0.0 --debug=0 --labels=0 --labels=1 --reference=100 --inner_corners=loop --burn=0.1
Url: http://festi.info/TwoPiece?FingerJoint_angle=90.0&amp;FingerJoint_style=rectangular&amp;FingerJoint_surroundingspaces=2.0&amp;FingerJoint_edge_width=1.0&amp;FingerJoint_extra_length=0.0&amp;FingerJoint_finger=2.0&amp;FingerJoint_play=0.0&amp;FingerJoint_space=2.0&amp;FingerJoint_width=1.0&amp;x=427&amp;y=266&amp;h=155.0&amp;hi=0.0&amp;outside=0&amp;play=0.15&amp;thickness=6.0&amp;format=svg&amp;tabs=0.0&amp;debug=0&amp;labels=0&amp;labels=1&amp;reference=100&amp;inner_corners=loop&amp;burn=0.1&amp;render=1
SettingsUrl: http://festi.info/TwoPiece?FingerJoint_angle=90.0&amp;FingerJoint_style=rectangular&amp;FingerJoint_surroundingspaces=2.0&amp;FingerJoint_edge_width=1.0&amp;FingerJoint_extra_length=0.0&amp;FingerJoint_finger=2.0&amp;FingerJoint_play=0.0&amp;FingerJoint_space=2.0&amp;FingerJoint_width=1.0&amp;x=427&amp;y=266&amp;h=155.0&amp;hi=0.0&amp;outside=0&amp;play=0.15&amp;thickness=6.0&amp;format=svg&amp;tabs=0.0&amp;debug=0&amp;labels=0&amp;labels=1&amp;reference=100&amp;inner_corners=loop&amp;burn=0.1
</dc:description>
</cc:Work></rdf:RDF></metadata>
<g id="p-0" style="fill:none;stroke-linecap:round;stroke-linejoin:round;">
  <path d="M 10.100 643.600 H 110.100 V 633.600 H 10.100 V 643.600 Z" stroke="rgb(0,0,0)" stroke-width="0.20" />
  <text alignment-baseline="hanging" font-size="10px" style="font-family: sans-serif ; font-weight: normal; font-style: normal; fill: rgb(0,0,0)" text-anchor="middle" transform="matrix( 1.000 0.000 0.000 1.000 60.100 633.600 )">100mm</text>
</g>
<g id="p-1" style="fill:none;stroke-linecap:round;stroke-linejoin:round;">
  <path d="M 16.100 624.400 H 31.500 C 31.600 624.400 31.500 624.300 31.500 624.400 V 630.300 C 31.500 630.355 31.545 630.400 31.600 630.400 H 43.600 C 43.655 630.400 43.700 630.355 43.700 630.300 V 624.400 C 43.700 624.300 43.600 624.400 43.700 624.400 H 55.500 C 55.600 624.400 55.500 624.300 55.500 624.400 V 630.300 C 55.500 630.355 55.545 630.400 55.600 630.400 H 67.600 C 67.655 630.400 67.700 630.355 67.700 630.300 V 624.400 C 67.700 624.300 67.600 624.400 67.700 624.400 H 79.500 C 79.600 624.400 79.500 624.300 79.500 624.400 V 630.300 C 79.500 630.355 79.545 630.400 79.600 630.400 H 91.600 C 91.655 630.400 91.700 630.355 91.700 630.300 V 624.400 C 91.700 624.300 91.600 624.400 91.700 624.400 H 103.500 C 103.600 624.400 103.500 624.300 103.500 624.400 V 630.300 C 103.500 630.355 103.545 630.400 103.600 630.400 H 115.600 C 115.655 630.400 115.700 630.355 115.700 630.300 V 624.400 C 115.700 624.300 115.600 624.400 115.700 624.400 H 127.500 C 127.600 624.400 127.500 624.300 127.500 624.400 V 630.300 C 127.500 630.355 127.545 630.400 127.600 630.400 H 139.600 C 139.655 630.400 139.700 630.355 139.700 630.300 V 624.400 C 139.700 624.300 139.600 624.400 139.700 624.400 H 151.500 C 151.600 624.400 151.500 624.300 151.500 624.400 V 630.300 C 151.500 630.355 151.545 630.400 151.600 630.400 H 163.600 C 163.655 630.400 163.700 630.355 163.700 630.300 V 624.400 C 163.700 624.300 163.600 624.400 163.700 624.400 H 175.500 C 175.600 624.400 175.500 624.300 175.500 624.400 V 630.300 C 175.500 630.355 175.545 630.400 175.600 630.400 H 187.600 C 187.655 630.400 187.700 630.355 187.700 630.300 V 624.400 C 187.700 624.300 187.600 624.400 187.700 624.400 H 199.500 C 199.600 624.400 199.500 624.300 199.500 624.400 V 630.300 C 199.500 630.355 199.545 630.400 199.600 630.400 H 211.600 C 211.655 630.400 211.700 630.355 211.700 630.300 V 624.400 C 211.700 624.300 211.600 624.400 211.700 624.400 H 223.500 C 223.600 624.400 223.500 624.300 223.500 624.400 V 630.300 C 223.500 630.355 223.545 630.400 223.600 630.400 H 235.600 C 235.655 630.400 235.700 630.355 235.700 630.300 V 624.400 C 235.700 624.300 235.600 624.400 235.700 624.400 H 247.500 C 247.600 624.400 247.500 624.300 247.500 624.400 V 630.300 C 247.500 630.355 247.545 630.400 247.600 630.400 H 259.600 C 259.655 630.400 259.700 630.355 259.700 630.300 V 624.400 C 259.700 624.300 259.600 624.400 259.700 624.400 H 271.500 C 271.600 624.400 271.500 624.300 271.500 624.400 V 630.300 C 271.500 630.355 271.545 630.400 271.600 630.400 H 283.600 C 283.655 630.400 283.700 630.355 283.700 630.300 V 624.400 C 283.700 624.300 283.600 624.400 283.700 624.400 H 295.500 C 295.600 624.400 295.500 624.300 295.500 624.400 V 630.300 C 295.500 630.355 295.545 630.400 295.600 630.400 H 307.600 C 307.655 630.400 307.700 630.355 307.700 630.300 V 624.400 C 307.700 624.300 307.600 624.400 307.700 624.400 H 319.500 C 319.600 624.400 319.500 624.300 319.500 624.400 V 630.300 C 319.500 630.355 319.545 630.400 319.600 630.400 H 331.600 C 331.655 630.400 331.700 630.355 331.700 630.300 V 624.400 C 331.700 624.300 331.600 624.400 331.700 624.400 H 343.500 C 343.600 624.400 343.500 624.300 343.500 624.400 V 630.300 C 343.500 630.355 343.545 630.400 343.600 630.400 H 355.600 C 355.655 630.400 355.700 630.355 355.700 630.300 V 624.400 C 355.700 624.300 355.600 624.400 355.700 624.400 H 367.500 C 367.600 624.400 367.500 624.300 367.500 624.400 V 630.300 C 367.500 630.355 367.545 630.400 367.600 630.400 H 379.600 C 379.655 630.400 379.700 630.355 379.700 630.300 V 624.400 C 379.700 624.300 379.600 624.400 379.700 624.400 H 391.500 C 391.600 624.400 391.500 624.300 391.500 624.400 V 630.300 C 391.500 630.355 391.545 630.400 391.600 630.400 H 403.600 C 403.655 630.400 403.700 630.355 403.700 630.300 V 624.400 C 403.700 624.300 403.600 624.400 403.700 624.400 H 415.500 C 415.600 624.400 415.500 624.300 415.500 624.400 V 630.300 C 415.500 630.355 415.545 630.400 415.600 630.400 H 427.600 C 427.655 630.400 427.700 630.355 427.700 630.300 V 624.400 C 427.700 624.300 427.600 624.400 427.700 624.400 H 443.100 H 449.100 C 449.155 624.400 449.200 624.355 449.200 624.300 V 600.800 C 449.200 600.745 449.155 600.700 449.100 600.700 H 443.200 C 443.100 600.700 443.200 600.800 443.200 600.700 V 588.900 C 443.200 588.800 443.100 588.900 443.200 588.900 H 449.100 C 449.155 588.900 449.200 588.855 449.200 588.800 V 576.800 C 449.200 576.745 449.155 576.700 449.100 576.700 H 443.200 C 443.100 576.700 443.200 576.800 443.200 576.700 V 564.900 C 443.200 564.800 443.100 564.900 443.200 564.900 H 449.100 C 449.155 564.900 449.200 564.855 449.200 564.800 V 552.800 C 449.200 552.745 449.155 552.700 449.100 552.700 H 443.200 C 443.100 552.700 443.200 552.800 443.200 552.700 V 540.900 C 443.200 540.800 443.100 540.900 443.200 540.900 H 449.100 C 449.155 540.900 449.200 540.855 449.200 540.800 V 528.800 C 449.200 528.745 449.155 528.700 449.100 528.700 H 443.200 C 443.100 528.700 443.200 528.800 443.200 528.700 V 516.900 C 443.200 516.800 443.100 516.900 443.200 516.900 H 449.100 C 449.155 516.900 449.200 516.855 449.200 516.800 V 504.800 C 449.200 504.745 449.155 504.700 449.100 504.700 H 443.200 C 443.100 504.700 443.200 504.800 443.200 504.700 V 492.900 C 443.200 492.800 443.100 492.900 443.200 492.900 H 449.100 C 449.155 492.900 449.200 492.855 449.200 492.800 V 469.300 C 449.200 469.245 449.155 469.200 449.100 469.200 H 443.100 H 16.100 H 10.100 C 10.045 469.200 10.000 469.245 10.000 469.300 V 492.800 C 10.000 492.855 10.045 492.900 10.100 492.900 H 16.000 C 16.100 492.900 16.000 492.800 16.000 492.900 V 504.700 C 16.000 504.800 16.100 504.700 16.000 504.700 H 10.100 C 10.045 504.700 10.000 504.745 10.000 504.800 V 516.800 C 10.000 516.855 10.045 516.900 10.100 516.900 H 16.000 C 16.100 516.900 16.000 516.800 16.000 516.900 V 528.700 C 16.000 528.800 16.100 528.700 16.000 528.700 H 10.100 C 10.045 528.700 10.000 528.745 10.000 528.800 V 540.800 C 10.000 540.855 10.045 540.900 10.100 540.900 H 16.000 C 16.100 540.900 16.000 540.800 16.000 540.900 V 552.700 C 16.000 552.800 16.100 552.700 16.000 552.700 H 10.100 C 10.045 552.700 10.000 552.745 10.000 552.800 V 564.800 C 10.000 564.855 10.045 564.900 10.100 564.900 H 16.000 C 16.100 564.900 16.000 564.800 16.000 564.900 V 576.700 C 16.000 576.800 16.100 576.700 16.000 576.700 H 10.100 C 10.045 576.700 10.000 576.745 10.000 576.800 V 588.800 C 10.000 588.855 10.045 588.900 10.100 588.900 H 16.000 C 16.100 588.900 16.000 588.800 16.000 588.900 V 600.700 C 16.000 600.800 16.100 600.700 16.000 600.700 H 10.100 C 10.045 600.700 10.000 600.745 10.000 600.800 V 624.300 C 10.000 624.355 10.045 624.400 10.100 624.400 H 16.100 Z" stroke="rgb(0,0,0)" stroke-width="0.20" />
</g>
<g id="p-2" style="fill:none;stroke-linecap:round;stroke-linejoin:round;">
  <path d="M 458.300 624.400 H 477.200 C 477.300 624.400 477.200 624.300 477.200 624.400 V 630.300 C 477.200 630.355 477.245 630.400 477.300 630.400 H 489.300 C 489.355 630.400 489.400 630.355 489.400 630.300 V 624.400 C 489.400 624.300 489.300 624.400 489.400 624.400 H 501.200 C 501.300 624.400 501.200 624.300 501.200 624.400 V 630.300 C 501.200 630.355 501.245 630.400 501.300 630.400 H 513.300 C 513.355 630.400 513.400 630.355 513.400 630.300 V 624.400 C 513.400 624.300 513.300 624.400 513.400 624.400 H 525.200 C 525.300 624.400 525.200 624.300 525.200 624.400 V 630.300 C 525.200 630.355 525.245 630.400 525.300 630.400 H 537.300 C 537.355 630.400 537.400 630.355 537.400 630.300 V 624.400 C 537.400 624.300 537.300 624.400 537.400 624.400 H 549.200 C 549.300 624.400 549.200 624.300 549.200 624.400 V 630.300 C 549.200 630.355 549.245 630.400 549.300 630.400 H 561.300 C 561.355 630.400 561.400 630.355 561.400 630.300 V 624.400 C 561.400 624.300 561.300 624.400 561.400 624.400 H 573.200 C 573.300 624.400 573.200 624.300 573.200 624.400 V 630.300 C 573.200 630.355 573.245 630.400 573.300 630.400 H 585.300 C 585.355 630.400 585.400 630.355 585.400 630.300 V 624.400 C 585.400 624.300 585.300 624.400 585.400 624.400 H 597.200 C 597.300 624.400 597.200 624.300 597.200 624.400 V 630.300 C 597.200 630.355 597.245 630.400 597.300 630.400 H 609.300 C 609.355 630.400 609.400 630.355 609.400 630.300 V 624.400 C 609.400 624.300 609.300 624.400 609.400 624.400 H 621.200 C 621.300 624.400 621.200 624.300 621.200 624.400 V 630.300 C 621.200 630.355 621.245 630.400 621.300 630.400 H 633.300 C 633.355 630.400 633.400 630.355 633.400 630.300 V 624.400 C 633.400 624.300 633.300 624.400 633.400 624.400 H 645.200 C 645.300 624.400 645.200 624.300 645.200 624.400 V 630.300 C 645.200 630.355 645.245 630.400 645.300 630.400 H 657.300 C 657.355 630.400 657.400 630.355 657.400 630.300 V 624.400 C 657.400 624.300 657.300 624.400 657.400 624.400 H 669.200 C 669.300 624.400 669.200 624.300 669.200 624.400 V 630.300 C 669.200 630.355 669.245 630.400 669.300 630.400 H 681.300 C 681.355 630.400 681.400 630.355 681.400 630.300 V 624.400 C 681.400 624.300 681.300 624.400 681.400 624.400 H 693.200 C 693.300 624.400 693.200 624.300 693.200 624.400 V 630.300 C 693.200 630.355 693.245 630.400 693.300 630.400 H 705.300 C 705.355 630.400 705.400 630.355 705.400 630.300 V 624.400 C 705.400 624.300 705.300 624.400 705.400 624.400 H 724.300 C 724.355 624.400 724.400 624.355 724.400 624.300 V 600.900 C 724.400 600.800 724.300 600.900 724.400 600.900 H 730.300 C 730.355 600.900 730.400 600.855 730.400 600.800 V 588.800 C 730.400 588.745 730.355 588.700 730.300 588.700 H 724.400 C 724.300 588.700 724.400 588.800 724.400 588.700 V 576.900 C 724.400 576.800 724.300 576.900 724.400 576.900 H 730.300 C 730.355 576.900 730.400 576.855 730.400 576.800 V 564.800 C 730.400 564.745 730.355 564.700 730.300 564.700 H 724.400 C 724.300 564.700 724.400 564.800 724.400 564.700 V 552.900 C 724.400 552.800 724.300 552.900 724.400 552.900 H 730.300 C 730.355 552.900 730.400 552.855 730.400 552.800 V 540.800 C 730.400 540.745 730.355 540.700 730.300 540.700 H 724.400 C 724.300 540.700 724.400 540.800 724.400 540.700 V 528.900 C 724.400 528.800 724.300 528.900 724.400 528.900 H 730.300 C 730.355 528.900 730.400 528.855 730.400 528.800 V 516.800 C 730.400 516.745 730.355 516.700 730.300 516.700 H 724.400 C 724.300 516.700 724.400 516.800 724.400 516.700 V 504.900 C 724.400 504.800 724.300 504.900 724.400 504.900 H 730.300 C 730.355 504.900 730.400 504.855 730.400 504.800 V 492.800 C 730.400 492.745 730.355 492.700 730.300 492.700 H 724.400 C 724.300 492.700 724.400 492.800 724.400 492.700 V 469.300 C 724.400 469.245 724.355 469.200 724.300 469.200 H 458.300 C 458.245 469.200 458.200 469.245 458.200 469.300 V 492.700 C 458.200 492.800 458.300 492.700 458.200 492.700 H 452.300 C 452.245 492.700 452.200 492.745 452.200 492.800 V 504.800 C 452.200 504.855 452.245 504.900 452.300 504.900 H 458.200 C 458.300 504.900 458.200 504.800 458.200 504.900 V 516.700 C 458.200 516.800 458.300 516.700 458.200 516.700 H 452.300 C 452.245 516.700 452.200 516.745 452.200 516.800 V 528.800 C 452.200 528.855 452.245 528.900 452.300 528.900 H 458.200 C 458.300 528.900 458.200 528.800 458.200 528.900 V 540.700 C 458.200 540.800 458.300 540.700 458.200 540.700 H 452.300 C 452.245 540.700 452.200 540.745 452.200 540.800 V 552.800 C 452.200 552.855 452.245 552.900 452.300 552.900 H 458.200 C 458.300 552.900 458.200 552.800 458.200 552.900 V 564.700 C 458.200 564.800 458.300 564.700 458.200 564.700 H 452.300 C 452.245 564.700 452.200 564.745 452.200 564.800 V 576.800 C 452.200 576.855 452.245 576.900 452.300 576.900 H 458.200 C 458.300 576.900 458.200 576.800 458.200 576.900 V 588.700 C 458.200 588.800 458.300 588.700 458.200 588.700 H 452.300 C 452.245 588.700 452.200 588.745 452.200 588.800 V 600.800 C 452.200 600.855 452.245 600.900 452.300 600.900 H 458.200 C 458.300 600.900 458.200 600.800 458.200 600.900 V 624.300 C 458.200 624.355 458.245 624.400 458.300 624.400 Z" stroke="rgb(0,0,0)" stroke-width="0.20" />
</g>
<g id="p-3" style="fill:none;stroke-linecap:round;stroke-linejoin:round;">
  <path d="M 739.500 624.400 H 754.900 C 755.000 624.400 754.900 624.300 754.900 624.400 V 630.300 C 754.900 630.355 754.945 630.400 755.000 630.400 H 767.000 C 767.055 630.400 767.100 630.355 767.100 630.300 V 624.400 C 767.100 624.300 767.000 624.400 767.100 624.400 H 778.900 C 779.000 624.400 778.900 624.300 778.900 624.400 V 630.300 C 778.900 630.355 778.945 630.400 779.000 630.400 H 791.000 C 791.055 630.400 791.100 630.355 791.100 630.300 V 624.400 C 791.100 624.300 791.000 624.400 791.100 624.400 H 802.900 C 803.000 624.400 802.900 624.300 802.900 624.400 V 630.300 C 802.900 630.355 802.945 630.400 803.000 630.400 H 815.000 C 815.055 630.400 815.100 630.355 815.100 630.300 V 624.400 C 815.100 624.300 815.000 624.400 815.100 624.400 H 826.900 C 827.000 624.400 826.900 624.300 826.900 624.400 V 630.300 C 826.900 630.355 826.945 630.400 827.000 630.400 H 839.000 C 839.055 630.400 839.100 630.355 839.100 630.300 V 624.400 C 839.100 624.300 839.000 624.400 839.100 624.400 H 850.900 C 851.000 624.400 850.900 624.300 850.900 624.400 V 630.300 C 850.900 630.355 850.945 630.400 851.000 630.400 H 863.000 C 863.055 630.400 863.100 630.355 863.100 630.300 V 624.400 C 863.100 624.300 863.000 624.400 863.100 624.400 H 874.900 C 875.000 624.400 874.900 624.300 874.900 624.400 V 630.300 C 874.900 630.355 874.945 630.400 875.000 630.400 H 887.000 C 887.055 630.400 887.100 630.355 887.100 630.300 V 624.400 C 887.100 624.300 887.000 624.400 887.100 624.400 H 898.900 C 899.000 624.400 898.900 624.300 898.900 624.400 V 630.300 C 898.900 630.355 898.945 630.400 899.000 630.400 H 911.000 C 911.055 630.400 911.100 630.355 911.100 630.300 V 624.400 C 911.100 624.300 911.000 624.400 911.100 624.400 H 922.900 C 923.000 624.400 922.900 624.300 922.900 624.400 V 630.300 C 922.900 630.355 922.945 630.400 923.000 630.400 H 935.000 C 935.055 630.400 935.100 630.355 935.100 630.300 V 624.400 C 935.100 624.300 935.000 624.400 935.100 624.400 H 946.900 C 947.000 624.400 946.900 624.300 946.900 624.400 V 630.300 C 946.900 630.355 946.945 630.400 947.000 630.400 H 959.000 C 959.055 630.400 959.100 630.355 959.100 630.300 V 624.400 C 959.100 624.300 959.000 624.400 959.100 624.400 H 970.900 C 971.000 624.400 970.900 624.300 970.900 624.400 V 630.300 C 970.900 630.355 970.945 630.400 971.000 630.400 H 983.000 C 983.055 630.400 983.100 630.355 983.100 630.300 V 624.400 C 983.100 624.300 983.000 624.400 983.100 624.400 H 994.900 C 995.000 624.400 994.900 624.300 994.900 624.400 V 630.300 C 994.900 630.355 994.945 630.400 995.000 630.400 H 1007.000 C 1007.055 630.400 1007.100 630.355 1007.100 630.300 V 624.400 C 1007.100 624.300 1007.000 624.400 1007.100 624.400 H 1018.900 C 1019.000 624.400 1018.900 624.300 1018.900 624.400 V 630.300 C 1018.900 630.355 1018.945 630.400 1019.000 630.400 H 1031.000 C 1031.055 630.400 1031.100 630.355 1031.100 630.300 V 624.400 C 1031.100 624.300 1031.000 624.400 1031.100 624.400 H 1042.900 C 1043.000 624.400 1042.900 624.300 1042.900 624.400 V 630.300 C 1042.900 630.355 1042.945 630.400 1043.000 630.400 H 1055.000 C 1055.055 630.400 1055.100 630.355 1055.100 630.300 V 624.400 C 1055.100 624.300 1055.000 624.400 1055.100 624.400 H 1066.900 C 1067.000 624.400 1066.900 624.300 1066.900 624.400 V 630.300 C 1066.900 630.355 1066.945 630.400 1067.000 630.400 H 1079.000 C 1079.055 630.400 1079.100 630.355 1079.100 630.300 V 624.400 C 1079.100 624.300 1079.000 624.400 1079.100 624.400 H 1090.900 C 1091.000 624.400 1090.900 624.300 1090.900 624.400 V 630.300 C 1090.900 630.355 1090.945 630.400 1091.000 630.400 H 1103.000 C 1103.055 630.400 1103.100 630.355 1103.100 630.300 V 624.400 C 1103.100 624.300 1103.000 624.400 1103.100 624.400 H 1114.900 C 1115.000 624.400 1114.900 624.300 1114.900 624.400 V 630.300 C 1114.900 630.355 1114.945 630.400 1115.000 630.400 H 1127.000 C 1127.055 630.400 1127.100 630.355 1127.100 630.300 V 624.400 C 1127.100 624.300 1127.000 624.400 1127.100 624.400 H 1138.900 C 1139.000 624.400 1138.900 624.300 1138.900 624.400 V 630.300 C 1138.900 630.355 1138.945 630.400 1139.000 630.400 H 1151.000 C 1151.055 630.400 1151.100 630.355 1151.100 630.300 V 624.400 C 1151.100 624.300 1151.000 624.400 1151.100 624.400 H 1166.500 H 1172.500 C 1172.555 624.400 1172.600 624.355 1172.600 624.300 V 600.800 C 1172.600 600.745 1172.555 600.700 1172.500 600.700 H 1166.600 C 1166.500 600.700 1166.600 600.800 1166.600 600.700 V 588.900 C 1166.600 588.800 1166.500 588.900 1166.600 588.900 H 1172.500 C 1172.555 588.900 1172.600 588.855 1172.600 588.800 V 576.800 C 1172.600 576.745 1172.555 576.700 1172.500 576.700 H 1166.600 C 1166.500 576.700 1166.600 576.800 1166.600 576.700 V 564.900 C 1166.600 564.800 1166.500 564.900 1166.600 564.900 H 1172.500 C 1172.555 564.900 1172.600 564.855 1172.600 564.800 V 552.800 C 1172.600 552.745 1172.555 552.700 1172.500 552.700 H 1166.600 C 1166.500 552.700 1166.600 552.800 1166.600 552.700 V 540.900 C 1166.600 540.800 1166.500 540.900 1166.600 540.900 H 1172.500 C 1172.555 540.900 1172.600 540.855 1172.600 540.800 V 528.800 C 1172.600 528.745 1172.555 528.700 1172.500 528.700 H 1166.600 C 1166.500 528.700 1166.600 528.800 1166.600 528.700 V 516.900 C 1166.600 516.800 1166.500 516.900 1166.600 516.900 H 1172.500 C 1172.555 516.900 1172.600 516.855 1172.600 516.800 V 504.800 C 1172.600 504.745 1172.555 504.700 1172.500 504.700 H 1166.600 C 1166.500 504.700 1166.600 504.800 1166.600 504.700 V 492.900 C 1166.600 492.800 1166.500 492.900 1166.600 492.900 H 1172.500 C 1172.555 492.900 1172.600 492.855 1172.600 492.800 V 469.300 C 1172.600 469.245 1172.555 469.200 1172.500 469.200 H 1166.500 H 739.500 H 733.500 C 733.445 469.200 733.400 469.245 733.400 469.300 V 492.800 C 733.400 492.855 733.445 492.900 733.500 492.900 H 739.400 C 739.500 492.900 739.400 492.800 739.400 492.900 V 504.700 C 739.400 504.800 739.500 504.700 739.400 504.700 H 733.500 C 733.445 504.700 733.400 504.745 733.400 504.800 V 516.800 C 733.400 516.855 733.445 516.900 733.500 516.900 H 739.400 C 739.500 516.900 739.400 516.800 739.400 516.900 V 528.700 C 739.400 528.800 739.500 528.700 739.400 528.700 H 733.500 C 733.445 528.700 733.400 528.745 733.400 528.800 V 540.800 C 733.400 540.855 733.445 540.900 733.500 540.900 H 739.400 C 739.500 540.900 739.400 540.800 739.400 540.900 V 552.700 C 739.400 552.800 739.500 552.700 739.400 552.700 H 733.500 C 733.445 552.700 733.400 552.745 733.400 552.800 V 564.800 C 733.400 564.855 733.445 564.900 733.500 564.900 H 739.400 C 739.500 564.900 739.400 564.800 739.400 564.900 V 576.700 C 739.400 576.800 739.500 576.700 739.400 576.700 H 733.500 C 733.445 576.700 733.400 576.745 733.400 576.800 V 588.800 C 733.400 588.855 733.445 588.900 733.500 588.900 H 739.400 C 739.500 588.900 739.400 588.800 739.400 588.900 V 600.700 C 739.400 600.800 739.500 600.700 739.400 600.700 H 733.500 C 733.445 600.700 733.400 600.745 733.400 600.800 V 624.300 C 733.400 624.355 733.445 624.400 733.500 624.400 H 739.500 Z" stroke="rgb(0,0,0)" stroke-width="0.20" />
</g>
<g id="p-4" style="fill:none;stroke-linecap:round;stroke-linejoin:round;">
  <path d="M 1181.700 624.400 H 1200.600 C 1200.700 624.400 1200.600 624.300 1200.600 624.400 V 630.300 C 1200.600 630.355 1200.645 630.400 1200.700 630.400 H 1212.700 C 1212.755 630.400 1212.800 630.355 1212.800 630.300 V 624.400 C 1212.800 624.300 1212.700 624.400 1212.800 624.400 H 1224.600 C 1224.700 624.400 1224.600 624.300 1224.600 624.400 V 630.300 C 1224.600 630.355 1224.645 630.400 1224.700 630.400 H 1236.700 C 1236.755 630.400 1236.800 630.355 1236.800 630.300 V 624.400 C 1236.800 624.300 1236.700 624.400 1236.800 624.400 H 1248.600 C 1248.700 624.400 1248.600 624.300 1248.600 624.400 V 630.300 C 1248.600 630.355 1248.645 630.400 1248.700 630.400 H 1260.700 C 1260.755 630.400 1260.800 630.355 1260.800 630.300 V 624.400 C 1260.800 624.300 1260.700 624.400 1260.800 624.400 H 1272.600 C 1272.700 624.400 1272.600 624.300 1272.600 624.400 V 630.300 C 1272.600 630.355 1272.645 630.400 1272.700 630.400 H 1284.700 C 1284.755 630.400 1284.800 630.355 1284.800 630.300 V 624.400 C 1284.800 624.300 1284.700 624.400 1284.800 624.400 H 1296.600 C 1296.700 624.400 1296.600 624.300 1296.600 624.400 V 630.300 C 1296.600 630.355 1296.645 630.400 1296.700 630.400 H 1308.700 C 1308.755 630.400 1308.800 630.355 1308.800 630.300 V 624.400 C 1308.800 624.300 1308.700 624.400 1308.800 624.400 H 1320.600 C 1320.700 624.400 1320.600 624.300 1320.600 624.400 V 630.300 C 1320.600 630.355 1320.645 630.400 1320.700 630.400 H 1332.700 C 1332.755 630.400 1332.800 630.355 1332.800 630.300 V 624.400 C 1332.800 624.300 1332.700 624.400 1332.800 624.400 H 1344.600 C 1344.700 624.400 1344.600 624.300 1344.600 624.400 V 630.300 C 1344.600 630.355 1344.645 630.400 1344.700 630.400 H 1356.700 C 1356.755 630.400 1356.800 630.355 1356.800 630.300 V 624.400 C 1356.800 624.300 1356.700 624.400 1356.800 624.400 H 1368.600 C 1368.700 624.400 1368.600 624.300 1368.600 624.400 V 630.300 C 1368.600 630.355 1368.645 630.400 1368.700 630.400 H 1380.700 C 1380.755 630.400 1380.800 630.355 1380.800 630.300 V 624.400 C 1380.800 624.300 1380.700 624.400 1380.800 624.400 H 1392.600 C 1392.700 624.400 1392.600 624.300 1392.600 624.400 V 630.300 C 1392.600 630.355 1392.645 630.400 1392.700 630.400 H 1404.700 C 1404.755 630.400 1404.800 630.355 1404.800 630.300 V 624.400 C 1404.800 624.300 1404.700 624.400 1404.800 624.400 H 1416.600 C 1416.700 624.400 1416.600 624.300 1416.600 624.400 V 630.300 C 1416.600 630.355 1416.645 630.400 1416.700 630.400 H 1428.700 C 1428.755 630.400 1428.800 630.355 1428.800 630.300 V 624.400 C 1428.800 624.300 1428.700 624.400 1428.800 624.400 H 1447.700 C 1447.755 624.400 1447.800 624.355 1447.800 624.300 V 600.900 C 1447.800 600.800 1447.700 600.900 1447.800 600.900 H 1453.700 C 1453.755 600.900 1453.800 600.855 1453.800 600.800 V 588.800 C 1453.800 588.745 1453.755 588.700 1453.700 588.700 H 1447.800 C 1447.700 588.700 1447.800 588.800 1447.800 588.700 V 576.900 C 1447.800 576.800 1447.700 576.900 1447.800 576.900 H 1453.700 C 1453.755 576.900 1453.800 576.855 1453.800 576.800 V 564.800 C 1453.800 564.745 1453.755 564.700 1453.700 564.700 H 1447.800 C 1447.700 564.700 1447.800 564.800 1447.800 564.700 V 552.900 C 1447.800 552.800 1447.700 552.900 1447.800 552.900 H 1453.700 C 1453.755 552.900 1453.800 552.855 1453.800 552.800 V 540.800 C 1453.800 540.745 1453.755 540.700 1453.700 540.700 H 1447.800 C 1447.700 540.700 1447.800 540.800 1447.800 540.700 V 528.900 C 1447.800 528.800 1447.700 528.900 1447.800 528.900 H 1453.700 C 1453.755 528.900 1453.800 528.855 1453.800 528.800 V 516.800 C 1453.800 516.745 1453.755 516.700 1453.700 516.700 H 1447.800 C 1447.700 516.700 1447.800 516.800 1447.800 516.700 V 504.900 C 1447.800 504.800 1447.700 504.900 1447.800 504.900 H 1453.700 C 1453.755 504.900 1453.800 504.855 1453.800 504.800 V 492.800 C 1453.800 492.745 1453.755 492.700 1453.700 492.700 H 1447.800 C 1447.700 492.700 1447.800 492.800 1447.800 492.700 V 469.300 C 1447.800 469.245 1447.755 469.200 1447.700 469.200 H 1181.700 C 1181.645 469.200 1181.600 469.245 1181.600 469.300 V 492.700 C 1181.600 492.800 1181.700 492.700 1181.600 492.700 H 1175.700 C 1175.645 492.700 1175.600 492.745 1175.600 492.800 V 504.800 C 1175.600 504.855 1175.645 504.900 1175.700 504.900 H 1181.600 C 1181.700 504.900 1181.600 504.800 1181.600 504.900 V 516.700 C 1181.600 516.800 1181.700 516.700 1181.600 516.700 H 1175.700 C 1175.645 516.700 1175.600 516.745 1175.600 516.800 V 528.800 C 1175.600 528.855 1175.645 528.900 1175.700 528.900 H 1181.600 C 1181.700 528.900 1181.600 528.800 1181.600 528.900 V 540.700 C 1181.600 540.800 1181.700 540.700 1181.600 540.700 H 1175.700 C 1175.645 540.700 1175.600 540.745 1175.600 540.800 V 552.800 C 1175.600 552.855 1175.645 552.900 1175.700 552.900 H 1181.600 C 1181.700 552.900 1181.600 552.800 1181.600 552.900 V 564.700 C 1181.600 564.800 1181.700 564.700 1181.600 564.700 H 1175.700 C 1175.645 564.700 1175.600 564.745 1175.600 564.800 V 576.800 C 1175.600 576.855 1175.645 576.900 1175.700 576.900 H 1181.600 C 1181.700 576.900 1181.600 576.800 1181.600 576.900 V 588.700 C 1181.600 588.800 1181.700 588.700 1181.600 588.700 H 1175.700 C 1175.645 588.700 1175.600 588.745 1175.600 588.800 V 600.800 C 1175.600 600.855 1175.645 600.900 1175.700 600.900 H 1181.600 C 1181.700 600.900 1181.600 600.800 1181.600 600.900 V 624.300 C 1181.600 624.355 1181.645 624.400 1181.700 624.400 Z" stroke="rgb(0,0,0)" stroke-width="0.20" />
</g>
<g id="p-5" style="fill:none;stroke-linecap:round;stroke-linejoin:round;">
  <path d="M 16.100 460.200 H 38.400 C 38.500 460.200 38.400 460.100 38.400 460.200 V 466.100 C 38.400 466.155 38.445 466.200 38.500 466.200 H 50.500 C 50.555 466.200 50.600 466.155 50.600 466.100 V 460.200 C 50.600 460.100 50.500 460.200 50.600 460.200 H 62.400 C 62.500 460.200 62.400 460.100 62.400 460.200 V 466.100 C 62.400 466.155 62.445 466.200 62.500 466.200 H 74.500 C 74.555 466.200 74.600 466.155 74.600 466.100 V 460.200 C 74.600 460.100 74.500 460.200 74.600 460.200 H 86.400 C 86.500 460.200 86.400 460.100 86.400 460.200 V 466.100 C 86.400 466.155 86.445 466.200 86.500 466.200 H 98.500 C 98.555 466.200 98.600 466.155 98.600 466.100 V 460.200 C 98.600 460.100 98.500 460.200 98.600 460.200 H 110.400 C 110.500 460.200 110.400 460.100 110.400 460.200 V 466.100 C 110.400 466.155 110.445 466.200 110.500 466.200 H 122.500 C 122.555 466.200 122.600 466.155 122.600 466.100 V 460.200 C 122.600 460.100 122.500 460.200 122.600 460.200 H 134.400 C 134.500 460.200 134.400 460.100 134.400 460.200 V 466.100 C 134.400 466.155 134.445 466.200 134.500 466.200 H 146.500 C 146.555 466.200 146.600 466.155 146.600 466.100 V 460.200 C 146.600 460.100 146.500 460.200 146.600 460.200 H 158.400 C 158.500 460.200 158.400 460.100 158.400 460.200 V 466.100 C 158.400 466.155 158.445 466.200 158.500 466.200 H 170.500 C 170.555 466.200 170.600 466.155 170.600 466.100 V 460.200 C 170.600 460.100 170.500 460.200 170.600 460.200 H 182.400 C 182.500 460.200 182.400 460.100 182.400 460.200 V 466.100 C 182.400 466.155 182.445 466.200 182.500 466.200 H 194.500 C 194.555 466.200 194.600 466.155 194.600 466.100 V 460.200 C 194.600 460.100 194.500 460.200 194.600 460.200 H 206.400 C 206.500 460.200 206.400 460.100 206.400 460.200 V 466.100 C 206.400 466.155 206.445 466.200 206.500 466.200 H 218.500 C 218.555 466.200 218.600 466.155 218.600 466.100 V 460.200 C 218.600 460.100 218.500 460.200 218.600 460.200 H 230.400 C 230.500 460.200 230.400 460.100 230.400 460.200 V 466.100 C 230.400 466.155 230.445 466.200 230.500 466.200 H 242.500 C 242.555 466.200 242.600 466.155 242.600 466.100 V 460.200 C 242.600 460.100 242.500 460.200 242.600 460.200 H 254.400 C 254.500 460.200 254.400 460.100 254.400 460.200 V 466.100 C 254.400 466.155 254.445 466.200 254.500 466.200 H 266.500 C 266.555 466.200 266.600 466.155 266.600 466.100 V 460.200 C 266.600 460.100 266.500 460.200 266.600 460.200 H 278.400 C 278.500 460.200 278.400 460.100 278.400 460.200 V 466.100 C 278.400 466.155 278.445 466.200 278.500 466.200 H 290.500 C 290.555 466.200 290.600 466.155 290.600 466.100 V 460.200 C 290.600 460.100 290.500 460.200 290.600 460.200 H 302.400 C 302.500 460.200 302.400 460.100 302.400 460.200 V 466.100 C 302.400 466.155 302.445 466.200 302.500 466.200 H 314.500 C 314.555 466.200 314.600 466.155 314.600 466.100 V 460.200 C 314.600 460.100 314.500 460.200 314.600 460.200 H 326.400 C 326.500 460.200 326.400 460.100 326.400 460.200 V 466.100 C 326.400 466.155 326.445 466.200 326.500 466.200 H 338.500 C 338.555 466.200 338.600 466.155 338.600 466.100 V 460.200 C 338.600 460.100 338.500 460.200 338.600 460.200 H 350.400 C 350.500 460.200 350.400 460.100 350.400 460.200 V 466.100 C 350.400 466.155 350.445 466.200 350.500 466.200 H 362.500 C 362.555 466.200 362.600 466.155 362.600 466.100 V 460.200 C 362.600 460.100 362.500 460.200 362.600 460.200 H 374.400 C 374.500 460.200 374.400 460.100 374.400 460.200 V 466.100 C 374.400 466.155 374.445 466.200 374.500 466.200 H 386.500 C 386.555 466.200 386.600 466.155 386.600 466.100 V 460.200 C 386.600 460.100 386.500 460.200 386.600 460.200 H 398.400 C 398.500 460.200 398.400 460.100 398.400 460.200 V 466.100 C 398.400 466.155 398.445 466.200 398.500 466.200 H 410.500 C 410.555 466.200 410.600 466.155 410.600 466.100 V 460.200 C 410.600 460.100 410.500 460.200 410.600 460.200 H 422.400 C 422.500 460.200 422.400 460.100 422.400 460.200 V 466.100 C 422.400 466.155 422.445 466.200 422.500 466.200 H 434.500 C 434.555 466.200 434.600 466.155 434.600 466.100 V 460.200 C 434.600 460.100 434.500 460.200 434.600 460.200 H 456.900 H 462.900 C 462.955 460.200 463.000 460.155 463.000 460.100 V 436.600 C 463.000 436.545 462.955 436.500 462.900 436.500 H 457.000 C 456.900 436.500 457.000 436.600 457.000 436.500 V 424.700 C 457.000 424.600 456.900 424.700 457.000 424.700 H 462.900 C 462.955 424.700 463.000 424.655 463.000 424.600 V 412.600 C 463.000 412.545 462.955 412.500 462.900 412.500 H 457.000 C 456.900 412.500 457.000 412.600 457.000 412.500 V 400.700 C 457.000 400.600 456.900 400.700 457.000 400.700 H 462.900 C 462.955 400.700 463.000 400.655 463.000 400.600 V 388.600 C 463.000 388.545 462.955 388.500 462.900 388.500 H 457.000 C 456.900 388.500 457.000 388.600 457.000 388.500 V 376.700 C 457.000 376.600 456.900 376.700 457.000 376.700 H 462.900 C 462.955 376.700 463.000 376.655 463.000 376.600 V 364.600 C 463.000 364.545 462.955 364.500 462.900 364.500 H 457.000 C 456.900 364.500 457.000 364.600 457.000 364.500 V 352.700 C 457.000 352.600 456.900 352.700 457.000 352.700 H 462.900 C 462.955 352.700 463.000 352.655 463.000 352.600 V 340.600 C 463.000 340.545 462.955 340.500 462.900 340.500 H 457.000 C 456.900 340.500 457.000 340.600 457.000 340.500 V 328.700 C 457.000 328.600 456.900 328.700 457.000 328.700 H 462.900 C 462.955 328.700 463.000 328.655 463.000 328.600 V 305.100 C 463.000 305.045 462.955 305.000 462.900 305.000 H 456.900 H 16.100 H 10.100 C 10.045 305.000 10.000 305.045 10.000 305.100 V 328.600 C 10.000 328.655 10.045 328.700 10.100 328.700 H 16.000 C 16.100 328.700 16.000 328.600 16.000 328.700 V 340.500 C 16.000 340.600 16.100 340.500 16.000 340.500 H 10.100 C 10.045 340.500 10.000 340.545 10.000 340.600 V 352.600 C 10.000 352.655 10.045 352.700 10.100 352.700 H 16.000 C 16.100 352.700 16.000 352.600 16.000 352.700 V 364.500 C 16.000 364.600 16.100 364.500 16.000 364.500 H 10.100 C 10.045 364.500 10.000 364.545 10.000 364.600 V 376.600 C 10.000 376.655 10.045 376.700 10.100 376.700 H 16.000 C 16.100 376.700 16.000 376.600 16.000 376.700 V 388.500 C 16.000 388.600 16.100 388.500 16.000 388.500 H 10.100 C 10.045 388.500 10.000 388.545 10.000 388.600 V 400.600 C 10.000 400.655 10.045 400.700 10.100 400.700 H 16.000 C 16.100 400.700 16.000 400.600 16.000 400.700 V 412.500 C 16.000 412.600 16.100 412.500 16.000 412.500 H 10.100 C 10.045 412.500 10.000 412.545 10.000 412.600 V 424.600 C 10.000 424.655 10.045 424.700 10.100 424.700 H 16.000 C 16.100 424.700 16.000 424.600 16.000 424.700 V 436.500 C 16.000 436.600 16.100 436.500 16.000 436.500 H 10.100 C 10.045 436.500 10.000 436.545 10.000 436.600 V 460.100 C 10.000 460.155 10.045 460.200 10.100 460.200 H 16.100 Z" stroke="rgb(0,0,0)" stroke-width="0.20" />
</g>
<g id="p-6" style="fill:none;stroke-linecap:round;stroke-linejoin:round;">
  <path d="M 472.100 460.200 H 485.900 C 486.000 460.200 485.900 460.100 485.900 460.200 V 466.100 C 485.900 466.155 485.945 466.200 486.000 466.200 H 498.000 C 498.055 466.200 498.100 466.155 498.100 466.100 V 460.200 C 498.100 460.100 498.000 460.200 498.100 460.200 H 509.900 C 510.000 460.200 509.900 460.100 509.900 460.200 V 466.100 C 509.900 466.155 509.945 466.200 510.000 466.200 H 522.000 C 522.055 466.200 522.100 466.155 522.100 466.100 V 460.200 C 522.100 460.100 522.000 460.200 522.100 460.200 H 533.900 C 534.000 460.200 533.900 460.100 533.900 460.200 V 466.100 C 533.900 466.155 533.945 466.200 534.000 466.200 H 546.000 C 546.055 466.200 546.100 466.155 546.100 466.100 V 460.200 C 546.100 460.100 546.000 460.200 546.100 460.200 H 557.900 C 558.000 460.200 557.900 460.100 557.900 460.200 V 466.100 C 557.900 466.155 557.945 466.200 558.000 466.200 H 570.000 C 570.055 466.200 570.100 466.155 570.100 466.100 V 460.200 C 570.100 460.100 570.000 460.200 570.100 460.200 H 581.900 C 582.000 460.200 581.900 460.100 581.900 460.200 V 466.100 C 581.900 466.155 581.945 466.200 582.000 466.200 H 594.000 C 594.055 466.200 594.100 466.155 594.100 466.100 V 460.200 C 594.100 460.100 594.000 460.200 594.100 460.200 H 605.900 C 606.000 460.200 605.900 460.100 605.900 460.200 V 466.100 C 605.900 466.155 605.945 466.200 606.000 466.200 H 618.000 C 618.055 466.200 618.100 466.155 618.100 466.100 V 460.200 C 618.100 460.100 618.000 460.200 618.100 460.200 H 629.900 C 630.000 460.200 629.900 460.100 629.900 460.200 V 466.100 C 629.900 466.155 629.945 466.200 630.000 466.200 H 642.000 C 642.055 466.200 642.100 466.155 642.100 466.100 V 460.200 C 642.100 460.100 642.000 460.200 642.100 460.200 H 653.900 C 654.000 460.200 653.900 460.100 653.900 460.200 V 466.100 C 653.900 466.155 653.945 466.200 654.000 466.200 H 666.000 C 666.055 466.200 666.100 466.155 666.100 466.100 V 460.200 C 666.100 460.100 666.000 460.200 666.100 460.200 H 677.900 C 678.000 460.200 677.900 460.100 677.900 460.200 V 466.100 C 677.900 466.155 677.945 466.200 678.000 466.200 H 690.000 C 690.055 466.200 690.100 466.155 690.100 466.100 V 460.200 C 690.100 460.100 690.000 460.200 690.100 460.200 H 701.900 C 702.000 460.200 701.900 460.100 701.900 460.200 V 466.100 C 701.900 466.155 701.945 466.200 702.000 466.200 H 714.000 C 714.055 466.200 714.100 466.155 714.100 466.100 V 460.200 C 714.100 460.100 714.000 460.200 714.100 460.200 H 725.900 C 726.000 460.200 725.900 460.100 725.900 460.200 V 466.100 C 725.900 466.155 725.945 466.200 726.000 466.200 H 738.000 C 738.055 466.200 738.100 466.155 738.100 466.100 V 460.200 C 738.100 460.100 738.000 460.200 738.100 460.200 H 751.900 C 751.955 460.200 752.000 460.155 752.000 460.100 V 436.700 C 752.000 436.600 751.900 436.700 752.000 436.700 H 757.900 C 757.955 436.700 758.000 436.655 758.000 436.600 V 424.600 C 758.000 424.545 757.955 424.500 757.900 424.500 H 752.000 C 751.900 424.500 752.000 424.600 752.000 424.500 V 412.700 C 752.000 412.600 751.900 412.700 752.000 412.700 H 757.900 C 757.955 412.700 758.000 412.655 758.000 412.600 V 400.600 C 758.000 400.545 757.955 400.500 757.900 400.500 H 752.000 C 751.900 400.500 752.000 400.600 752.000 400.500 V 388.700 C 752.000 388.600 751.900 388.700 752.000 388.700 H 757.900 C 757.955 388.700 758.000 388.655 758.000 388.600 V 376.600 C 758.000 376.545 757.955 376.500 757.900 376.500 H 752.000 C 751.900 376.500 752.000 376.600 752.000 376.500 V 364.700 C 752.000 364.600 751.900 364.700 752.000 364.700 H 757.900 C 757.955 364.700 758.000 364.655 758.000 364.600 V 352.600 C 758.000 352.545 757.955 352.500 757.900 352.500 H 752.000 C 751.900 352.500 752.000 352.600 752.000 352.500 V 340.700 C 752.000 340.600 751.900 340.700 752.000 340.700 H 757.900 C 757.955 340.700 758.000 340.655 758.000 340.600 V 328.600 C 758.000 328.545 757.955 328.500 757.900 328.500 H 752.000 C 751.900 328.500 752.000 328.600 752.000 328.500 V 305.100 C 752.000 305.045 751.955 305.000 751.900 305.000 H 472.100 C 472.045 305.000 472.000 305.045 472.000 305.100 V 328.500 C 472.000 328.600 472.100 328.500 472.000 328.500 H 466.100 C 466.045 328.500 466.000 328.545 466.000 328.600 V 340.600 C 466.000 340.655 466.045 340.700 466.100 340.700 H 472.000 C 472.100 340.700 472.000 340.600 472.000 340.700 V 352.500 C 472.000 352.600 472.100 352.500 472.000 352.500 H 466.100 C 466.045 352.500 466.000 352.545 466.000 352.600 V 364.600 C 466.000 364.655 466.045 364.700 466.100 364.700 H 472.000 C 472.100 364.700 472.000 364.600 472.000 364.700 V 376.500 C 472.000 376.600 472.100 376.500 472.000 376.500 H 466.100 C 466.045 376.500 466.000 376.545 466.000 376.600 V 388.600 C 466.000 388.655 466.045 388.700 466.100 388.700 H 472.000 C 472.100 388.700 472.000 388.600 472.000 388.700 V 400.500 C 472.000 400.600 472.100 400.500 472.000 400.500 H 466.100 C 466.045 400.500 466.000 400.545 466.000 400.600 V 412.600 C 466.000 412.655 466.045 412.700 466.100 412.700 H 472.000 C 472.100 412.700 472.000 412.600 472.000 412.700 V 424.500 C 472.000 424.600 472.100 424.500 472.000 424.500 H 466.100 C 466.045 424.500 466.000 424.545 466.000 424.600 V 436.600 C 466.000 436.655 466.045 436.700 466.100 436.700 H 472.000 C 472.100 436.700 472.000 436.600 472.000 436.700 V 460.100 C 472.000 460.155 472.045 460.200 472.100 460.200 Z" stroke="rgb(0,0,0)" stroke-width="0.20" />
</g>
<g id="p-7" style="fill:none;stroke-linecap:round;stroke-linejoin:round;">
  <path d="M 767.100 460.200 H 789.400 C 789.500 460.200 789.400 460.100 789.400 460.200 V 466.100 C 789.400 466.155 789.445 466.200 789.500 466.200 H 801.500 C 801.555 466.200 801.600 466.155 801.600 466.100 V 460.200 C 801.600 460.100 801.500 460.200 801.600 460.200 H 813.400 C 813.500 460.200 813.400 460.100 813.400 460.200 V 466.100 C 813.400 466.155 813.445 466.200 813.500 466.200 H 825.500 C 825.555 466.200 825.600 466.155 825.600 466.100 V 460.200 C 825.600 460.100 825.500 460.200 825.600 460.200 H 837.400 C 837.500 460.200 837.400 460.100 837.400 460.200 V 466.100 C 837.400 466.155 837.445 466.200 837.500 466.200 H 849.500 C 849.555 466.200 849.600 466.155 849.600 466.100 V 460.200 C 849.600 460.100 849.500 460.200 849.600 460.200 H 861.400 C 861.500 460.200 861.400 460.100 861.400 460.200 V 466.100 C 861.400 466.155 861.445 466.200 861.500 466.200 H 873.500 C 873.555 466.200 873.600 466.155 873.600 466.100 V 460.200 C 873.600 460.100 873.500 460.200 873.600 460.200 H 885.400 C 885.500 460.200 885.400 460.100 885.400 460.200 V 466.100 C 885.400 466.155 885.445 466.200 885.500 466.200 H 897.500 C 897.555 466.200 897.600 466.155 897.600 466.100 V 460.200 C 897.600 460.100 897.500 460.200 897.600 460.200 H 909.400 C 909.500 460.200 909.400 460.100 909.400 460.200 V 466.100 C 909.400 466.155 909.445 466.200 909.500 466.200 H 921.500 C 921.555 466.200 921.600 466.155 921.600 466.100 V 460.200 C 921.600 460.100 921.500 460.200 921.600 460.200 H 933.400 C 933.500 460.200 933.400 460.100 933.400 460.200 V 466.100 C 933.400 466.155 933.445 466.200 933.500 466.200 H 945.500 C 945.555 466.200 945.600 466.155 945.600 466.100 V 460.200 C 945.600 460.100 945.500 460.200 945.600 460.200 H 957.400 C 957.500 460.200 957.400 460.100 957.400 460.200 V 466.100 C 957.400 466.155 957.445 466.200 957.500 466.200 H 969.500 C 969.555 466.200 969.600 466.155 969.600 466.100 V 460.200 C 969.600 460.100 969.500 460.200 969.600 460.200 H 981.400 C 981.500 460.200 981.400 460.100 981.400 460.200 V 466.100 C 981.400 466.155 981.445 466.200 981.500 466.200 H 993.500 C 993.555 466.200 993.600 466.155 993.600 466.100 V 460.200 C 993.600 460.100 993.500 460.200 993.600 460.200 H 1005.400 C 1005.500 460.200 1005.400 460.100 1005.400 460.200 V 466.100 C 1005.400 466.155 1005.445 466.200 1005.500 466.200 H 1017.500 C 1017.555 466.200 1017.600 466.155 1017.600 466.100 V 460.200 C 1017.600 460.100 1017.500 460.200 1017.600 460.200 H 1029.400 C 1029.500 460.200 1029.400 460.100 1029.400 460.200 V 466.100 C 1029.400 466.155 1029.445 466.200 1029.500 466.200 H 1041.500 C 1041.555 466.200 1041.600 466.155 1041.600 466.100 V 460.200 C 1041.600 460.100 1041.500 460.200 1041.600 460.200 H 1053.400 C 1053.500 460.200 1053.400 460.100 1053.400 460.200 V 466.100 C 1053.400 466.155 1053.445 466.200 1053.500 466.200 H 1065.500 C 1065.555 466.200 1065.600 466.155 1065.600 466.100 V 460.200 C 1065.600 460.100 1065.500 460.200 1065.600 460.200 H 1077.400 C 1077.500 460.200 1077.400 460.100 1077.400 460.200 V 466.100 C 1077.400 466.155 1077.445 466.200 1077.500 466.200 H 1089.500 C 1089.555 466.200 1089.600 466.155 1089.600 466.100 V 460.200 C 1089.600 460.100 1089.500 460.200 1089.600 460.200 H 1101.400 C 1101.500 460.200 1101.400 460.100 1101.400 460.200 V 466.100 C 1101.400 466.155 1101.445 466.200 1101.500 466.200 H 1113.500 C 1113.555 466.200 1113.600 466.155 1113.600 466.100 V 460.200 C 1113.600 460.100 1113.500 460.200 1113.600 460.200 H 1125.400 C 1125.500 460.200 1125.400 460.100 1125.400 460.200 V 466.100 C 1125.400 466.155 1125.445 466.200 1125.500 466.200 H 1137.500 C 1137.555 466.200 1137.600 466.155 1137.600 466.100 V 460.200 C 1137.600 460.100 1137.500 460.200 1137.600 460.200 H 1149.400 C 1149.500 460.200 1149.400 460.100 1149.400 460.200 V 466.100 C 1149.400 466.155 1149.445 466.200 1149.500 466.200 H 1161.500 C 1161.555 466.200 1161.600 466.155 1161.600 466.100 V 460.200 C 1161.600 460.100 1161.500 460.200 1161.600 460.200 H 1173.400 C 1173.500 460.200 1173.400 460.100 1173.400 460.200 V 466.100 C 1173.400 466.155 1173.445 466.200 1173.500 466.200 H 1185.500 C 1185.555 466.200 1185.600 466.155 1185.600 466.100 V 460.200 C 1185.600 460.100 1185.500 460.200 1185.600 460.200 H 1207.900 H 1213.900 C 1213.955 460.200 1214.000 460.155 1214.000 460.100 V 436.600 C 1214.000 436.545 1213.955 436.500 1213.900 436.500 H 1208.000 C 1207.900 436.500 1208.000 436.600 1208.000 436.500 V 424.700 C 1208.000 424.600 1207.900 424.700 1208.000 424.700 H 1213.900 C 1213.955 424.700 1214.000 424.655 1214.000 424.600 V 412.600 C 1214.000 412.545 1213.955 412.500 1213.900 412.500 H 1208.000 C 1207.900 412.500 1208.000 412.600 1208.000 412.500 V 400.700 C 1208.000 400.600 1207.900 400.700 1208.000 400.700 H 1213.900 C 1213.955 400.700 1214.000 400.655 1214.000 400.600 V 388.600 C 1214.000 388.545 1213.955 388.500 1213.900 388.500 H 1208.000 C 1207.900 388.500 1208.000 388.600 1208.000 388.500 V 376.700 C 1208.000 376.600 1207.900 376.700 1208.000 376.700 H 1213.900 C 1213.955 376.700 1214.000 376.655 1214.000 376.600 V 364.600 C 1214.000 364.545 1213.955 364.500 1213.900 364.500 H 1208.000 C 1207.900 364.500 1208.000 364.600 1208.000 364.500 V 352.700 C 1208.000 352.600 1207.900 352.700 1208.000 352.700 H 1213.900 C 1213.955 352.700 1214.000 352.655 1214.000 352.600 V 340.600 C 1214.000 340.545 1213.955 340.500 1213.900 340.500 H 1208.000 C 1207.900 340.500 1208.000 340.600 1208.000 340.500 V 328.700 C 1208.000 328.600 1207.900 328.700 1208.000 328.700 H 1213.900 C 1213.955 328.700 1214.000 328.655 1214.000 328.600 V 305.100 C 1214.000 305.045 1213.955 305.000 1213.900 305.000 H 1207.900 H 767.100 H 761.100 C 761.045 305.000 761.000 305.045 761.000 305.100 V 328.600 C 761.000 328.655 761.045 328.700 761.100 328.700 H 767.000 C 767.100 328.700 767.000 328.600 767.000 328.700 V 340.500 C 767.000 340.600 767.100 340.500 767.000 340.500 H 761.100 C 761.045 340.500 761.000 340.545 761.000 340.600 V 352.600 C 761.000 352.655 761.045 352.700 761.100 352.700 H 767.000 C 767.100 352.700 767.000 352.600 767.000 352.700 V 364.500 C 767.000 364.600 767.100 364.500 767.000 364.500 H 761.100 C 761.045 364.500 761.000 364.545 761.000 364.600 V 376.600 C 761.000 376.655 761.045 376.700 761.100 376.700 H 767.000 C 767.100 376.700 767.000 376.600 767.000 376.700 V 388.500 C 767.000 388.600 767.100 388.500 767.000 388.500 H 761.100 C 761.045 388.500 761.000 388.545 761.000 388.600 V 400.600 C 761.000 400.655 761.045 400.700 761.100 400.700 H 767.000 C 767.100 400.700 767.000 400.600 767.000 400.700 V 412.500 C 767.000 412.600 767.100 412.500 767.000 412.500 H 761.100 C 761.045 412.500 761.000 412.545 761.000 412.600 V 424.600 C 761.000 424.655 761.045 424.700 761.100 424.700 H 767.000 C 767.100 424.700 767.000 424.600 767.000 424.700 V 436.500 C 767.000 436.600 767.100 436.500 767.000 436.500 H 761.100 C 761.045 436.500 761.000 436.545 761.000 436.600 V 460.100 C 761.000 460.155 761.045 460.200 761.100 460.200 H 767.100 Z" stroke="rgb(0,0,0)" stroke-width="0.20" />
</g>
<g id="p-8" style="fill:none;stroke-linecap:round;stroke-linejoin:round;">
  <path d="M 1223.100 460.200 H 1236.900 C 1237.000 460.200 1236.900 460.100 1236.900 460.200 V 466.100 C 1236.900 466.155 1236.945 466.200 1237.000 466.200 H 1249.000 C 1249.055 466.200 1249.100 466.155 1249.100 466.100 V 460.200 C 1249.100 460.100 1249.000 460.200 1249.100 460.200 H 1260.900 C 1261.000 460.200 1260.900 460.100 1260.900 460.200 V 466.100 C 1260.900 466.155 1260.945 466.200 1261.000 466.200 H 1273.000 C 1273.055 466.200 1273.100 466.155 1273.100 466.100 V 460.200 C 1273.100 460.100 1273.000 460.200 1273.100 460.200 H 1284.900 C 1285.000 460.200 1284.900 460.100 1284.900 460.200 V 466.100 C 1284.900 466.155 1284.945 466.200 1285.000 466.200 H 1297.000 C 1297.055 466.200 1297.100 466.155 1297.100 466.100 V 460.200 C 1297.100 460.100 1297.000 460.200 1297.100 460.200 H 1308.900 C 1309.000 460.200 1308.900 460.100 1308.900 460.200 V 466.100 C 1308.900 466.155 1308.945 466.200 1309.000 466.200 H 1321.000 C 1321.055 466.200 1321.100 466.155 1321.100 466.100 V 460.200 C 1321.100 460.100 1321.000 460.200 1321.100 460.200 H 1332.900 C 1333.000 460.200 1332.900 460.100 1332.900 460.200 V 466.100 C 1332.900 466.155 1332.945 466.200 1333.000 466.200 H 1345.000 C 1345.055 466.200 1345.100 466.155 1345.100 466.100 V 460.200 C 1345.100 460.100 1345.000 460.200 1345.100 460.200 H 1356.900 C 1357.000 460.200 1356.900 460.100 1356.900 460.200 V 466.100 C 1356.900 466.155 1356.945 466.200 1357.000 466.200 H 1369.000 C 1369.055 466.200 1369.100 466.155 1369.100 466.100 V 460.200 C 1369.100 460.100 1369.000 460.200 1369.100 460.200 H 1380.900 C 1381.000 460.200 1380.900 460.100 1380.900 460.200 V 466.100 C 1380.900 466.155 1380.945 466.200 1381.000 466.200 H 1393.000 C 1393.055 466.200 1393.100 466.155 1393.100 466.100 V 460.200 C 1393.100 460.100 1393.000 460.200 1393.100 460.200 H 1404.900 C 1405.000 460.200 1404.900 460.100 1404.900 460.200 V 466.100 C 1404.900 466.155 1404.945 466.200 1405.000 466.200 H 1417.000 C 1417.055 466.200 1417.100 466.155 1417.100 466.100 V 460.200 C 1417.100 460.100 1417.000 460.200 1417.100 460.200 H 1428.900 C 1429.000 460.200 1428.900 460.100 1428.900 460.200 V 466.100 C 1428.900 466.155 1428.945 466.200 1429.000 466.200 H 1441.000 C 1441.055 466.200 1441.100 466.155 1441.100 466.100 V 460.200 C 1441.100 460.100 1441.000 460.200 1441.100 460.200 H 1452.900 C 1453.000 460.200 1452.900 460.100 1452.900 460.200 V 466.100 C 1452.900 466.155 1452.945 466.200 1453.000 466.200 H 1465.000 C 1465.055 466.200 1465.100 466.155 1465.100 466.100 V 460.200 C 1465.100 460.100 1465.000 460.200 1465.100 460.200 H 1476.900 C 1477.000 460.200 1476.900 460.100 1476.900 460.200 V 466.100 C 1476.900 466.155 1476.945 466.200 1477.000 466.200 H 1489.000 C 1489.055 466.200 1489.100 466.155 1489.100 466.100 V 460.200 C 1489.100 460.100 1489.000 460.200 1489.100 460.200 H 1502.900 C 1502.955 460.200 1503.000 460.155 1503.000 460.100 V 436.700 C 1503.000 436.600 1502.900 436.700 1503.000 436.700 H 1508.900 C 1508.955 436.700 1509.000 436.655 1509.000 436.600 V 424.600 C 1509.000 424.545 1508.955 424.500 1508.900 424.500 H 1503.000 C 1502.900 424.500 1503.000 424.600 1503.000 424.500 V 412.700 C 1503.000 412.600 1502.900 412.700 1503.000 412.700 H 1508.900 C 1508.955 412.700 1509.000 412.655 1509.000 412.600 V 400.600 C 1509.000 400.545 1508.955 400.500 1508.900 400.500 H 1503.000 C 1502.900 400.500 1503.000 400.600 1503.000 400.500 V 388.700 C 1503.000 388.600 1502.900 388.700 1503.000 388.700 H 1508.900 C 1508.955 388.700 1509.000 388.655 1509.000 388.600 V 376.600 C 1509.000 376.545 1508.955 376.500 1508.900 376.500 H 1503.000 C 1502.900 376.500 1503.000 376.600 1503.000 376.500 V 364.700 C 1503.000 364.600 1502.900 364.700 1503.000 364.700 H 1508.900 C 1508.955 364.700 1509.000 364.655 1509.000 364.600 V 352.600 C 1509.000 352.545 1508.955 352.500 1508.900 352.500 H 1503.000 C 1502.900 352.500 1503.000 352.600 1503.000 352.500 V 340.700 C 1503.000 340.600 1502.900 340.700 1503.000 340.700 H 1508.900 C 1508.955 340.700 1509.000 340.655 1509.000 340.600 V 328.600 C 1509.000 328.545 1508.955 328.500 1508.900 328.500 H 1503.000 C 1502.900 328.500 1503.000 328.600 1503.000 328.500 V 305.100 C 1503.000 305.045 1502.955 305.000 1502.900 305.000 H 1223.100 C 1223.045 305.000 1223.000 305.045 1223.000 305.100 V 328.500 C 1223.000 328.600 1223.100 328.500 1223.000 328.500 H 1217.100 C 1217.045 328.500 1217.000 328.545 1217.000 328.600 V 340.600 C 1217.000 340.655 1217.045 340.700 1217.100 340.700 H 1223.000 C 1223.100 340.700 1223.000 340.600 1223.000 340.700 V 352.500 C 1223.000 352.600 1223.100 352.500 1223.000 352.500 H 1217.100 C 1217.045 352.500 1217.000 352.545 1217.000 352.600 V 364.600 C 1217.000 364.655 1217.045 364.700 1217.100 364.700 H 1223.000 C 1223.100 364.700 1223.000 364.600 1223.000 364.700 V 376.500 C 1223.000 376.600 1223.100 376.500 1223.000 376.500 H 1217.100 C 1217.045 376.500 1217.000 376.545 1217.000 376.600 V 388.600 C 1217.000 388.655 1217.045 388.700 1217.100 388.700 H 1223.000 C 1223.100 388.700 1223.000 388.600 1223.000 388.700 V 400.500 C 1223.000 400.600 1223.100 400.500 1223.000 400.500 H 1217.100 C 1217.045 400.500 1217.000 400.545 1217.000 400.600 V 412.600 C 1217.000 412.655 1217.045 412.700 1217.100 412.700 H 1223.000 C 1223.100 412.700 1223.000 412.600 1223.000 412.700 V 424.500 C 1223.000 424.600 1223.100 424.500 1223.000 424.500 H 1217.100 C 1217.045 424.500 1217.000 424.545 1217.000 424.600 V 436.600 C 1217.000 436.655 1217.045 436.700 1217.100 436.700 H 1223.000 C 1223.100 436.700 1223.000 436.600 1223.000 436.700 V 460.100 C 1223.000 460.155 1223.045 460.200 1223.100 460.200 Z" stroke="rgb(0,0,0)" stroke-width="0.20" />
</g>
<g id="p-9" style="fill:none;stroke-linecap:round;stroke-linejoin:round;">
  <path d="M 44.500 294.900 H 38.600 C 38.500 294.900 38.600 295.000 38.600 294.900 V 289.100 C 38.600 289.000 38.500 289.100 38.600 289.100 H 50.400 C 50.500 289.100 50.400 289.000 50.400 289.100 V 294.900 C 50.400 295.000 50.500 294.900 50.400 294.900 H 44.500 Z" stroke="rgb(0,0,255)" stroke-width="0.20" />
  <path d="M 68.500 294.900 H 62.600 C 62.500 294.900 62.600 295.000 62.600 294.900 V 289.100 C 62.600 289.000 62.500 289.100 62.600 289.100 H 74.400 C 74.500 289.100 74.400 289.000 74.400 289.100 V 294.900 C 74.400 295.000 74.500 294.900 74.400 294.900 H 68.500 Z" stroke="rgb(0,0,255)" stroke-width="0.20" />
  <path d="M 92.500 294.900 H 86.600 C 86.500 294.900 86.600 295.000 86.600 294.900 V 289.100 C 86.600 289.000 86.500 289.100 86.600 289.100 H 98.400 C 98.500 289.100 98.400 289.000 98.400 289.100 V 294.900 C 98.400 295.000 98.500 294.900 98.400 294.900 H 92.500 Z" stroke="rgb(0,0,255)" stroke-width="0.20" />
  <path d="M 116.500 294.900 H 110.600 C 110.500 294.900 110.600 295.000 110.600 294.900 V 289.100 C 110.600 289.000 110.500 289.100 110.600 289.100 H 122.400 C 122.500 289.100 122.400 289.000 122.400 289.100 V 294.900 C 122.400 295.000 122.500 294.900 122.400 294.900 H 116.500 Z" stroke="rgb(0,0,255)" stroke-width="0.20" />
  <path d="M 140.500 294.900 H 134.600 C 134.500 294.900 134.600 295.000 134.600 294.900 V 289.100 C 134.600 289.000 134.500 289.100 134.600 289.100 H 146.400 C 146.500 289.100 146.400 289.000 146.400 289.100 V 294.900 C 146.400 295.000 146.500 294.900 146.400 294.900 H 140.500 Z" stroke="rgb(0,0,255)" stroke-width="0.20" />
  <path d="M 164.500 294.900 H 158.600 C 158.500 294.900 158.600 295.000 158.600 294.900 V 289.100 C 158.600 289.000 158.500 289.100 158.600 289.100 H 170.400 C 170.500 289.100 170.400 289.000 170.400 289.100 V 294.900 C 170.400 295.000 170.500 294.900 170.400 294.900 H 164.500 Z" stroke="rgb(0,0,255)" stroke-width="0.20" />
  <path d="M 188.500 294.900 H 182.600 C 182.500 294.900 182.600 295.000 182.600 294.900 V 289.100 C 182.600 289.000 182.500 289.100 182.600 289.100 H 194.400 C 194.500 289.100 194.400 289.000 194.400 289.100 V 294.900 C 194.400 295.000 194.500 294.900 194.400 294.900 H 188.500 Z" stroke="rgb(0,0,255)" stroke-width="0.20" />
  <path d="M 212.500 294.900 H 206.600 C 206.500 294.900 206.600 295.000 206.600 294.900 V 289.100 C 206.600 289.000 206.500 289.100 206.600 289.100 H 218.400 C 218.500 289.100 218.400 289.000 218.400 289.100 V 294.900 C 218.400 295.000 218.500 294.900 218.400 294.900 H 212.500 Z" stroke="rgb(0,0,255)" stroke-width="0.20" />
  <path d="M 236.500 294.900 H 230.600 C 230.500 294.900 230.600 295.000 230.600 294.900 V 289.100 C 230.600 289.000 230.500 289.100 230.600 289.100 H 242.400 C 242.500 289.100 242.400 289.000 242.400 289.100 V 294.900 C 242.400 295.000 242.500 294.900 242.400 294.900 H 236.500 Z" stroke="rgb(0,0,255)" stroke-width="0.20" />
  <path d="M 260.500 294.900 H 254.600 C 254.500 294.900 254.600 295.000 254.600 294.900 V 289.100 C 254.600 289.000 254.500 289.100 254.600 289.100 H 266.400 C 266.500 289.100 266.400 289.000 266.400 289.100 V 294.900 C 266.400 295.000 266.500 294.900 266.400 294.900 H 260.500 Z" stroke="rgb(0,0,255)" stroke-width="0.20" />
  <path d="M 284.500 294.900 H 278.600 C 278.500 294.900 278.600 295.000 278.600 294.900 V 289.100 C 278.600 289.000 278.500 289.100 278.600 289.100 H 290.400 C 290.500 289.100 290.400 289.000 290.400 289.100 V 294.900 C 290.400 295.000 290.500 294.900 290.400 294.900 H 284.500 Z" stroke="rgb(0,0,255)" stroke-width="0.20" />
  <path d="M 308.500 294.900 H 302.600 C 302.500 294.900 302.600 295.000 302.600 294.900 V 289.100 C 302.600 289.000 302.500 289.100 302.600 289.100 H 314.400 C 314.500 289.100 314.400 289.000 314.400 289.100 V 294.900 C 314.400 295.000 314.500 294.900 314.400 294.900 H 308.500 Z" stroke="rgb(0,0,255)" stroke-width="0.20" />
  <path d="M 332.500 294.900 H 326.600 C 326.500 294.900 326.600 295.000 326.600 294.900 V 289.100 C 326.600 289.000 326.500 289.100 326.600 289.100 H 338.400 C 338.500 289.100 338.400 289.000 338.400 289.100 V 294.900 C 338.400 295.000 338.500 294.900 338.400 294.900 H 332.500 Z" stroke="rgb(0,0,255)" stroke-width="0.20" />
  <path d="M 356.500 294.900 H 350.600 C 350.500 294.900 350.600 295.000 350.600 294.900 V 289.100 C 350.600 289.000 350.500 289.100 350.600 289.100 H 362.400 C 362.500 289.100 362.400 289.000 362.400 289.100 V 294.900 C 362.400 295.000 362.500 294.900 362.400 294.900 H 356.500 Z" stroke="rgb(0,0,255)" stroke-width="0.20" />
  <path d="M 380.500 294.900 H 374.600 C 374.500 294.900 374.600 295.000 374.600 294.900 V 289.100 C 374.600 289.000 374.500 289.100 374.600 289.100 H 386.400 C 386.500 289.100 386.400 289.000 386.400 289.100 V 294.900 C 386.400 295.000 386.500 294.900 386.400 294.900 H 380.500 Z" stroke="rgb(0,0,255)" stroke-width="0.20" />
  <path d="M 404.500 294.900 H 398.600 C 398.500 294.900 398.600 295.000 398.600 294.900 V 289.100 C 398.600 289.000 398.500 289.100 398.600 289.100 H 410.400 C 410.500 289.100 410.400 289.000 410.400 289.100 V 294.900 C 410.400 295.000 410.500 294.900 410.400 294.900 H 404.500 Z" stroke="rgb(0,0,255)" stroke-width="0.20" />
  <path d="M 428.500 294.900 H 422.600 C 422.500 294.900 422.600 295.000 422.600 294.900 V 289.100 C 422.600 289.000 422.500 289.100 422.600 289.100 H 434.400 C 434.500 289.100 434.400 289.000 434.400 289.100 V 294.900 C 434.400 295.000 434.500 294.900 434.400 294.900 H 428.500 Z" stroke="rgb(0,0,255)" stroke-width="0.20" />
  <path d="M 23.000 302.000 H 450.000 H 462.900 C 462.955 302.000 463.000 301.955 463.000 301.900 V 289.000 V 23.000 V 10.100 C 463.000 10.045 462.955 10.000 462.900 10.000 H 450.000 H 23.000 H 10.100 C 10.045 10.000 10.000 10.045 10.000 10.100 V 23.000 V 289.000 V 301.900 C 10.000 301.955 10.045 302.000 10.100 302.000 H 23.000 Z" stroke="rgb(0,0,0)" stroke-width="0.20" />
  <path d="M 455.900 264.000 V 269.900 C 455.900 270.000 456.000 269.900 455.900 269.900 H 450.100 C 450.000 269.900 450.100 270.000 450.100 269.900 V 258.100 C 450.100 258.000 450.000 258.100 450.100 258.100 H 455.900 C 456.000 258.100 455.900 258.000 455.900 258.100 V 264.000 Z" stroke="rgb(0,0,255)" stroke-width="0.20" />
  <path d="M 455.900 240.000 V 245.900 C 455.900 246.000 456.000 245.900 455.900 245.900 H 450.100 C 450.000 245.900 450.100 246.000 450.100 245.900 V 234.100 C 450.100 234.000 450.000 234.100 450.100 234.100 H 455.900 C 456.000 234.100 455.900 234.000 455.900 234.100 V 240.000 Z" stroke="rgb(0,0,255)" stroke-width="0.20" />
  <path d="M 455.900 216.000 V 221.900 C 455.900 222.000 456.000 221.900 455.900 221.900 H 450.100 C 450.000 221.900 450.100 222.000 450.100 221.900 V 210.100 C 450.100 210.000 450.000 210.100 450.100 210.100 H 455.900 C 456.000 210.100 455.900 210.000 455.900 210.100 V 216.000 Z" stroke="rgb(0,0,255)" stroke-width="0.20" />
  <path d="M 455.900 192.000 V 197.900 C 455.900 198.000 456.000 197.900 455.900 197.900 H 450.100 C 450.000 197.900 450.100 198.000 450.100 197.900 V 186.100 C 450.100 186.000 450.000 186.100 450.100 186.100 H 455.900 C 456.000 186.100 455.900 186.000 455.900 186.100 V 192.000 Z" stroke="rgb(0,0,255)" stroke-width="0.20" />
  <path d="M 455.900 168.000 V 173.900 C 455.900 174.000 456.000 173.900 455.900 173.900 H 450.100 C 450.000 173.900 450.100 174.000 450.100 173.900 V 162.100 C 450.100 162.000 450.000 162.100 450.100 162.100 H 455.900 C 456.000 162.100 455.900 162.000 455.900 162.100 V 168.000 Z" stroke="rgb(0,0,255)" stroke-width="0.20" />
  <path d="M 455.900 144.000 V 149.900 C 455.900 150.000 456.000 149.900 455.900 149.900 H 450.100 C 450.000 149.900 450.100 150.000 450.100 149.900 V 138.100 C 450.100 138.000 450.000 138.100 450.100 138.100 H 455.900 C 456.000 138.100 455.900 138.000 455.900 138.100 V 144.000 Z" stroke="rgb(0,0,255)" stroke-width="0.20" />
  <path d="M 455.900 120.000 V 125.900 C 455.900 126.000 456.000 125.900 455.900 125.900 H 450.100 C 450.000 125.900 450.100 126.000 450.100 125.900 V 114.100 C 450.100 114.000 450.000 114.100 450.100 114.100 H 455.900 C 456.000 114.100 455.900 114.000 455.900 114.100 V 120.000 Z" stroke="rgb(0,0,255)" stroke-width="0.20" />
  <path d="M 455.900 96.000 V 101.900 C 455.900 102.000 456.000 101.900 455.900 101.900 H 450.100 C 450.000 101.900 450.100 102.000 450.100 101.900 V 90.100 C 450.100 90.000 450.000 90.100 450.100 90.100 H 455.900 C 456.000 90.100 455.900 90.000 455.900 90.100 V 96.000 Z" stroke="rgb(0,0,255)" stroke-width="0.20" />
  <path d="M 455.900 72.000 V 77.900 C 455.900 78.000 456.000 77.900 455.900 77.900 H 450.100 C 450.000 77.900 450.100 78.000 450.100 77.900 V 66.100 C 450.100 66.000 450.000 66.100 450.100 66.100 H 455.900 C 456.000 66.100 455.900 66.000 455.900 66.100 V 72.000 Z" stroke="rgb(0,0,255)" stroke-width="0.20" />
  <path d="M 455.900 48.000 V 53.900 C 455.900 54.000 456.000 53.900 455.900 53.900 H 450.100 C 450.000 53.900 450.100 54.000 450.100 53.900 V 42.100 C 450.100 42.000 450.000 42.100 450.100 42.100 H 455.900 C 456.000 42.100 455.900 42.000 455.900 42.100 V 48.000 Z" stroke="rgb(0,0,255)" stroke-width="0.20" />
  <path d="M 428.500 17.100 H 434.400 C 434.500 17.100 434.400 17.000 434.400 17.100 V 22.900 C 434.400 23.000 434.500 22.900 434.400 22.900 H 422.600 C 422.500 22.900 422.600 23.000 422.600 22.900 V 17.100 C 422.600 17.000 422.500 17.100 422.600 17.100 H 428.500 Z" stroke="rgb(0,0,255)" stroke-width="0.20" />
  <path d="M 404.500 17.100 H 410.400 C 410.500 17.100 410.400 17.000 410.400 17.100 V 22.900 C 410.400 23.000 410.500 22.900 410.400 22.900 H 398.600 C 398.500 22.900 398.600 23.000 398.600 22.900 V 17.100 C 398.600 17.000 398.500 17.100 398.600 17.100 H 404.500 Z" stroke="rgb(0,0,255)" stroke-width="0.20" />
  <path d="M 380.500 17.100 H 386.400 C 386.500 17.100 386.400 17.000 386.400 17.100 V 22.900 C 386.400 23.000 386.500 22.900 386.400 22.900 H 374.600 C 374.500 22.900 374.600 23.000 374.600 22.900 V 17.100 C 374.600 17.000 374.500 17.100 374.600 17.100 H 380.500 Z" stroke="rgb(0,0,255)" stroke-width="0.20" />
  <path d="M 356.500 17.100 H 362.400 C 362.500 17.100 362.400 17.000 362.400 17.100 V 22.900 C 362.400 23.000 362.500 22.900 362.400 22.900 H 350.600 C 350.500 22.900 350.600 23.000 350.600 22.900 V 17.100 C 350.600 17.000 350.500 17.100 350.600 17.100 H 356.500 Z" stroke="rgb(0,0,255)" stroke-width="0.20" />
  <path d="M 332.500 17.100 H 338.400 C 338.500 17.100 338.400 17.000 338.400 17.100 V 22.900 C 338.400 23.000 338.500 22.900 338.400 22.900 H 326.600 C 326.500 22.900 326.600 23.000 326.600 22.900 V 17.100 C 326.600 17.000 326.500 17.100 326.600 17.100 H 332.500 Z" stroke="rgb(0,0,255)" stroke-width="0.20" />
  <path d="M 308.500 17.100 H 314.400 C 314.500 17.100 314.400 17.000 314.400 17.100 V 22.900 C 314.400 23.000 314.500 22.900 314.400 22.900 H 302.600 C 302.500 22.900 302.600 23.000 302.600 22.900 V 17.100 C 302.600 17.000 302.500 17.100 302.600 17.100 H 308.500 Z" stroke="rgb(0,0,255)" stroke-width="0.20" />
  <path d="M 284.500 17.100 H 290.400 C 290.500 17.100 290.400 17.000 290.400 17.100 V 22.900 C 290.400 23.000 290.500 22.900 290.400 22.900 H 278.600 C 278.500 22.900 278.600 23.000 278.600 22.900 V 17.100 C 278.600 17.000 278.500 17.100 278.600 17.100 H 284.500 Z" stroke="rgb(0,0,255)" stroke-width="0.20" />
  <path d="M 260.500 17.100 H 266.400 C 266.500 17.100 266.400 17.000 266.400 17.100 V 22.900 C 266.400 23.000 266.500 22.900 266.400 22.900 H 254.600 C 254.500 22.900 254.600 23.000 254.600 22.900 V 17.100 C 254.600 17.000 254.500 17.100 254.600 17.100 H 260.500 Z" stroke="rgb(0,0,255)" stroke-width="0.20" />
  <path d="M 236.500 17.100 H 242.400 C 242.500 17.100 242.400 17.000 242.400 17.100 V 22.900 C 242.400 23.000 242.500 22.900 242.400 22.900 H 230.600 C 230.500 22.900 230.600 23.000 230.600 22.900 V 17.100 C 230.600 17.000 230.500 17.100 230.600 17.100 H 236.500 Z" stroke="rgb(0,0,255)" stroke-width="0.20" />
  <path d="M 212.500 17.100 H 218.400 C 218.500 17.100 218.400 17.000 218.400 17.100 V 22.900 C 218.400 23.000 218.500 22.900 218.400 22.900 H 206.600 C 206.500 22.900 206.600 23.000 206.600 22.900 V 17.100 C 206.600 17.000 206.500 17.100 206.600 17.100 H 212.500 Z" stroke="rgb(0,0,255)" stroke-width="0.20" />
  <path d="M 188.500 17.100 H 194.400 C 194.500 17.100 194.400 17.000 194.400 17.100 V 22.900 C 194.400 23.000 194.500 22.900 194.400 22.900 H 182.600 C 182.500 22.900 182.600 23.000 182.600 22.900 V 17.100 C 182.600 17.000 182.500 17.100 182.600 17.100 H 188.500 Z" stroke="rgb(0,0,255)" stroke-width="0.20" />
  <path d="M 164.500 17.100 H 170.400 C 170.500 17.100 170.400 17.000 170.400 17.100 V 22.900 C 170.400 23.000 170.500 22.900 170.400 22.900 H 158.600 C 158.500 22.900 158.600 23.000 158.600 22.900 V 17.100 C 158.600 17.000 158.500 17.100 158.600 17.100 H 164.500 Z" stroke="rgb(0,0,255)" stroke-width="0.20" />
  <path d="M 140.500 17.100 H 146.400 C 146.500 17.100 146.400 17.000 146.400 17.100 V 22.900 C 146.400 23.000 146.500 22.900 146.400 22.900 H 134.600 C 134.500 22.900 134.600 23.000 134.600 22.900 V 17.100 C 134.600 17.000 134.500 17.100 134.600 17.100 H 140.500 Z" stroke="rgb(0,0,255)" stroke-width="0.20" />
  <path d="M 116.500 17.100 H 122.400 C 122.500 17.100 122.400 17.000 122.400 17.100 V 22.900 C 122.400 23.000 122.500 22.900 122.400 22.900 H 110.600 C 110.500 22.900 110.600 23.000 110.600 22.900 V 17.100 C 110.600 17.000 110.500 17.100 110.600 17.100 H 116.500 Z" stroke="rgb(0,0,255)" stroke-width="0.20" />
  <path d="M 92.500 17.100 H 98.400 C 98.500 17.100 98.400 17.000 98.400 17.100 V 22.900 C 98.400 23.000 98.500 22.900 98.400 22.900 H 86.600 C 86.500 22.900 86.600 23.000 86.600 22.900 V 17.100 C 86.600 17.000 86.500 17.100 86.600 17.100 H 92.500 Z" stroke="rgb(0,0,255)" stroke-width="0.20" />
  <path d="M 68.500 17.100 H 74.400 C 74.500 17.100 74.400 17.000 74.400 17.100 V 22.900 C 74.400 23.000 74.500 22.900 74.400 22.900 H 62.600 C 62.500 22.900 62.600 23.000 62.600 22.900 V 17.100 C 62.600 17.000 62.500 17.100 62.600 17.100 H 68.500 Z" stroke="rgb(0,0,255)" stroke-width="0.20" />
  <path d="M 44.500 17.100 H 50.400 C 50.500 17.100 50.400 17.000 50.400 17.100 V 22.900 C 50.400 23.000 50.500 22.900 50.400 22.900 H 38.600 C 38.500 22.900 38.600 23.000 38.600 22.900 V 17.100 C 38.600 17.000 38.500 17.100 38.600 17.100 H 44.500 Z" stroke="rgb(0,0,255)" stroke-width="0.20" />
  <path d="M 17.100 48.000 V 42.100 C 17.100 42.000 17.000 42.100 17.100 42.100 H 22.900 C 23.000 42.100 22.900 42.000 22.900 42.100 V 53.900 C 22.900 54.000 23.000 53.900 22.900 53.900 H 17.100 C 17.000 53.900 17.100 54.000 17.100 53.900 V 48.000 Z" stroke="rgb(0,0,255)" stroke-width="0.20" />
  <path d="M 17.100 72.000 V 66.100 C 17.100 66.000 17.000 66.100 17.100 66.100 H 22.900 C 23.000 66.100 22.900 66.000 22.900 66.100 V 77.900 C 22.900 78.000 23.000 77.900 22.900 77.900 H 17.100 C 17.000 77.900 17.100 78.000 17.100 77.900 V 72.000 Z" stroke="rgb(0,0,255)" stroke-width="0.20" />
  <path d="M 17.100 96.000 V 90.100 C 17.100 90.000 17.000 90.100 17.100 90.100 H 22.900 C 23.000 90.100 22.900 90.000 22.900 90.100 V 101.900 C 22.900 102.000 23.000 101.900 22.900 101.900 H 17.100 C 17.000 101.900 17.100 102.000 17.100 101.900 V 96.000 Z" stroke="rgb(0,0,255)" stroke-width="0.20" />
  <path d="M 17.100 120.000 V 114.100 C 17.100 114.000 17.000 114.100 17.100 114.100 H 22.900 C 23.000 114.100 22.900 114.000 22.900 114.100 V 125.900 C 22.900 126.000 23.000 125.900 22.900 125.900 H 17.100 C 17.000 125.900 17.100 126.000 17.100 125.900 V 120.000 Z" stroke="rgb(0,0,255)" stroke-width="0.20" />
  <path d="M 17.100 144.000 V 138.100 C 17.100 138.000 17.000 138.100 17.100 138.100 H 22.900 C 23.000 138.100 22.900 138.000 22.900 138.100 V 149.900 C 22.900 150.000 23.000 149.900 22.900 149.900 H 17.100 C 17.000 149.900 17.100 150.000 17.100 149.900 V 144.000 Z" stroke="rgb(0,0,255)" stroke-width="0.20" />
  <path d="M 17.100 168.000 V 162.100 C 17.100 162.000 17.000 162.100 17.100 162.100 H 22.900 C 23.000 162.100 22.900 162.000 22.900 162.100 V 173.900 C 22.900 174.000 23.000 173.900 22.900 173.900 H 17.100 C 17.000 173.900 17.100 174.000 17.100 173.900 V 168.000 Z" stroke="rgb(0,0,255)" stroke-width="0.20" />
  <path d="M 17.100 192.000 V 186.100 C 17.100 186.000 17.000 186.100 17.100 186.100 H 22.900 C 23.000 186.100 22.900 186.000 22.900 186.100 V 197.900 C 22.900 198.000 23.000 197.900 22.900 197.900 H 17.100 C 17.000 197.900 17.100 198.000 17.100 197.900 V 192.000 Z" stroke="rgb(0,0,255)" stroke-width="0.20" />
  <path d="M 17.100 216.000 V 210.100 C 17.100 210.000 17.000 210.100 17.100 210.100 H 22.900 C 23.000 210.100 22.900 210.000 22.900 210.100 V 221.900 C 22.900 222.000 23.000 221.900 22.900 221.900 H 17.100 C 17.000 221.900 17.100 222.000 17.100 221.900 V 216.000 Z" stroke="rgb(0,0,255)" stroke-width="0.20" />
  <path d="M 17.100 240.000 V 234.100 C 17.100 234.000 17.000 234.100 17.100 234.100 H 22.900 C 23.000 234.100 22.900 234.000 22.900 234.100 V 245.900 C 22.900 246.000 23.000 245.900 22.900 245.900 H 17.100 C 17.000 245.900 17.100 246.000 17.100 245.900 V 240.000 Z" stroke="rgb(0,0,255)" stroke-width="0.20" />
  <path d="M 17.100 264.000 V 258.100 C 17.100 258.000 17.000 258.100 17.100 258.100 H 22.900 C 23.000 258.100 22.900 258.000 22.900 258.100 V 269.900 C 22.900 270.000 23.000 269.900 22.900 269.900 H 17.100 C 17.000 269.900 17.100 270.000 17.100 269.900 V 264.000 Z" stroke="rgb(0,0,255)" stroke-width="0.20" />
</g>
<g id="p-10" style="fill:none;stroke-linecap:round;stroke-linejoin:round;">
  <path d="M 472.100 302.000 H 494.500 C 494.555 302.000 494.600 301.955 494.600 301.900 V 296.000 C 494.600 295.900 494.500 296.000 494.600 296.000 H 506.400 C 506.500 296.000 506.400 295.900 506.400 296.000 V 301.900 C 506.400 301.955 506.445 302.000 506.500 302.000 H 518.500 C 518.555 302.000 518.600 301.955 518.600 301.900 V 296.000 C 518.600 295.900 518.500 296.000 518.600 296.000 H 530.400 C 530.500 296.000 530.400 295.900 530.400 296.000 V 301.900 C 530.400 301.955 530.445 302.000 530.500 302.000 H 542.500 C 542.555 302.000 542.600 301.955 542.600 301.900 V 296.000 C 542.600 295.900 542.500 296.000 542.600 296.000 H 554.400 C 554.500 296.000 554.400 295.900 554.400 296.000 V 301.900 C 554.400 301.955 554.445 302.000 554.500 302.000 H 566.500 C 566.555 302.000 566.600 301.955 566.600 301.900 V 296.000 C 566.600 295.900 566.500 296.000 566.600 296.000 H 578.400 C 578.500 296.000 578.400 295.900 578.400 296.000 V 301.900 C 578.400 301.955 578.445 302.000 578.500 302.000 H 590.500 C 590.555 302.000 590.600 301.955 590.600 301.900 V 296.000 C 590.600 295.900 590.500 296.000 590.600 296.000 H 602.400 C 602.500 296.000 602.400 295.900 602.400 296.000 V 301.900 C 602.400 301.955 602.445 302.000 602.500 302.000 H 614.500 C 614.555 302.000 614.600 301.955 614.600 301.900 V 296.000 C 614.600 295.900 614.500 296.000 614.600 296.000 H 626.400 C 626.500 296.000 626.400 295.900 626.400 296.000 V 301.900 C 626.400 301.955 626.445 302.000 626.500 302.000 H 638.500 C 638.555 302.000 638.600 301.955 638.600 301.900 V 296.000 C 638.600 295.900 638.500 296.000 638.600 296.000 H 650.400 C 650.500 296.000 650.400 295.900 650.400 296.000 V 301.900 C 650.400 301.955 650.445 302.000 650.500 302.000 H 662.500 C 662.555 302.000 662.600 301.955 662.600 301.900 V 296.000 C 662.600 295.900 662.500 296.000 662.600 296.000 H 674.400 C 674.500 296.000 674.400 295.900 674.400 296.000 V 301.900 C 674.400 301.955 674.445 302.000 674.500 302.000 H 686.500 C 686.555 302.000 686.600 301.955 686.600 301.900 V 296.000 C 686.600 295.900 686.500 296.000 686.600 296.000 H 698.400 C 698.500 296.000 698.400 295.900 698.400 296.000 V 301.900 C 698.400 301.955 698.445 302.000 698.500 302.000 H 710.500 C 710.555 302.000 710.600 301.955 710.600 301.900 V 296.000 C 710.600 295.900 710.500 296.000 710.600 296.000 H 722.400 C 722.500 296.000 722.400 295.900 722.400 296.000 V 301.900 C 722.400 301.955 722.445 302.000 722.500 302.000 H 734.500 C 734.555 302.000 734.600 301.955 734.600 301.900 V 296.000 C 734.600 295.900 734.500 296.000 734.600 296.000 H 746.400 C 746.500 296.000 746.400 295.900 746.400 296.000 V 301.900 C 746.400 301.955 746.445 302.000 746.500 302.000 H 758.500 C 758.555 302.000 758.600 301.955 758.600 301.900 V 296.000 C 758.600 295.900 758.500 296.000 758.600 296.000 H 770.400 C 770.500 296.000 770.400 295.900 770.400 296.000 V 301.900 C 770.400 301.955 770.445 302.000 770.500 302.000 H 782.500 C 782.555 302.000 782.600 301.955 782.600 301.900 V 296.000 C 782.600 295.900 782.500 296.000 782.600 296.000 H 794.400 C 794.500 296.000 794.400 295.900 794.400 296.000 V 301.900 C 794.400 301.955 794.445 302.000 794.500 302.000 H 806.500 C 806.555 302.000 806.600 301.955 806.600 301.900 V 296.000 C 806.600 295.900 806.500 296.000 806.600 296.000 H 818.400 C 818.500 296.000 818.400 295.900 818.400 296.000 V 301.900 C 818.400 301.955 818.445 302.000 818.500 302.000 H 830.500 C 830.555 302.000 830.600 301.955 830.600 301.900 V 296.000 C 830.600 295.900 830.500 296.000 830.600 296.000 H 842.400 C 842.500 296.000 842.400 295.900 842.400 296.000 V 301.900 C 842.400 301.955 842.445 302.000 842.500 302.000 H 854.500 C 854.555 302.000 854.600 301.955 854.600 301.900 V 296.000 C 854.600 295.900 854.500 296.000 854.600 296.000 H 866.400 C 866.500 296.000 866.400 295.900 866.400 296.000 V 301.900 C 866.400 301.955 866.445 302.000 866.500 302.000 H 878.500 C 878.555 302.000 878.600 301.955 878.600 301.900 V 296.000 C 878.600 295.900 878.500 296.000 878.600 296.000 H 890.400 C 890.500 296.000 890.400 295.900 890.400 296.000 V 301.900 C 890.400 301.955 890.445 302.000 890.500 302.000 H 912.900 H 918.900 C 918.955 302.000 919.000 301.955 919.000 301.900 V 295.900 V 282.000 C 919.000 281.945 918.955 281.900 918.900 281.900 H 913.000 C 912.900 281.900 913.000 282.000 913.000 281.900 V 270.100 C 913.000 270.000 912.900 270.100 913.000 270.100 H 918.900 C 918.955 270.100 919.000 270.055 919.000 270.000 V 258.000 C 919.000 257.945 918.955 257.900 918.900 257.900 H 913.000 C 912.900 257.900 913.000 258.000 913.000 257.900 V 246.100 C 913.000 246.000 912.900 246.100 913.000 246.100 H 918.900 C 918.955 246.100 919.000 246.055 919.000 246.000 V 234.000 C 919.000 233.945 918.955 233.900 918.900 233.900 H 913.000 C 912.900 233.900 913.000 234.000 913.000 233.900 V 222.100 C 913.000 222.000 912.900 222.100 913.000 222.100 H 918.900 C 918.955 222.100 919.000 222.055 919.000 222.000 V 210.000 C 919.000 209.945 918.955 209.900 918.900 209.900 H 913.000 C 912.900 209.900 913.000 210.000 913.000 209.900 V 198.100 C 913.000 198.000 912.900 198.100 913.000 198.100 H 918.900 C 918.955 198.100 919.000 198.055 919.000 198.000 V 186.000 C 919.000 185.945 918.955 185.900 918.900 185.900 H 913.000 C 912.900 185.900 913.000 186.000 913.000 185.900 V 174.100 C 913.000 174.000 912.900 174.100 913.000 174.100 H 918.900 C 918.955 174.100 919.000 174.055 919.000 174.000 V 162.000 C 919.000 161.945 918.955 161.900 918.900 161.900 H 913.000 C 912.900 161.900 913.000 162.000 913.000 161.900 V 150.100 C 913.000 150.000 912.900 150.100 913.000 150.100 H 918.900 C 918.955 150.100 919.000 150.055 919.000 150.000 V 138.000 C 919.000 137.945 918.955 137.900 918.900 137.900 H 913.000 C 912.900 137.900 913.000 138.000 913.000 137.900 V 126.100 C 913.000 126.000 912.900 126.100 913.000 126.100 H 918.900 C 918.955 126.100 919.000 126.055 919.000 126.000 V 114.000 C 919.000 113.945 918.955 113.900 918.900 113.900 H 913.000 C 912.900 113.900 913.000 114.000 913.000 113.900 V 102.100 C 913.000 102.000 912.900 102.100 913.000 102.100 H 918.900 C 918.955 102.100 919.000 102.055 919.000 102.000 V 90.000 C 919.000 89.945 918.955 89.900 918.900 89.900 H 913.000 C 912.900 89.900 913.000 90.000 913.000 89.900 V 78.100 C 913.000 78.000 912.900 78.100 913.000 78.100 H 918.900 C 918.955 78.100 919.000 78.055 919.000 78.000 V 66.000 C 919.000 65.945 918.955 65.900 918.900 65.900 H 913.000 C 912.900 65.900 913.000 66.000 913.000 65.900 V 54.100 C 913.000 54.000 912.900 54.100 913.000 54.100 H 918.900 C 918.955 54.100 919.000 54.055 919.000 54.000 V 42.000 C 919.000 41.945 918.955 41.900 918.900 41.900 H 913.000 C 912.900 41.900 913.000 42.000 913.000 41.900 V 30.100 C 913.000 30.000 912.900 30.100 913.000 30.100 H 918.900 C 918.955 30.100 919.000 30.055 919.000 30.000 V 16.100 V 10.100 C 919.000 10.045 918.955 10.000 918.900 10.000 H 912.900 H 890.500 C 890.445 10.000 890.400 10.045 890.400 10.100 V 16.000 C 890.400 16.100 890.500 16.000 890.400 16.000 H 878.600 C 878.500 16.000 878.600 16.100 878.600 16.000 V 10.100 C 878.600 10.045 878.555 10.000 878.500 10.000 H 866.500 C 866.445 10.000 866.400 10.045 866.400 10.100 V 16.000 C 866.400 16.100 866.500 16.000 866.400 16.000 H 854.600 C 854.500 16.000 854.600 16.100 854.600 16.000 V 10.100 C 854.600 10.045 854.555 10.000 854.500 10.000 H 842.500 C 842.445 10.000 842.400 10.045 842.400 10.100 V 16.000 C 842.400 16.100 842.500 16.000 842.400 16.000 H 830.600 C 830.500 16.000 830.600 16.100 830.600 16.000 V 10.100 C 830.600 10.045 830.555 10.000 830.500 10.000 H 818.500 C 818.445 10.000 818.400 10.045 818.400 10.100 V 16.000 C 818.400 16.100 818.500 16.000 818.400 16.000 H 806.600 C 806.500 16.000 806.600 16.100 806.600 16.000 V 10.100 C 806.600 10.045 806.555 10.000 806.500 10.000 H 794.500 C 794.445 10.000 794.400 10.045 794.400 10.100 V 16.000 C 794.400 16.100 794.500 16.000 794.400 16.000 H 782.600 C 782.500 16.000 782.600 16.100 782.600 16.000 V 10.100 C 782.600 10.045 782.555 10.000 782.500 10.000 H 770.500 C 770.445 10.000 770.400 10.045 770.400 10.100 V 16.000 C 770.400 16.100 770.500 16.000 770.400 16.000 H 758.600 C 758.500 16.000 758.600 16.100 758.600 16.000 V 10.100 C 758.600 10.045 758.555 10.000 758.500 10.000 H 746.500 C 746.445 10.000 746.400 10.045 746.400 10.100 V 16.000 C 746.400 16.100 746.500 16.000 746.400 16.000 H 734.600 C 734.500 16.000 734.600 16.100 734.600 16.000 V 10.100 C 734.600 10.045 734.555 10.000 734.500 10.000 H 722.500 C 722.445 10.000 722.400 10.045 722.400 10.100 V 16.000 C 722.400 16.100 722.500 16.000 722.400 16.000 H 710.600 C 710.500 16.000 710.600 16.100 710.600 16.000 V 10.100 C 710.600 10.045 710.555 10.000 710.500 10.000 H 698.500 C 698.445 10.000 698.400 10.045 698.400 10.100 V 16.000 C 698.400 16.100 698.500 16.000 698.400 16.000 H 686.600 C 686.500 16.000 686.600 16.100 686.600 16.000 V 10.100 C 686.600 10.045 686.555 10.000 686.500 10.000 H 674.500 C 674.445 10.000 674.400 10.045 674.400 10.100 V 16.000 C 674.400 16.100 674.500 16.000 674.400 16.000 H 662.600 C 662.500 16.000 662.600 16.100 662.600 16.000 V 10.100 C 662.600 10.045 662.555 10.000 662.500 10.000 H 650.500 C 650.445 10.000 650.400 10.045 650.400 10.100 V 16.000 C 650.400 16.100 650.500 16.000 650.400 16.000 H 638.600 C 638.500 16.000 638.600 16.100 638.600 16.000 V 10.100 C 638.600 10.045 638.555 10.000 638.500 10.000 H 626.500 C 626.445 10.000 626.400 10.045 626.400 10.100 V 16.000 C 626.400 16.100 626.500 16.000 626.400 16.000 H 614.600 C 614.500 16.000 614.600 16.100 614.600 16.000 V 10.100 C 614.600 10.045 614.555 10.000 614.500 10.000 H 602.500 C 602.445 10.000 602.400 10.045 602.400 10.100 V 16.000 C 602.400 16.100 602.500 16.000 602.400 16.000 H 590.600 C 590.500 16.000 590.600 16.100 590.600 16.000 V 10.100 C 590.600 10.045 590.555 10.000 590.500 10.000 H 578.500 C 578.445 10.000 578.400 10.045 578.400 10.100 V 16.000 C 578.400 16.100 578.500 16.000 578.400 16.000 H 566.600 C 566.500 16.000 566.600 16.100 566.600 16.000 V 10.100 C 566.600 10.045 566.555 10.000 566.500 10.000 H 554.500 C 554.445 10.000 554.400 10.045 554.400 10.100 V 16.000 C 554.400 16.100 554.500 16.000 554.400 16.000 H 542.600 C 542.500 16.000 542.600 16.100 542.600 16.000 V 10.100 C 542.600 10.045 542.555 10.000 542.500 10.000 H 530.500 C 530.445 10.000 530.400 10.045 530.400 10.100 V 16.000 C 530.400 16.100 530.500 16.000 530.400 16.000 H 518.600 C 518.500 16.000 518.600 16.100 518.600 16.000 V 10.100 C 518.600 10.045 518.555 10.000 518.500 10.000 H 506.500 C 506.445 10.000 506.400 10.045 506.400 10.100 V 16.000 C 506.400 16.100 506.500 16.000 506.400 16.000 H 494.600 C 494.500 16.000 494.600 16.100 494.600 16.000 V 10.100 C 494.600 10.045 494.555 10.000 494.500 10.000 H 472.100 H 466.100 C 466.045 10.000 466.000 10.045 466.000 10.100 V 16.100 V 30.000 C 466.000 30.055 466.045 30.100 466.100 30.100 H 472.000 C 472.100 30.100 472.000 30.000 472.000 30.100 V 41.900 C 472.000 42.000 472.100 41.900 472.000 41.900 H 466.100 C 466.045 41.900 466.000 41.945 466.000 42.000 V 54.000 C 466.000 54.055 466.045 54.100 466.100 54.100 H 472.000 C 472.100 54.100 472.000 54.000 472.000 54.100 V 65.900 C 472.000 66.000 472.100 65.900 472.000 65.900 H 466.100 C 466.045 65.900 466.000 65.945 466.000 66.000 V 78.000 C 466.000 78.055 466.045 78.100 466.100 78.100 H 472.000 C 472.100 78.100 472.000 78.000 472.000 78.100 V 89.900 C 472.000 90.000 472.100 89.900 472.000 89.900 H 466.100 C 466.045 89.900 466.000 89.945 466.000 90.000 V 102.000 C 466.000 102.055 466.045 102.100 466.100 102.100 H 472.000 C 472.100 102.100 472.000 102.000 472.000 102.100 V 113.900 C 472.000 114.000 472.100 113.900 472.000 113.900 H 466.100 C 466.045 113.900 466.000 113.945 466.000 114.000 V 126.000 C 466.000 126.055 466.045 126.100 466.100 126.100 H 472.000 C 472.100 126.100 472.000 126.000 472.000 126.100 V 137.900 C 472.000 138.000 472.100 137.900 472.000 137.900 H 466.100 C 466.045 137.900 466.000 137.945 466.000 138.000 V 150.000 C 466.000 150.055 466.045 150.100 466.100 150.100 H 472.000 C 472.100 150.100 472.000 150.000 472.000 150.100 V 161.900 C 472.000 162.000 472.100 161.900 472.000 161.900 H 466.100 C 466.045 161.900 466.000 161.945 466.000 162.000 V 174.000 C 466.000 174.055 466.045 174.100 466.100 174.100 H 472.000 C 472.100 174.100 472.000 174.000 472.000 174.100 V 185.900 C 472.000 186.000 472.100 185.900 472.000 185.900 H 466.100 C 466.045 185.900 466.000 185.945 466.000 186.000 V 198.000 C 466.000 198.055 466.045 198.100 466.100 198.100 H 472.000 C 472.100 198.100 472.000 198.000 472.000 198.100 V 209.900 C 472.000 210.000 472.100 209.900 472.000 209.900 H 466.100 C 466.045 209.900 466.000 209.945 466.000 210.000 V 222.000 C 466.000 222.055 466.045 222.100 466.100 222.100 H 472.000 C 472.100 222.100 472.000 222.000 472.000 222.100 V 233.900 C 472.000 234.000 472.100 233.900 472.000 233.900 H 466.100 C 466.045 233.900 466.000 233.945 466.000 234.000 V 246.000 C 466.000 246.055 466.045 246.100 466.100 246.100 H 472.000 C 472.100 246.100 472.000 246.000 472.000 246.100 V 257.900 C 472.000 258.000 472.100 257.900 472.000 257.900 H 466.100 C 466.045 257.900 466.000 257.945 466.000 258.000 V 270.000 C 466.000 270.055 466.045 270.100 466.100 270.100 H 472.000 C 472.100 270.100 472.000 270.000 472.000 270.100 V 281.900 C 472.000 282.000 472.100 281.900 472.000 281.900 H 466.100 C 466.045 281.900 466.000 281.945 466.000 282.000 V 295.900 V 301.900 C 466.000 301.955 466.045 302.000 466.100 302.000 H 472.100 Z" stroke="rgb(0,0,0)" stroke-width="0.20" />
</g>
</svg>